{
.appVersion = "1230";
classes = (
{
automatic = 1;
code = "A B C D E F G H I J K L M N O P Q R S T U V W X Y Z";
name = Uppercase;
}
);
copyright = "This Font Software is licensed under the SIL Open Font License, Version 1.1.";
customParameters = (
{
name = openTypeOS2Type;
value = (
3,
8
);
}
);
date = "2012-07-27 19:04:09 +0000";
designer = "Abbie Gonzalez";
designerURL = "http://abbiecod.es";
familyName = AlphaSymbolic;
featurePrefixes = (
{
automatic = 1;
code = "languagesystem DFLT dflt;\012";
name = Languagesystems;
}
);
features = (
{
automatic = 1;
code = "feature sups;\012feature frac;\012feature ordn;\012feature subs;\012feature sinf;\012feature numr;\012feature dnom;\012feature lnum;\012feature pnum;\012feature tnum;\012feature onum;\012feature case;\012feature salt;\012feature ss01;\012feature ss03;\012";
name = aalt;
},
{
automatic = 1;
code = "sub zero by zeroinferior;\012sub one by oneinferior;\012sub two by twoinferior;\012sub three by threeinferior;\012sub four by fourinferior;\012sub five by fiveinferior;\012sub six by sixinferior;\012sub seven by seveninferior;\012sub eight by eightinferior;\012sub nine by nineinferior;\012sub parenleft by parenleftinferior;\012sub parenright by parenrightinferior;\012";
name = subs;
},
{
automatic = 1;
code = "sub zero by zeroinferior;\012sub one by oneinferior;\012sub two by twoinferior;\012sub three by threeinferior;\012sub four by fourinferior;\012sub five by fiveinferior;\012sub six by sixinferior;\012sub seven by seveninferior;\012sub eight by eightinferior;\012sub nine by nineinferior;\012sub parenleft by parenleftinferior;\012sub parenright by parenrightinferior;\012";
name = sinf;
},
{
automatic = 1;
code = "sub zero by zerosuperior;\012sub one by onesuperior;\012sub two by twosuperior;\012sub three by threesuperior;\012sub four by foursuperior;\012sub five by fivesuperior;\012sub six by sixsuperior;\012sub seven by sevensuperior;\012sub eight by eightsuperior;\012sub nine by ninesuperior;\012";

glyphs = (
{
glyphname = A;
lastChange = "2019-09-06 18:58:38 +0000";
layers = (
{
layerId = "C6C3B4F4-9047-4AEA-9672-C83927A9B560";
paths = (
{
closed = 1;
nodes = (
"437 145 OFFCURVE",
"548 255 OFFCURVE",
"548 392 CURVE SMOOTH",
"548 528 OFFCURVE",
"438 638 OFFCURVE",
"298 638 CURVE SMOOTH",
"163 638 OFFCURVE",
"54 528 OFFCURVE",
"54 392 CURVE SMOOTH",
"54 255 OFFCURVE",
"163 145 OFFCURVE",
"298 145 CURVE SMOOTH"
);
},
{
closed = 1;
nodes = (
"228 53 LINE",
"374 53 LINE",
"374 729 LINE",
"228 729 LINE"
);
}
);
width = 600;
},
{
associatedMasterId = "C6C3B4F4-9047-4AEA-9672-C83927A9B560";
layerId = "4AC79E47-60FC-4F22-96E6-D1F8F5531AB6";
name = "Color 1";
paths = (
{
closed = 1;
nodes = (
"437 145 OFFCURVE",
"548 255 OFFCURVE",
"548 392 CURVE SMOOTH",
"548 528 OFFCURVE",
"438 638 OFFCURVE",
"298 638 CURVE SMOOTH",
"163 638 OFFCURVE",
"54 528 OFFCURVE",
"54 392 CURVE SMOOTH",
"54 255 OFFCURVE",
"163 145 OFFCURVE",
"298 145 CURVE SMOOTH"
);
},
{
closed = 1;
nodes = (
"228 53 LINE",
"374 53 LINE",
"374 729 LINE",
"228 729 LINE"
);
}
);
width = 600;
},
{
associatedMasterId = "C6C3B4F4-9047-4AEA-9672-C83927A9B560";
layerId = "79479627-BF2E-4D07-ADA8-DCC1F4CD3BC3";
name = "Color 6";
paths = (
{
closed = 1;
nodes = (
"228 53 LINE",
"374 53 LINE",
"374 729 LINE",
"228 729 LINE"
);
}
);
width = 600;
},
{
layerId = "2731C349-77E1-43A4-A9DD-A1DF19151D5D";
paths = (
{
closed = 1;
nodes = (
"295 109 OFFCURVE",
"447 150 OFFCURVE",
"515 268 CURVE SMOOTH",
"583 386 OFFCURVE",
"543 536 OFFCURVE",
"422 606 CURVE SMOOTH",
"305 674 OFFCURVE",
"156 633 OFFCURVE",
"88 515 CURVE SMOOTH",
"20 397 OFFCURVE",
"58 247 OFFCURVE",
"175 179 CURVE SMOOTH"
);
},
{
closed = 1;
nodes = (
"69 135 LINE",
"195 62 LINE",
"533 647 LINE",
"407 720 LINE"
);
}
);
width = 600;
},
{
associatedMasterId = "2731C349-77E1-43A4-A9DD-A1DF19151D5D";
layerId = "F402D30B-573E-433A-9F58-CCE9126D350E";
name = "Color 1";
paths = (
{
closed = 1;
nodes = (
"296 110 OFFCURVE",
"447 150 OFFCURVE",
"515 268 CURVE SMOOTH",
"583 386 OFFCURVE",
"543 536 OFFCURVE",
"422 606 CURVE SMOOTH",
"305 674 OFFCURVE",
"156 633 OFFCURVE",
"88 515 CURVE SMOOTH",
"19 397 OFFCURVE",
"58 247 OFFCURVE",
"175 179 CURVE SMOOTH"
);
},
{
closed = 1;
nodes = (
"69 135 LINE",
"195 62 LINE",
"533 647 LINE",
"407 720 LINE"
);
}
);
width = 600;
},
{
associatedMasterId = "2731C349-77E1-43A4-A9DD-A1DF19151D5D";
layerId = "E7A66CF4-A2CD-42B3-A4E0-7951EC17613A";
name = "Color 6";
paths = (
{
closed = 1;
nodes = (
"69 135 LINE",
"195 62 LINE",
"533 647 LINE",
"407 720 LINE"
);
}
);
width = 600;
}
);
leftKerningGroup = Standard;
rightKerningGroup = Standard;
unicode = 0041;
},
{
glyphname = B;
lastChange = "2019-09-06 18:58:39 +0000";
layers = (
{
layerId = "C6C3B4F4-9047-4AEA-9672-C83927A9B560";
paths = (
{
closed = 1;
nodes = (
"437 145 OFFCURVE",
"548 255 OFFCURVE",
"548 392 CURVE SMOOTH",
"548 528 OFFCURVE",
"438 638 OFFCURVE",
"298 638 CURVE SMOOTH",
"163 638 OFFCURVE",
"54 528 OFFCURVE",
"54 392 CURVE SMOOTH",
"54 255 OFFCURVE",
"163 145 OFFCURVE",
"298 145 CURVE SMOOTH"
);
},
{
closed = 1;
nodes = (
"228 -131 LINE",
"374 -131 LINE",
"374 931 LINE",
"228 931 LINE"
);
}
);
width = 600;
},
{
associatedMasterId = "C6C3B4F4-9047-4AEA-9672-C83927A9B560";
layerId = "C8AFE4BA-256F-4541-BAC1-7CFD05E88006";
name = "Color 6";
paths = (
{
closed = 1;
nodes = (
"466 93 OFFCURVE",
"600 226 OFFCURVE",
"600 392 CURVE SMOOTH",
"600 557 OFFCURVE",
"467 690 OFFCURVE",
"297 690 CURVE SMOOTH",
"134 690 OFFCURVE",
"2 557 OFFCURVE",
"2 392 CURVE SMOOTH",
"2 226 OFFCURVE",
"134 93 OFFCURVE",
"297 93 CURVE SMOOTH"
);
},
{
closed = 1;
nodes = (
"228 -131 LINE",
"374 -131 LINE",
"374 931 LINE",
"228 931 LINE"
);
}
);
width = 600;
},
{
associatedMasterId = "C6C3B4F4-9047-4AEA-9672-C83927A9B560";
layerId = "092F704E-D9C4-40CE-988F-EE8EBED11166";
name = "Color 4";
paths = (
{
closed = 1;
nodes = (
"437 145 OFFCURVE",
"548 255 OFFCURVE",
"548 392 CURVE SMOOTH",
"548 528 OFFCURVE",
"438 638 OFFCURVE",
"298 638 CURVE SMOOTH",
"163 638 OFFCURVE",
"54 528 OFFCURVE",
"54 392 CURVE SMOOTH",
"54 255 OFFCURVE",
"163 145 OFFCURVE",
"298 145 CURVE SMOOTH"
);
}
);
width = 600;
},
{
layerId = "2731C349-77E1-43A4-A9DD-A1DF19151D5D";
paths = (
{
closed = 1;
nodes = (
"291 111 OFFCURVE",
"442 151 OFFCURVE",
"511 270 CURVE SMOOTH",
"579 387 OFFCURVE",
"539 538 OFFCURVE",
"417 608 CURVE SMOOTH",
"300 675 OFFCURVE",
"151 634 OFFCURVE",
"83 517 CURVE SMOOTH",
"15 398 OFFCURVE",
"54 248 OFFCURVE",
"171 181 CURVE SMOOTH"
);
},
{
closed = 1;
nodes = (
"-28 -23 LINE",
"99 -96 LINE",
"630 823 LINE",
"503 896 LINE"
);
}
);
width = 600;
},
{
associatedMasterId = "2731C349-77E1-43A4-A9DD-A1DF19151D5D";
layerId = "E6031924-FA8C-4FB3-BCA7-FFA8905F0D3F";
name = "Color 6";
paths = (
{
closed = 1;
nodes = (
"291 111 OFFCURVE",
"442 151 OFFCURVE",
"511 270 CURVE SMOOTH",
"579 387 OFFCURVE",
"539 538 OFFCURVE",
"417 608 CURVE SMOOTH",
"300 675 OFFCURVE",
"151 634 OFFCURVE",
"83 517 CURVE SMOOTH",
"15 398 OFFCURVE",
"54 248 OFFCURVE",
"171 181 CURVE SMOOTH"
);
},
{
closed = 1;
nodes = (
"-28 -23 LINE",
"99 -96 LINE",
"630 823 LINE",
"503 896 LINE"
);
}
);
width = 600;
},
{
associatedMasterId = "2731C349-77E1-43A4-A9DD-A1DF19151D5D";
layerId = "0B7CA110-A1BD-49FA-BDE4-1B31C077696C";
name = "Color 4";
paths = (
{
closed = 1;
nodes = (
"296 110 OFFCURVE",
"447 150 OFFCURVE",
"515 268 CURVE SMOOTH",
"583 386 OFFCURVE",
"543 536 OFFCURVE",
"422 606 CURVE SMOOTH",
"305 674 OFFCURVE",
"155 633 OFFCURVE",
"87 515 CURVE SMOOTH",
"19 397 OFFCURVE",
"58 247 OFFCURVE",
"175 180 CURVE SMOOTH"
);
}
);
width = 600;
}
);
leftKerningGroup = Standard;
rightKerningGroup = Standard;
unicode = 0042;
},
{
glyphname = C;
lastChange = "2019-09-06 18:58:39 +0000";
layers = (
{
background = {
paths = (
{
closed = 1;
nodes = (
"149 622 OFFCURVE",
"29 501 OFFCURVE",
"29 351 CURVE SMOOTH",
"29 200 OFFCURVE",
"149 79 OFFCURVE",
"298 79 CURVE SMOOTH",
"451 79 OFFCURVE",
"573 200 OFFCURVE",
"573 351 CURVE SMOOTH",
"573 501 OFFCURVE",
"452 622 OFFCURVE",
"298 622 CURVE SMOOTH"
);
},
{
closed = 1;
nodes = (
"361 0 LINE",
"241 0 LINE",
"241 700 LINE SMOOTH",
"361 700 LINE"
);
}
);
};
layerId = "C6C3B4F4-9047-4AEA-9672-C83927A9B560";
paths = (
{
closed = 1;
nodes = (
"247 634 LINE",
"137 610 OFFCURVE",
"55 511 OFFCURVE",
"55 393 CURVE SMOOTH",
"55 274 OFFCURVE",
"137 175 OFFCURVE",
"247 151 CURVE"
);
},
{
closed = 1;
nodes = (
"467 178 OFFCURVE",
"549 275 OFFCURVE",
"549 393 CURVE SMOOTH",
"549 510 OFFCURVE",
"468 608 OFFCURVE",
"357 633 CURVE",
"357 152 LINE"
);
}
);
width = 600;
},
{
background = {
paths = (
{
closed = 1;
nodes = (
"149 622 OFFCURVE",
"29 501 OFFCURVE",
"29 351 CURVE SMOOTH",
"29 200 OFFCURVE",
"149 79 OFFCURVE",
"298 79 CURVE SMOOTH",
"451 79 OFFCURVE",
"573 200 OFFCURVE",
"573 351 CURVE SMOOTH",
"573 501 OFFCURVE",
"452 622 OFFCURVE",
"298 622 CURVE SMOOTH"
);
},
{
closed = 1;
nodes = (
"361 0 LINE",
"241 0 LINE",
"241 700 LINE SMOOTH",
"361 700 LINE"
);
}
);
};
layerId = "2731C349-77E1-43A4-A9DD-A1DF19151D5D";
paths = (
{
closed = 1;
nodes = (
"29 413 OFFCURVE",
"50 287 OFFCURVE",
"134 211 CURVE",
"375 629 LINE",
"268 663 OFFCURVE",
"147 619 OFFCURVE",
"88 516 CURVE SMOOTH"
);
},
{
closed = 1;
nodes = (
"575 371 OFFCURVE",
"554 496 OFFCURVE",
"470 573 CURVE",
"229 157 LINE",
"338 124 OFFCURVE",
"457 167 OFFCURVE",
"516 269 CURVE SMOOTH"
);
}
);
width = 600;
}
);
leftKerningGroup = Standard;
rightKerningGroup = Standard;
unicode = 0043;
},
{
glyphname = D;
lastChange = "2019-09-06 18:58:39 +0000";
layers = (
{
layerId = "C6C3B4F4-9047-4AEA-9672-C83927A9B560";
paths = (
{
closed = 1;
nodes = (
"77 167 LINE",
"526 167 LINE",
"526 617 LINE",
"77 617 LINE"
);
},
{
closed = 1;
nodes = (
"228 -131 LINE",
"374 -131 LINE",
"374 931 LINE",
"228 931 LINE"
);
}
);
width = 600;
},
{
associatedMasterId = "C6C3B4F4-9047-4AEA-9672-C83927A9B560";
layerId = "5DA01D34-A72E-4E24-9577-3B13BEC347A9";
name = "Color 6";
paths = (
{
closed = 1;
nodes = (
"29 119 LINE",
"574 119 LINE",
"574 665 LINE",
"29 665 LINE"
);
},
{
closed = 1;
nodes = (
"228 -131 LINE",
"374 -131 LINE",
"374 931 LINE",
"228 931 LINE"
);
}
);
width = 600;
},
{
associatedMasterId = "C6C3B4F4-9047-4AEA-9672-C83927A9B560";
layerId = "4F712594-0DBC-43C3-8EE3-1502E7BB5333";
name = "Color 2";
paths = (
{
closed = 1;
nodes = (
"77 167 LINE",
"526 167 LINE",
"526 617 LINE",
"77 617 LINE"
);
}
);
width = 600;
},
{
layerId = "2731C349-77E1-43A4-A9DD-A1DF19151D5D";
paths = (
{
closed = 1;
nodes = (
"-9 310 LINE",
"379 86 LINE",
"604 476 LINE",
"216 700 LINE"
);
},
{
closed = 1;
nodes = (
"-28 -23 LINE",
"99 -96 LINE",
"630 824 LINE",
"503 897 LINE"
);
}
);
width = 600;
},
{
associatedMasterId = "2731C349-77E1-43A4-A9DD-A1DF19151D5D";
layerId = "49ECCA5D-5435-4DA7-A5AB-DDB1025013C6";
name = "Color 6";
paths = (
{
closed = 1;
nodes = (
"-75 292 LINE",
"397 20 LINE",
"670 494 LINE",
"198 766 LINE"
);
},
{
closed = 1;
nodes = (
"-28 -23 LINE",
"99 -96 LINE",
"630 824 LINE",
"503 897 LINE"
);
}
);
width = 600;
},
{
associatedMasterId = "2731C349-77E1-43A4-A9DD-A1DF19151D5D";
layerId = "4EE8BD2E-5978-4343-8D32-9602CBCA17C6";
name = "Color 2";
paths = (
{
closed = 1;
nodes = (
"-5 309 LINE",
"383 85 LINE",
"608 475 LINE",
"220 699 LINE"
);
}
);
width = 600;
}
);
leftKerningGroup = Standard;
rightKerningGroup = Standard;
unicode = 0044;
},
{
glyphname = E;
lastChange = "2019-09-06 18:58:39 +0000";
layers = (
{
layerId = "C6C3B4F4-9047-4AEA-9672-C83927A9B560";
paths = (
{
closed = 1;
nodes = (
"132 438 LINE",
"152 509 OFFCURVE",
"216 560 OFFCURVE",
"292 560 CURVE SMOOTH",
"373 560 OFFCURVE",
"438 509 OFFCURVE",
"458 438 CURVE",
"538 438 LINE",
"516 552 OFFCURVE",
"416 638 OFFCURVE",
"292 638 CURVE SMOOTH",
"173 638 OFFCURVE",
"74 552 OFFCURVE",
"52 438 CURVE"
);
},
{
closed = 1;
nodes = (
"52 345 LINE",
"50 360 OFFCURVE",
"48 376 OFFCURVE",
"48 392 CURVE SMOOTH",
"48 408 OFFCURVE",
"49 423 OFFCURVE",
"52 438 CURVE",
"-8 438 LINE",
"-8 345 LINE"
);
},
{
closed = 1;
nodes = (
"415 145 OFFCURVE",
"516 231 OFFCURVE",
"538 345 CURVE",
"458 345 LINE",
"437 274 OFFCURVE",
"372 223 OFFCURVE",
"292 223 CURVE SMOOTH",
"216 223 OFFCURVE",
"152 274 OFFCURVE",
"132 345 CURVE",
"52 345 LINE",
"74 231 OFFCURVE",
"173 145 OFFCURVE",
"292 145 CURVE SMOOTH"
);
},
{
closed = 1;
nodes = (
"458 345 LINE",
"462 360 OFFCURVE",
"464 376 OFFCURVE",
"464 392 CURVE SMOOTH",
"464 408 OFFCURVE",
"462 423 OFFCURVE",
"458 438 CURVE",
"132 438 LINE",
"128 423 OFFCURVE",
"126 408 OFFCURVE",
"126 392 CURVE SMOOTH",
"126 376 OFFCURVE",
"128 360 OFFCURVE",
"132 345 CURVE"
);
},
{
closed = 1;
nodes = (
"607 345 LINE",
"607 438 LINE",
"538 438 LINE",
"541 423 OFFCURVE",
"542 408 OFFCURVE",
"542 392 CURVE SMOOTH",
"542 376 OFFCURVE",
"540 360 OFFCURVE",
"538 345 CURVE"
);
},
{
closed = 1;
nodes = (
"-7 345 LINE",
"607 345 LINE",
"607 438 LINE",
"-7 438 LINE"
);
}
);
width = 600;
},
{
layerId = "2731C349-77E1-43A4-A9DD-A1DF19151D5D";
paths = (
{
closed = 1;
nodes = (
"178 516 LINE",
"231 567 OFFCURVE",
"311 579 OFFCURVE",
"377 541 CURVE SMOOTH",
"447 501 OFFCURVE",
"478 424 OFFCURVE",
"460 353 CURVE",
"529 313 LINE",
"567 422 OFFCURVE",
"524 547 OFFCURVE",
"416 609 CURVE SMOOTH",
"313 668 OFFCURVE",
"184 643 OFFCURVE",
"108 556 CURVE"
);
},
{
closed = 1;
nodes = (
"62 475 LINE",
"68 489 OFFCURVE",
"74 504 OFFCURVE",
"82 518 CURVE SMOOTH",
"90 532 OFFCURVE",
"98 544 OFFCURVE",
"108 556 CURVE",
"56 586 LINE",
"10 505 LINE"
);
},
{
closed = 1;
nodes = (
"276 120 OFFCURVE",
"407 144 OFFCURVE",
"483 232 CURVE",
"414 272 LINE",
"360 221 OFFCURVE",
"278 209 OFFCURVE",
"209 249 CURVE SMOOTH",
"143 287 OFFCURVE",
"113 363 OFFCURVE",
"131 435 CURVE",
"62 475 LINE",
"24 365 OFFCURVE",
"67 241 OFFCURVE",
"170 182 CURVE SMOOTH"
);
},
{
closed = 1;
nodes = (
"414 272 LINE",
"424 283 OFFCURVE",
"434 296 OFFCURVE",
"442 310 CURVE SMOOTH",
"450 324 OFFCURVE",
"456 338 OFFCURVE",
"460 353 CURVE",
"178 516 LINE",
"167 505 OFFCURVE",
"157 493 OFFCURVE",
"149 479 CURVE SMOOTH",
"141 465 OFFCURVE",
"135 450 OFFCURVE",
"131 435 CURVE"
);
},
{
closed = 1;
nodes = (
"543 197 LINE",
"589 278 LINE",
"529 313 LINE",
"524 298 OFFCURVE",
"518 285 OFFCURVE",
"510 271 CURVE SMOOTH",
"502 257 OFFCURVE",
"492 244 OFFCURVE",
"483 232 CURVE"
);
},
{
closed = 1;
nodes = (
"11 504 LINE",
"543 197 LINE",
"589 278 LINE",
"57 585 LINE"
);
}
);
width = 600;
}
);
leftKerningGroup = Standard;
rightKerningGroup = Standard;
unicode = 0045;
},
{
glyphname = F;
lastChange = "2019-09-06 18:58:39 +0000";
layers = (
{
layerId = "C6C3B4F4-9047-4AEA-9672-C83927A9B560";
paths = (
{
closed = 1;
nodes = (
"78 330 LINE",
"512 330 LINE",
"512 453 LINE",
"78 453 LINE"
);
},
{
closed = 1;
nodes = (
"404 -240 OFFCURVE",
"485 -160 OFFCURVE",
"485 -56 CURVE",
"485 -56 LINE",
"117 -56 LINE",
"117 -56 LINE",
"117 -160 OFFCURVE",
"196 -240 OFFCURVE",
"296 -240 CURVE SMOOTH"
);
},
{
closed = 1;
nodes = (
"196 1040 OFFCURVE",
"117 960 OFFCURVE",
"117 856 CURVE",
"117 856 LINE",
"485 856 LINE",
"485 856 LINE",
"485 960 OFFCURVE",
"404 1040 OFFCURVE",
"296 1040 CURVE SMOOTH"
);
},
{
closed = 1;
nodes = (
"228 -131 LINE",
"374 -131 LINE",
"374 931 LINE",
"228 931 LINE"
);
}
);
width = 600;
},
{
layerId = "2731C349-77E1-43A4-A9DD-A1DF19151D5D";
paths = (
{
closed = 1;
nodes = (
"72 448 LINE",
"448 231 LINE",
"510 338 LINE",
"134 555 LINE"
);
},
{
closed = 1;
nodes = (
"69 -209 OFFCURVE",
"180 -180 OFFCURVE",
"232 -90 CURVE",
"232 -90 LINE",
"-87 94 LINE",
"-87 94 LINE",
"-140 4 OFFCURVE",
"-110 -105 OFFCURVE",
"-24 -155 CURVE SMOOTH"
);
},
{
closed = 1;
nodes = (
"530 1004 OFFCURVE",
"421 974 OFFCURVE",
"369 884 CURVE",
"369 884 LINE",
"688 700 LINE",
"688 700 LINE",
"740 790 OFFCURVE",
"709 900 OFFCURVE",
"616 954 CURVE SMOOTH"
);
},
{
closed = 1;
nodes = (
"-29 -26 LINE",
"98 -99 LINE",
"629 820 LINE",
"502 893 LINE"
);
}
);
width = 600;
}
);
leftKerningGroup = Standard;
rightKerningGroup = Standard;
unicode = 0046;
},
{
glyphname = G;
lastChange = "2019-09-06 18:58:39 +0000";
layers = (
{
layerId = "C6C3B4F4-9047-4AEA-9672-C83927A9B560";
paths = (
{
closed = 1;
nodes = (
"404 256 OFFCURVE",
"487 338 OFFCURVE",
"487 442 CURVE SMOOTH",
"487 545 OFFCURVE",
"405 627 OFFCURVE",
"298 627 CURVE SMOOTH",
"197 627 OFFCURVE",
"115 545 OFFCURVE",
"115 442 CURVE SMOOTH",
"115 338 OFFCURVE",
"197 256 OFFCURVE",
"298 256 CURVE SMOOTH"
);
},
{
closed = 1;
nodes = (
"228 -117 LINE",
"374 -117 LINE",
"374 559 LINE",
"228 559 LINE"
);
},
{
closed = 1;
nodes = (
"404 -204 OFFCURVE",
"487 -122 OFFCURVE",
"487 -18 CURVE SMOOTH",
"487 85 OFFCURVE",
"405 167 OFFCURVE",
"298 167 CURVE SMOOTH",
"197 167 OFFCURVE",
"115 85 OFFCURVE",
"115 -18 CURVE SMOOTH",
"115 -122 OFFCURVE",
"197 -204 OFFCURVE",
"298 -204 CURVE SMOOTH"
);
}
);
width = 600;
},
{
layerId = "2731C349-77E1-43A4-A9DD-A1DF19151D5D";
paths = (
{
closed = 1;
nodes = (
"412 199 OFFCURVE",
"525 228 OFFCURVE",
"577 318 CURVE SMOOTH",
"629 407 OFFCURVE",
"599 519 OFFCURVE",
"506 573 CURVE SMOOTH",
"419 623 OFFCURVE",
"307 593 OFFCURVE",
"255 504 CURVE SMOOTH",
"203 414 OFFCURVE",
"233 302 OFFCURVE",
"321 252 CURVE SMOOTH"
);
},
{
closed = 1;
nodes = (
"74 -36 LINE",
"200 -109 LINE",
"538 476 LINE",
"412 549 LINE"
);
},
{
closed = 1;
nodes = (
"182 -200 OFFCURVE",
"295 -170 OFFCURVE",
"347 -80 CURVE SMOOTH",
"399 9 OFFCURVE",
"369 121 OFFCURVE",
"276 174 CURVE SMOOTH",
"189 225 OFFCURVE",
"77 195 OFFCURVE",
"25 106 CURVE SMOOTH",
"-27 16 OFFCURVE",
"3 -96 OFFCURVE",
"91 -147 CURVE SMOOTH"
);
}
);
width = 600;
}
);
leftKerningGroup = Standard;
rightKerningGroup = Standard;
unicode = 0047;
},
{
glyphname = H;
lastChange = "2019-09-06 18:58:39 +0000";
layers = (
{
layerId = "C6C3B4F4-9047-4AEA-9672-C83927A9B560";
paths = (
{
closed = 1;
nodes = (
"377 -132 LINE",
"377 140 LINE",
"231 140 LINE",
"231 -132 LINE"
);
},
{
closed = 1;
nodes = (
"231 932 LINE",
"231 634 LINE",
"377 634 LINE",
"377 932 LINE"
);
},
{
closed = 1;
nodes = (
"58 140 LINE",
"231 140 LINE",
"231 634 LINE",
"58 634 LINE"
);
},
{
closed = 1;
nodes = (
"377 634 LINE",
"377 140 LINE",
"551 140 LINE",
"551 634 LINE"
);
}
);
width = 600;
},
{
layerId = "2731C349-77E1-43A4-A9DD-A1DF19151D5D";
paths = (
{
closed = 1;
nodes = (
"101 -97 LINE",
"237 139 LINE",
"111 212 LINE",
"-25 -24 LINE"
);
},
{
closed = 1;
nodes = (
"507 897 LINE",
"358 639 LINE",
"484 566 LINE",
"633 824 LINE"
);
},
{
closed = 1;
nodes = (
"-39 298 LINE",
"111 212 LINE",
"358 639 LINE",
"208 726 LINE"
);
},
{
closed = 1;
nodes = (
"484 566 LINE",
"237 139 LINE",
"388 52 LINE",
"635 479 LINE"
);
}
);
width = 600;
}
);
leftKerningGroup = Standard;
rightKerningGroup = Standard;
unicode = 0048;
},
{
glyphname = I;
lastChange = "2019-09-06 18:58:39 +0000";
layers = (
{
layerId = "C6C3B4F4-9047-4AEA-9672-C83927A9B560";
paths = (
{
closed = 1;
nodes = (
"228 145 LINE",
"374 145 LINE",
"374 638 LINE",
"228 638 LINE"
);
}
);
width = 600;
},
{
associatedMasterId = "C6C3B4F4-9047-4AEA-9672-C83927A9B560";
layerId = "30C6D4CF-C9CA-4C29-A277-74856531161B";
name = "Color 6";
paths = (
{
closed = 1;
nodes = (
"172 93 LINE SMOOTH",
"172 72 OFFCURVE",
"189 60 OFFCURVE",
"216 60 CURVE SMOOTH",
"386 60 LINE SMOOTH",
"413 60 OFFCURVE",
"430 72 OFFCURVE",
"430 93 CURVE SMOOTH",
"430 690 LINE SMOOTH",
"430 711 OFFCURVE",
"413 723 OFFCURVE",
"386 723 CURVE SMOOTH",
"216 723 LINE SMOOTH",
"189 723 OFFCURVE",
"172 711 OFFCURVE",
"172 690 CURVE SMOOTH"
);
}
);
width = 600;
},
{
layerId = "2731C349-77E1-43A4-A9DD-A1DF19151D5D";
paths = (
{
closed = 1;
nodes = (
"115 215 LINE",
"241 142 LINE",
"487 568 LINE",
"361 641 LINE"
);
}
);
width = 600;
},
{
associatedMasterId = "C6C3B4F4-9047-4AEA-9672-C83927A9B560";
layerId = "C778AD37-2EBF-4847-8D1A-812FA00F43DE";
name = "Color 2";
paths = (
{
closed = 1;
nodes = (
"228 145 LINE",
"374 145 LINE",
"374 638 LINE",
"228 638 LINE"
);
}
);
width = 600;
},
{
associatedMasterId = "2731C349-77E1-43A4-A9DD-A1DF19151D5D";
layerId = "7DD213E6-271D-4453-8DDB-8D0D67B31DE0";
name = "Color 6";
paths = (
{
closed = 1;
nodes = (
"115 215 LINE",
"241 142 LINE",
"487 568 LINE",
"361 641 LINE"
);
},
{
closed = 1;
nodes = (
"40 197 LINE SMOOTH",
"30 179 OFFCURVE",
"38 160 OFFCURVE",
"62 147 CURVE SMOOTH",
"209 62 LINE SMOOTH",
"232 48 OFFCURVE",
"253 50 OFFCURVE",
"263 68 CURVE SMOOTH",
"562 586 LINE SMOOTH",
"572 604 OFFCURVE",
"564 623 OFFCURVE",
"540 636 CURVE SMOOTH",
"393 721 LINE SMOOTH",
"370 735 OFFCURVE",
"349 733 OFFCURVE",
"339 715 CURVE SMOOTH"
);
}
);
width = 600;
},
{
associatedMasterId = "2731C349-77E1-43A4-A9DD-A1DF19151D5D";
layerId = "53F6DE1E-9F8D-4C48-9F13-867E18BE653E";
name = "Color 2";
paths = (
{
closed = 1;
nodes = (
"115 215 LINE",
"241 142 LINE",
"487 568 LINE",
"361 641 LINE"
);
}
);
width = 600;
}
);
leftKerningGroup = Standard;
rightKerningGroup = Standard;
unicode = 0049;
},
{
glyphname = J;
lastChange = "2019-09-06 18:58:39 +0000";
layers = (
{
layerId = "C6C3B4F4-9047-4AEA-9672-C83927A9B560";
paths = (
{
closed = 1;
nodes = (
"404 629 OFFCURVE",
"487 711 OFFCURVE",
"487 815 CURVE SMOOTH",
"487 918 OFFCURVE",
"405 1000 OFFCURVE",
"298 1000 CURVE SMOOTH",
"197 1000 OFFCURVE",
"115 918 OFFCURVE",
"115 815 CURVE SMOOTH",
"115 711 OFFCURVE",
"197 629 OFFCURVE",
"298 629 CURVE SMOOTH"
);
},
{
closed = 1;
nodes = (
"404 -204 OFFCURVE",
"487 -122 OFFCURVE",
"487 -18 CURVE SMOOTH",
"487 85 OFFCURVE",
"405 167 OFFCURVE",
"298 167 CURVE SMOOTH",
"197 167 OFFCURVE",
"115 85 OFFCURVE",
"115 -18 CURVE SMOOTH",
"115 -122 OFFCURVE",
"197 -204 OFFCURVE",
"298 -204 CURVE SMOOTH"
);
},
{
closed = 1;
nodes = (
"228 -180 LINE",
"374 -180 LINE",
"374 970 LINE",
"228 970 LINE"
);
}
);
width = 600;
},
{
layerId = "2731C349-77E1-43A4-A9DD-A1DF19151D5D";
paths = (
{
closed = 1;
nodes = (
"506 547 OFFCURVE",
"619 576 OFFCURVE",
"671 666 CURVE SMOOTH",
"722 755 OFFCURVE",
"692 867 OFFCURVE",
"599 921 CURVE SMOOTH",
"512 971 OFFCURVE",
"400 941 OFFCURVE",
"348 852 CURVE SMOOTH",
"296 762 OFFCURVE",
"326 650 OFFCURVE",
"414 600 CURVE SMOOTH"
);
},
{
closed = 1;
nodes = (
"89 -175 OFFCURVE",
"202 -145 OFFCURVE",
"254 -55 CURVE SMOOTH",
"306 34 OFFCURVE",
"276 146 OFFCURVE",
"183 199 CURVE SMOOTH",
"95 250 OFFCURVE",
"-17 220 OFFCURVE",
"-68 131 CURVE SMOOTH",
"-120 41 OFFCURVE",
"-90 -71 OFFCURVE",
"-3 -122 CURVE SMOOTH"
);
},
{
closed = 1;
nodes = (
"-51 -66 LINE",
"75 -139 LINE",
"650 857 LINE",
"524 930 LINE"
);
}
);
width = 600;
}
);
leftKerningGroup = Standard;
rightKerningGroup = Standard;
unicode = 004A;
},
{
glyphname = K;
lastChange = "2019-09-06 18:58:39 +0000";
layers = (
{
layerId = "C6C3B4F4-9047-4AEA-9672-C83927A9B560";
paths = (
{
closed = 1;
nodes = (
"296 304 LINE",
"441 160 LINE",
"526 245 LINE",
"382 390 LINE",
"526 535 LINE",
"441 620 LINE",
"296 476 LINE",
"151 620 LINE",
"66 535 LINE",
"210 390 LINE",
"66 245 LINE",
"151 160 LINE"
);
},
{
closed = 1;
nodes = (
"374 -131 LINE",
"374 931 LINE",
"228 931 LINE",
"228 -131 LINE"
);
}
);
width = 600;
},
{
associatedMasterId = "C6C3B4F4-9047-4AEA-9672-C83927A9B560";
layerId = "7731F55F-D94F-44C1-9104-268545233F93";
name = "Color 6";
paths = (
{
closed = 1;
nodes = (
"740 392 LINE",
"297 835 LINE",
"-147 392 LINE",
"296 -52 LINE"
);
}
);
width = 600;
},
{
associatedMasterId = "C6C3B4F4-9047-4AEA-9672-C83927A9B560";
layerId = "1EC198AD-2D99-4D88-B934-121FF860CBBD";
name = "Color 1";
paths = (
{
closed = 1;
nodes = (
"630 392 LINE",
"297 725 LINE",
"-37 392 LINE",
"296 58 LINE"
);
},
{
closed = 1;
nodes = (
"296 329 LINE",
"399 226 LINE",
"460 287 LINE",
"357 390 LINE",
"460 493 LINE",
"399 554 LINE",
"296 451 LINE",
"193 554 LINE",
"132 493 LINE",
"235 390 LINE",
"132 287 LINE",
"193 226 LINE"
);
},
{
closed = 1;
nodes = (
"374 -131 LINE",
"374 931 LINE",
"228 931 LINE",
"228 -131 LINE"
);
}
);
width = 600;
},
{
associatedMasterId = "C6C3B4F4-9047-4AEA-9672-C83927A9B560";
layerId = "4924154B-35E9-470C-8D7C-C0745A573778";
name = "Color 6";
paths = (
{
closed = 1;
nodes = (
"374 -131 LINE",
"374 931 LINE",
"228 931 LINE",
"228 -131 LINE"
);
}
);
width = 600;
},
{
layerId = "2731C349-77E1-43A4-A9DD-A1DF19151D5D";
paths = (
{
closed = 1;
nodes = (
"-120 69 LINE",
"799 600 LINE",
"726 727 LINE",
"-193 196 LINE"
);
},
{
closed = 1;
nodes = (
"228 352 LINE",
"180 173 LINE",
"286 145 LINE",
"334 323 LINE",
"513 276 LINE",
"542 382 LINE",
"363 430 LINE",
"411 608 LINE",
"304 637 LINE",
"256 458 LINE",
"78 505 LINE",
"49 400 LINE"
);
}
);
width = 600;
},
{
associatedMasterId = "2731C349-77E1-43A4-A9DD-A1DF19151D5D";
layerId = "DC9FBB2E-6B02-4080-8314-5D68C1DE9C45";
name = "Color 6";
paths = (
{
closed = 1;
nodes = (
"681 170 LINE",
"519 776 LINE",
"-88 614 LINE",
"74 7 LINE"
);
}
);
width = 600;
},
{
associatedMasterId = "2731C349-77E1-43A4-A9DD-A1DF19151D5D";
layerId = "1662E521-B254-42C2-BC4C-9745E4C02D9A";
name = "Color 1";
paths = (
{
closed = 1;
nodes = (
"581 226 LINE",
"459 681 LINE",
"4 560 LINE",
"125 104 LINE"
);
},
{
closed = 1;
nodes = (
"261 339 LINE",
"298 198 LINE",
"381 220 LINE",
"344 361 LINE",
"485 399 LINE",
"462 482 LINE",
"321 444 LINE",
"284 585 LINE",
"201 563 LINE",
"238 422 LINE",
"98 384 LINE",
"120 301 LINE"
);
},
{
closed = 1;
nodes = (
"98 -99 LINE",
"629 821 LINE",
"503 894 LINE",
"-28 -26 LINE"
);
}
);
width = 600;
},
{
associatedMasterId = "2731C349-77E1-43A4-A9DD-A1DF19151D5D";
layerId = "C3C8BE22-C5A8-4EDD-AEE5-8FF33EFA9417";
name = "Color 6";
paths = (
{
closed = 1;
nodes = (
"99 -96 LINE",
"630 823 LINE",
"503 896 LINE",
"-28 -23 LINE"
);
}
);
width = 600;
}
);
leftKerningGroup = Standard;
rightKerningGroup = Standard;
unicode = 004B;
},
{
glyphname = L;
lastChange = "2019-09-06 18:58:39 +0000";
layers = (
{
layerId = "C6C3B4F4-9047-4AEA-9672-C83927A9B560";
paths = (
{
closed = 1;
nodes = (
"228 -131 LINE",
"374 -131 LINE",
"374 931 LINE",
"228 931 LINE"
);
}
);
width = 600;
},
{
layerId = "2731C349-77E1-43A4-A9DD-A1DF19151D5D";
paths = (
{
closed = 1;
nodes = (
"-28 -23 LINE",
"99 -96 LINE",
"630 823 LINE",
"503 896 LINE"
);
}
);
width = 600;
}
);
leftKerningGroup = Standard;
rightKerningGroup = Standard;
unicode = 004C;
},
{
glyphname = M;
lastChange = "2019-09-06 18:58:39 +0000";
layers = (
{
layerId = "C6C3B4F4-9047-4AEA-9672-C83927A9B560";
paths = (
{
closed = 1;
nodes = (
"535 187 LINE",
"535 596 LINE",
"415 596 LINE",
"415 187 LINE"
);
},
{
closed = 1;
nodes = (
"160 130 OFFCURVE",
"187 155 OFFCURVE",
"187 187 CURVE",
"187 187 LINE SMOOTH",
"67 187 LINE",
"67 187 LINE",
"67 155 OFFCURVE",
"94 130 OFFCURVE",
"125 130 CURVE SMOOTH"
);
},
{
closed = 1;
nodes = (
"187 187 LINE",
"187 596 LINE",
"67 596 LINE",
"67 187 LINE"
);
},
{
closed = 1;
nodes = (
"507 130 OFFCURVE",
"535 155 OFFCURVE",
"535 187 CURVE",
"535 187 LINE SMOOTH",
"415 187 LINE",
"415 187 LINE",
"415 155 OFFCURVE",
"441 130 OFFCURVE",
"472 130 CURVE SMOOTH"
);
},
{
closed = 1;
nodes = (
"361 304 LINE",
"361 481 LINE",
"241 481 LINE",
"241 304 LINE"
);
},
{
closed = 1;
nodes = (
"67 596 LINE",
"187 596 LINE SMOOTH",
"187 596 LINE",
"187 628 OFFCURVE",
"160 653 OFFCURVE",
"125 653 CURVE SMOOTH",
"94 653 OFFCURVE",
"67 628 OFFCURVE",
"67 596 CURVE"
);
},
{
closed = 1;
nodes = (
"415 596 LINE",
"535 596 LINE SMOOTH",
"535 596 LINE",
"535 628 OFFCURVE",
"507 653 OFFCURVE",
"472 653 CURVE SMOOTH",
"441 653 OFFCURVE",
"415 628 OFFCURVE",
"415 596 CURVE"
);
}
);
width = 600;
},
{
associatedMasterId = "C6C3B4F4-9047-4AEA-9672-C83927A9B560";
layerId = "18B4CB6A-AC49-4AA2-82F3-23B1FE061563";
name = "Color 6";
paths = (
{
closed = 1;
nodes = (
"361 304 LINE",
"361 481 LINE",
"241 481 LINE",
"241 304 LINE"
);
},
{
closed = 1;
nodes = (
"547 167 LINE",
"547 616 LINE",
"403 616 LINE",
"403 167 LINE"
);
},
{
closed = 1;
nodes = (
"167 104 OFFCURVE",
"199 131 OFFCURVE",
"199 167 CURVE",
"199 167 LINE SMOOTH",
"55 167 LINE",
"55 167 LINE",
"55 131 OFFCURVE",
"88 104 OFFCURVE",
"125 104 CURVE SMOOTH"
);
},
{
closed = 1;
nodes = (
"199 167 LINE",
"199 616 LINE",
"55 616 LINE",
"55 167 LINE"
);
},
{
closed = 1;
nodes = (
"513 104 OFFCURVE",
"547 131 OFFCURVE",
"547 167 CURVE",
"547 167 LINE SMOOTH",
"403 167 LINE",
"403 167 LINE",
"403 131 OFFCURVE",
"434 104 OFFCURVE",
"471 104 CURVE SMOOTH"
);
},
{
closed = 1;
nodes = (
"55 616 LINE",
"199 616 LINE SMOOTH",
"199 616 LINE",
"199 652 OFFCURVE",
"167 679 OFFCURVE",
"125 679 CURVE SMOOTH",
"88 679 OFFCURVE",
"55 652 OFFCURVE",
"55 616 CURVE"
);
},
{
closed = 1;
nodes = (
"403 616 LINE",
"547 616 LINE SMOOTH",
"547 616 LINE",
"547 652 OFFCURVE",
"513 679 OFFCURVE",
"471 679 CURVE SMOOTH",
"434 679 OFFCURVE",
"403 652 OFFCURVE",
"403 616 CURVE"
);
}
);
width = 600;
},
{
associatedMasterId = "C6C3B4F4-9047-4AEA-9672-C83927A9B560";
layerId = "BB295DA3-7D2B-4531-B285-3DCDE916E644";
name = "Color 1";
paths = (
{
closed = 1;
nodes = (
"535 187 LINE",
"535 596 LINE",
"415 596 LINE",
"415 187 LINE"
);
},
{
closed = 1;
nodes = (
"160 130 OFFCURVE",
"187 155 OFFCURVE",
"187 187 CURVE",
"187 187 LINE SMOOTH",
"67 187 LINE",
"67 187 LINE",
"67 155 OFFCURVE",
"94 130 OFFCURVE",
"125 130 CURVE SMOOTH"
);
},
{
closed = 1;
nodes = (
"187 187 LINE",
"187 596 LINE",
"67 596 LINE",
"67 187 LINE"
);
},
{
closed = 1;
nodes = (
"507 130 OFFCURVE",
"535 155 OFFCURVE",
"535 187 CURVE",
"535 187 LINE SMOOTH",
"415 187 LINE",
"415 187 LINE",
"415 155 OFFCURVE",
"441 130 OFFCURVE",
"472 130 CURVE SMOOTH"
);
},
{
closed = 1;
nodes = (
"67 596 LINE",
"187 596 LINE SMOOTH",
"187 596 LINE",
"187 628 OFFCURVE",
"160 653 OFFCURVE",
"125 653 CURVE SMOOTH",
"94 653 OFFCURVE",
"67 628 OFFCURVE",
"67 596 CURVE"
);
},
{
closed = 1;
nodes = (
"415 596 LINE",
"535 596 LINE SMOOTH",
"535 596 LINE",
"535 628 OFFCURVE",
"507 653 OFFCURVE",
"472 653 CURVE SMOOTH",
"441 653 OFFCURVE",
"415 628 OFFCURVE",
"415 596 CURVE"
);
}
);
width = 600;
},
{
layerId = "2731C349-77E1-43A4-A9DD-A1DF19151D5D";
paths = (
{
closed = 1;
nodes = (
"401 97 LINE",
"606 452 LINE",
"502 512 LINE",
"297 157 LINE"
);
},
{
closed = 1;
nodes = (
"48 236 OFFCURVE",
"84 244 OFFCURVE",
"100 271 CURVE",
"100 271 LINE SMOOTH",
"-4 331 LINE",
"-4 331 LINE",
"-20 304 OFFCURVE",
"-9 269 OFFCURVE",
"18 253 CURVE SMOOTH"
);
},
{
closed = 1;
nodes = (
"100 271 LINE",
"305 626 LINE",
"201 686 LINE",
"-4 331 LINE"
);
},
{
closed = 1;
nodes = (
"349 62 OFFCURVE",
"385 70 OFFCURVE",
"401 97 CURVE",
"401 97 LINE SMOOTH",
"297 157 LINE",
"297 157 LINE",
"281 130 OFFCURVE",
"291 95 OFFCURVE",
"318 80 CURVE SMOOTH"
);
},
{
closed = 1;
nodes = (
"309 286 LINE",
"398 439 LINE",
"294 499 LINE",
"205 346 LINE"
);
},
{
closed = 1;
nodes = (
"201 686 LINE",
"305 626 LINE SMOOTH",
"305 626 LINE",
"321 653 OFFCURVE",
"310 688 OFFCURVE",
"279 706 CURVE SMOOTH",
"252 721 OFFCURVE",
"217 713 OFFCURVE",
"201 686 CURVE"
);
},
{
closed = 1;
nodes = (
"502 512 LINE",
"606 452 LINE SMOOTH",
"606 452 LINE",
"622 479 OFFCURVE",
"610 515 OFFCURVE",
"580 532 CURVE SMOOTH",
"553 548 OFFCURVE",
"518 539 OFFCURVE",
"502 512 CURVE"
);
}
);
width = 600;
},
{
associatedMasterId = "2731C349-77E1-43A4-A9DD-A1DF19151D5D";
layerId = "D05CB2FB-0801-4FA1-89EB-A50B05C058D5";
name = "Color 6";
paths = (
{
closed = 1;
nodes = (
"407 84 LINE",
"638 483 LINE",
"511 544 LINE",
"280 146 LINE"
);
},
{
closed = 1;
nodes = (
"37 203 OFFCURVE",
"79 213 OFFCURVE",
"98 244 CURVE",
"98 244 LINE SMOOTH",
"-29 305 LINE",
"-29 305 LINE",
"-47 276 OFFCURVE",
"-33 237 OFFCURVE",
"0 221 CURVE SMOOTH"
);
},
{
closed = 1;
nodes = (
"98 241 LINE",
"330 640 LINE",
"203 701 LINE",
"-29 303 LINE"
);
},
{
closed = 1;
nodes = (
"344 43 OFFCURVE",
"389 53 OFFCURVE",
"407 84 CURVE",
"407 84 LINE SMOOTH",
"280 146 LINE",
"280 146 LINE",
"262 114 OFFCURVE",
"275 77 OFFCURVE",
"308 61 CURVE SMOOTH"
);
},
{
closed = 1;
nodes = (
"313 286 LINE",
"396 443 LINE",
"290 499 LINE",
"207 343 LINE"
);
},
{
closed = 1;
nodes = (
"203 701 LINE",
"330 640 LINE SMOOTH",
"330 640 LINE",
"348 670 OFFCURVE",
"334 708 OFFCURVE",
"296 727 CURVE SMOOTH",
"264 743 OFFCURVE",
"221 733 OFFCURVE",
"203 701 CURVE"
);
},
{
closed = 1;
nodes = (
"511 544 LINE",
"638 483 LINE SMOOTH",
"638 483 LINE",
"656 513 OFFCURVE",
"641 552 OFFCURVE",
"604 571 CURVE SMOOTH",
"571 588 OFFCURVE",
"530 575 OFFCURVE",
"511 544 CURVE"
);
}
);
width = 600;
},
{
associatedMasterId = "2731C349-77E1-43A4-A9DD-A1DF19151D5D";
layerId = "0B83695B-887B-4DF3-96BB-F09DD9E0635E";
name = "Color 1";
paths = (
{
closed = 1;
nodes = (
"401 97 LINE",
"606 452 LINE",
"502 512 LINE",
"297 157 LINE"
);
},
{
closed = 1;
nodes = (
"48 236 OFFCURVE",
"84 244 OFFCURVE",
"100 271 CURVE",
"100 271 LINE SMOOTH",
"-4 331 LINE",
"-4 331 LINE",
"-20 304 OFFCURVE",
"-9 269 OFFCURVE",
"18 253 CURVE SMOOTH"
);
},
{
closed = 1;
nodes = (
"100 271 LINE",
"305 626 LINE",
"201 686 LINE",
"-4 331 LINE"
);
},
{
closed = 1;
nodes = (
"349 62 OFFCURVE",
"385 70 OFFCURVE",
"401 97 CURVE",
"401 97 LINE SMOOTH",
"297 157 LINE",
"297 157 LINE",
"281 130 OFFCURVE",
"291 95 OFFCURVE",
"318 80 CURVE SMOOTH"
);
},
{
closed = 1;
nodes = (
"201 686 LINE",
"305 626 LINE SMOOTH",
"305 626 LINE",
"321 653 OFFCURVE",
"310 688 OFFCURVE",
"279 706 CURVE SMOOTH",
"252 721 OFFCURVE",
"217 713 OFFCURVE",
"201 686 CURVE"
);
},
{
closed = 1;
nodes = (
"502 512 LINE",
"606 452 LINE SMOOTH",
"606 452 LINE",
"622 479 OFFCURVE",
"610 515 OFFCURVE",
"580 532 CURVE SMOOTH",
"553 548 OFFCURVE",
"518 539 OFFCURVE",
"502 512 CURVE"
);
}
);
width = 600;
}
);
leftKerningGroup = Standard;
rightKerningGroup = Standard;
unicode = 004D;
},
{
glyphname = N;
lastChange = "2019-09-06 18:58:39 +0000";
layers = (
{
layerId = "C6C3B4F4-9047-4AEA-9672-C83927A9B560";
paths = (
{
closed = 1;
nodes = (
"347 78 OFFCURVE",
"412 131 OFFCURVE",
"420 206 CURVE",
"120 206 LINE",
"128 131 OFFCURVE",
"192 78 OFFCURVE",
"267 78 CURVE SMOOTH"
);
},
{
closed = 1;
nodes = (
"120 206 LINE",
"211 206 LINE",
"211 585 LINE",
"120 585 LINE"
);
},
{
closed = 1;
nodes = (
"328 206 LINE",
"420 206 LINE",
"420 585 LINE",
"328 585 LINE"
);
},
{
closed = 1;
nodes = (
"192 713 OFFCURVE",
"128 660 OFFCURVE",
"120 585 CURVE",
"420 585 LINE",
"412 660 OFFCURVE",
"347 713 OFFCURVE",
"267 713 CURVE SMOOTH"
);
}
);
width = 600;
},
{
layerId = "2731C349-77E1-43A4-A9DD-A1DF19151D5D";
paths = (
{
closed = 1;
nodes = (
"178 82 OFFCURVE",
"261 95 OFFCURVE",
"305 156 CURVE",
"45 306 LINE",
"15 237 OFFCURVE",
"44 160 OFFCURVE",
"109 122 CURVE SMOOTH"
);
},
{
closed = 1;
nodes = (
"45 306 LINE",
"124 261 LINE",
"314 589 LINE",
"235 635 LINE"
);
},
{
closed = 1;
nodes = (
"225 202 LINE",
"305 156 LINE",
"495 485 LINE",
"415 531 LINE"
);
},
{
closed = 1;
nodes = (
"361 709 OFFCURVE",
"279 696 OFFCURVE",
"235 635 CURVE",
"495 485 LINE",
"525 554 OFFCURVE",
"495 632 OFFCURVE",
"426 672 CURVE SMOOTH"
);
}
);
width = 600;
}
);
leftKerningGroup = Standard;
rightKerningGroup = Standard;
unicode = 004E;
},
{
glyphname = O;
lastChange = "2019-09-06 18:58:39 +0000";
layers = (
{
layerId = "C6C3B4F4-9047-4AEA-9672-C83927A9B560";
paths = (
{
closed = 1;
nodes = (
"437 145 OFFCURVE",
"548 255 OFFCURVE",
"548 392 CURVE SMOOTH",
"548 528 OFFCURVE",
"438 638 OFFCURVE",
"298 638 CURVE SMOOTH",
"163 638 OFFCURVE",
"54 528 OFFCURVE",
"54 392 CURVE SMOOTH",
"54 255 OFFCURVE",
"163 145 OFFCURVE",
"298 145 CURVE SMOOTH"
);
}
);
width = 600;
},
{
layerId = "2731C349-77E1-43A4-A9DD-A1DF19151D5D";
paths = (
{
closed = 1;
nodes = (
"296 110 OFFCURVE",
"447 150 OFFCURVE",
"515 268 CURVE SMOOTH",
"583 386 OFFCURVE",
"543 536 OFFCURVE",
"422 606 CURVE SMOOTH",
"305 674 OFFCURVE",
"155 633 OFFCURVE",
"87 515 CURVE SMOOTH",
"19 397 OFFCURVE",
"58 247 OFFCURVE",
"175 180 CURVE SMOOTH"
);
}
);
width = 600;
}
);
leftKerningGroup = Standard;
rightKerningGroup = Standard;
unicode = 004F;
},
{
glyphname = P;
lastChange = "2019-09-06 18:58:39 +0000";
layers = (
{
layerId = "C6C3B4F4-9047-4AEA-9672-C83927A9B560";
paths = (
{
closed = 1;
nodes = (
"496 40 OFFCURVE",
"653 197 OFFCURVE",
"653 391 CURVE SMOOTH",
"653 585 OFFCURVE",
"496 742 OFFCURVE",
"302 742 CURVE SMOOTH",
"108 742 OFFCURVE",
"-49 585 OFFCURVE",
"-49 391 CURVE SMOOTH",
"-49 197 OFFCURVE",
"108 40 OFFCURVE",
"302 40 CURVE SMOOTH"
);
},
{
closed = 1;
nodes = (
"342 -197 OFFCURVE",
"374 -169 OFFCURVE",
"379 -131 CURVE",
"225 -131 LINE",
"228 -167 OFFCURVE",
"260 -197 OFFCURVE",
"299 -197 CURVE SMOOTH"
);
},
{
closed = 1;
nodes = (
"156 127 OFFCURVE",
"38 245 OFFCURVE",
"38 391 CURVE SMOOTH",
"38 537 OFFCURVE",
"156 655 OFFCURVE",
"302 655 CURVE SMOOTH",
"448 655 OFFCURVE",
"566 537 OFFCURVE",
"566 391 CURVE SMOOTH",
"566 245 OFFCURVE",
"448 127 OFFCURVE",
"302 127 CURVE SMOOTH"
);
},
{
closed = 1;
nodes = (
"374 -131 LINE",
"374 931 LINE",
"228 931 LINE",
"228 -131 LINE"
);
},
{
closed = 1;
nodes = (
"378 931 LINE",
"373 969 OFFCURVE",
"341 997 OFFCURVE",
"298 997 CURVE SMOOTH",
"260 997 OFFCURVE",
"229 969 OFFCURVE",
"224 931 CURVE"
);
}
);
width = 600;
},
{
associatedMasterId = "C6C3B4F4-9047-4AEA-9672-C83927A9B560";
layerId = "581D7126-5276-46C5-931F-E078E8C78326";
name = "Color 6";
paths = (
{
closed = 1;
nodes = (
"228 -130 LINE",
"374 -130 LINE",
"374 932 LINE",
"228 932 LINE"
);
},
{
closed = 1;
nodes = (
"260 1001 OFFCURVE",
"229 973 OFFCURVE",
"224 935 CURVE",
"378 935 LINE",
"373 973 OFFCURVE",
"341 1001 OFFCURVE",
"298 1001 CURVE SMOOTH"
);
},
{
closed = 1;
nodes = (
"342 -199 OFFCURVE",
"374 -171 OFFCURVE",
"379 -133 CURVE",
"225 -133 LINE",
"228 -169 OFFCURVE",
"260 -199 OFFCURVE",
"299 -199 CURVE SMOOTH"
);
},
{
closed = 1;
nodes = (
"479 73 OFFCURVE",
"621 215 OFFCURVE",
"621 392 CURVE SMOOTH",
"621 569 OFFCURVE",
"479 711 OFFCURVE",
"302 711 CURVE SMOOTH",
"125 711 OFFCURVE",
"-17 569 OFFCURVE",
"-17 392 CURVE SMOOTH",
"-17 215 OFFCURVE",
"125 73 OFFCURVE",
"302 73 CURVE SMOOTH"
);
}
);
width = 600;
},
{
associatedMasterId = "C6C3B4F4-9047-4AEA-9672-C83927A9B560";
layerId = "7BEC9FE5-4B1B-45F2-95B3-BB09CD6C3736";
name = "Color 3";
paths = (
{
closed = 1;
nodes = (
"448 127 OFFCURVE",
"566 245 OFFCURVE",
"566 391 CURVE SMOOTH",
"566 537 OFFCURVE",
"448 655 OFFCURVE",
"302 655 CURVE SMOOTH",
"156 655 OFFCURVE",
"38 537 OFFCURVE",
"38 391 CURVE SMOOTH",
"38 245 OFFCURVE",
"156 127 OFFCURVE",
"302 127 CURVE SMOOTH"
);
}
);
width = 600;
},
{
layerId = "2731C349-77E1-43A4-A9DD-A1DF19151D5D";
paths = (
{
closed = 1;
nodes = (
"-28 -23 LINE",
"99 -96 LINE",
"630 824 LINE",
"503 897 LINE"
);
},
{
closed = 1;
nodes = (
"566 941 OFFCURVE",
"525 932 OFFCURVE",
"501 901 CURVE",
"635 824 LINE",
"649 860 OFFCURVE",
"636 900 OFFCURVE",
"599 922 CURVE SMOOTH"
);
},
{
closed = 1;
nodes = (
"37 -140 OFFCURVE",
"78 -131 OFFCURVE",
"102 -101 CURVE",
"-32 -24 LINE",
"-47 -57 OFFCURVE",
"-34 -99 OFFCURVE",
"-1 -118 CURVE SMOOTH"
);
},
{
closed = 1;
nodes = (
"292 91 OFFCURVE",
"453 134 OFFCURVE",
"526 260 CURVE SMOOTH",
"599 387 OFFCURVE",
"556 548 OFFCURVE",
"430 621 CURVE SMOOTH",
"303 694 OFFCURVE",
"142 651 OFFCURVE",
"69 524 CURVE SMOOTH",
"-4 398 OFFCURVE",
"39 237 OFFCURVE",
"166 164 CURVE SMOOTH"
);
}
);
width = 600;
},
{
associatedMasterId = "2731C349-77E1-43A4-A9DD-A1DF19151D5D";
layerId = "8AF46DC6-DE21-4BC5-92C8-442E4A86C708";
name = "Color 6";
paths = (
{
closed = 1;
nodes = (
"-28 -23 LINE",
"99 -96 LINE",
"630 824 LINE",
"503 897 LINE"
);
},
{
closed = 1;
nodes = (
"566 941 OFFCURVE",
"525 932 OFFCURVE",
"501 901 CURVE",
"635 824 LINE",
"649 860 OFFCURVE",
"636 900 OFFCURVE",
"599 922 CURVE SMOOTH"
);
},
{
closed = 1;
nodes = (
"37 -140 OFFCURVE",
"78 -131 OFFCURVE",
"102 -101 CURVE",
"-32 -24 LINE",
"-47 -57 OFFCURVE",
"-34 -99 OFFCURVE",
"-1 -118 CURVE SMOOTH"
);
},
{
closed = 1;
nodes = (
"292 91 OFFCURVE",
"453 134 OFFCURVE",
"526 260 CURVE SMOOTH",
"599 387 OFFCURVE",
"556 548 OFFCURVE",
"430 621 CURVE SMOOTH",
"303 694 OFFCURVE",
"142 651 OFFCURVE",
"69 524 CURVE SMOOTH",
"-4 398 OFFCURVE",
"39 237 OFFCURVE",
"166 164 CURVE SMOOTH"
);
}
);
width = 600;
},
{
associatedMasterId = "2731C349-77E1-43A4-A9DD-A1DF19151D5D";
layerId = "E6722F27-C698-4CE1-9A88-486B27845B08";
name = "Color 3";
paths = (
{
closed = 1;
nodes = (
"296 89 OFFCURVE",
"458 133 OFFCURVE",
"531 259 CURVE SMOOTH",
"604 385 OFFCURVE",
"560 547 OFFCURVE",
"434 620 CURVE SMOOTH",
"308 693 OFFCURVE",
"146 649 OFFCURVE",
"73 523 CURVE SMOOTH",
"0 397 OFFCURVE",
"44 235 OFFCURVE",
"170 162 CURVE SMOOTH"
);
}
);
width = 600;
}
);
leftKerningGroup = Standard;
rightKerningGroup = Standard;
unicode = 0050;
},
{
glyphname = Q;
lastChange = "2019-09-06 18:58:39 +0000";
layers = (
{
layerId = "C6C3B4F4-9047-4AEA-9672-C83927A9B560";
paths = (
{
closed = 1;
nodes = (
"40 392 LINE",
"300 131 LINE",
"563 392 LINE",
"303 653 LINE"
);
},
{
closed = 1;
nodes = (
"228 -131 LINE",
"374 -131 LINE",
"374 920 LINE",
"228 920 LINE"
);
},
{
closed = 1;
nodes = (
"301 1000 LINE",
"218 920 LINE",
"384 920 LINE"
);
},
{
closed = 1;
nodes = (
"218 -131 LINE",
"301 -211 LINE",
"384 -131 LINE"
);
}
);
width = 600;
},
{
associatedMasterId = "C6C3B4F4-9047-4AEA-9672-C83927A9B560";
layerId = "AADB6B7A-E546-4F7B-BEA7-CEFB258D2F67";
name = "Color 6";
paths = (
{
closed = 1;
nodes = (
"-47 392 LINE",
"300 45 LINE",
"650 392 LINE",
"303 739 LINE"
);
},
{
closed = 1;
nodes = (
"228 -131 LINE",
"374 -131 LINE",
"374 920 LINE",
"228 920 LINE"
);
},
{
closed = 1;
nodes = (
"301 1000 LINE",
"218 920 LINE",
"384 920 LINE"
);
},
{
closed = 1;
nodes = (
"218 -131 LINE",
"301 -211 LINE",
"384 -131 LINE"
);
}
);
width = 600;
},
{
associatedMasterId = "C6C3B4F4-9047-4AEA-9672-C83927A9B560";
layerId = "2633B90B-A859-44D9-97F8-93C5E480A53A";
name = "Color 5";
paths = (
{
closed = 1;
nodes = (
"40 392 LINE",
"300 131 LINE",
"563 392 LINE",
"303 653 LINE"
);
}
);
width = 600;
},
{
layerId = "2731C349-77E1-43A4-A9DD-A1DF19151D5D";
paths = (
{
closed = 1;
nodes = (
"74 523 LINE",
"168 167 LINE",
"527 262 LINE",
"432 618 LINE"
);
},
{
closed = 1;
nodes = (
"-25 -24 LINE",
"102 -97 LINE",
"627 813 LINE",
"501 886 LINE"
);
},
{
closed = 1;
nodes = (
"604 919 LINE",
"492 891 LINE",
"636 808 LINE"
);
},
{
closed = 1;
nodes = (
"-34 -19 LINE",
"-2 -130 LINE",
"110 -102 LINE"
);
}
);
width = 600;
},
{
associatedMasterId = "2731C349-77E1-43A4-A9DD-A1DF19151D5D";
layerId = "699C46FF-FF0C-4121-9D98-46F1D96122AB";
name = "Color 6";
paths = (
{
closed = 1;
nodes = (
"26 550 LINE",
"140 120 LINE",
"575 235 LINE",
"460 665 LINE"
);
},
{
closed = 1;
nodes = (
"-25 -24 LINE",
"102 -97 LINE",
"627 813 LINE",
"501 886 LINE"
);
},
{
closed = 1;
nodes = (
"604 919 LINE",
"492 891 LINE",
"636 808 LINE"
);
},
{
closed = 1;
nodes = (
"-34 -19 LINE",
"-2 -130 LINE",
"110 -102 LINE"
);
}
);
width = 600;
},
{
associatedMasterId = "2731C349-77E1-43A4-A9DD-A1DF19151D5D";
layerId = "7C978D51-148C-48B8-A09C-34C4462327E8";
name = "Color 5";
paths = (
{
closed = 1;
nodes = (
"75 523 LINE",
"170 167 LINE",
"528 261 LINE",
"433 617 LINE"
);
}
);
width = 600;
}
);
leftKerningGroup = Standard;
rightKerningGroup = Standard;
unicode = 0051;
},
{
glyphname = R;
lastChange = "2019-09-06 18:58:39 +0000";
layers = (
{
layerId = "C6C3B4F4-9047-4AEA-9672-C83927A9B560";
paths = (
{
closed = 1;
nodes = (
"85 176 LINE",
"534 176 LINE",
"534 626 LINE",
"85 626 LINE"
);
},
{
closed = 1;
nodes = (
"174 266 LINE",
"174 536 LINE",
"444 536 LINE",
"444 266 LINE"
);
}
);
width = 600;
},
{
layerId = "2731C349-77E1-43A4-A9DD-A1DF19151D5D";
paths = (
{
closed = 1;
nodes = (
"3 318 LINE",
"391 94 LINE",
"616 484 LINE",
"228 708 LINE"
);
},
{
closed = 1;
nodes = (
"125 352 LINE",
"260 586 LINE",
"493 451 LINE",
"358 217 LINE"
);
}
);
width = 600;
}
);
leftKerningGroup = Standard;
rightKerningGroup = Standard;
unicode = 0052;
},
{
glyphname = S;
lastChange = "2019-09-06 18:58:39 +0000";
layers = (
{
layerId = "C6C3B4F4-9047-4AEA-9672-C83927A9B560";
paths = (
{
closed = 1;
nodes = (
"228 145 LINE",
"374 145 LINE",
"374 638 LINE",
"228 638 LINE"
);
},
{
closed = 1;
nodes = (
"412 49 OFFCURVE",
"508 127 OFFCURVE",
"519 235 CURVE",
"81 235 LINE",
"92 127 OFFCURVE",
"186 49 OFFCURVE",
"297 49 CURVE SMOOTH"
);
},
{
closed = 1;
nodes = (
"186 742 OFFCURVE",
"92 664 OFFCURVE",
"81 556 CURVE",
"519 556 LINE",
"508 664 OFFCURVE",
"412 742 OFFCURVE",
"297 742 CURVE SMOOTH"
);
}
);
width = 600;
},
{
layerId = "2731C349-77E1-43A4-A9DD-A1DF19151D5D";
paths = (
{
closed = 1;
nodes = (
"112 215 LINE",
"239 142 LINE",
"485 569 LINE",
"359 642 LINE"
);
},
{
closed = 1;
nodes = (
"224 39 OFFCURVE",
"346 59 OFFCURVE",
"409 147 CURVE",
"30 366 LINE",
"-14 267 OFFCURVE",
"28 152 OFFCURVE",
"124 97 CURVE SMOOTH"
);
},
{
closed = 1;
nodes = (
"375 753 OFFCURVE",
"254 732 OFFCURVE",
"191 644 CURVE",
"570 425 LINE",
"614 524 OFFCURVE",
"570 640 OFFCURVE",
"471 697 CURVE SMOOTH"
);
}
);
width = 600;
}
);
leftKerningGroup = Standard;
rightKerningGroup = Standard;
unicode = 0053;
},
{
glyphname = T;
lastChange = "2019-09-06 18:58:39 +0000";
layers = (
{
layerId = "C6C3B4F4-9047-4AEA-9672-C83927A9B560";
paths = (
{
closed = 1;
nodes = (
"132 345 LINE",
"458 345 LINE",
"458 438 LINE",
"132 438 LINE"
);
},
{
closed = 1;
nodes = (
"228 -131 LINE",
"374 -131 LINE",
"374 931 LINE",
"228 931 LINE"
);
}
);
width = 600;
},
{
layerId = "2731C349-77E1-43A4-A9DD-A1DF19151D5D";
paths = (
{
closed = 1;
nodes = (
"126 434 LINE",
"409 271 LINE",
"455 351 LINE",
"173 514 LINE"
);
},
{
closed = 1;
nodes = (
"-29 -26 LINE",
"98 -99 LINE",
"629 820 LINE",
"502 893 LINE"
);
}
);
width = 600;
}
);
leftKerningGroup = Standard;
rightKerningGroup = Standard;
unicode = 0054;
},
{
glyphname = U;
lastChange = "2019-09-06 18:58:39 +0000";
layers = (
{
layerId = "C6C3B4F4-9047-4AEA-9672-C83927A9B560";
paths = (
{
closed = 1;
nodes = (
"373 560 OFFCURVE",
"438 509 OFFCURVE",
"458 438 CURVE",
"538 438 LINE",
"516 552 OFFCURVE",
"416 638 OFFCURVE",
"292 638 CURVE SMOOTH",
"173 638 OFFCURVE",
"74 552 OFFCURVE",
"52 438 CURVE",
"132 438 LINE",
"152 509 OFFCURVE",
"216 560 OFFCURVE",
"292 560 CURVE SMOOTH"
);
},
{
closed = 1;
nodes = (
"216 223 OFFCURVE",
"152 274 OFFCURVE",
"132 345 CURVE",
"52 345 LINE",
"74 231 OFFCURVE",
"173 145 OFFCURVE",
"292 145 CURVE SMOOTH",
"415 145 OFFCURVE",
"516 231 OFFCURVE",
"538 345 CURVE",
"458 345 LINE",
"437 274 OFFCURVE",
"372 223 OFFCURVE",
"292 223 CURVE SMOOTH"
);
}
);
width = 600;
},
{
layerId = "2731C349-77E1-43A4-A9DD-A1DF19151D5D";
paths = (
{
closed = 1;
nodes = (
"447 498 OFFCURVE",
"478 422 OFFCURVE",
"459 350 CURVE",
"529 310 LINE",
"567 420 OFFCURVE",
"523 544 OFFCURVE",
"416 606 CURVE SMOOTH",
"313 666 OFFCURVE",
"184 641 OFFCURVE",
"108 553 CURVE",
"177 513 LINE",
"230 565 OFFCURVE",
"311 577 OFFCURVE",
"377 539 CURVE SMOOTH"
);
},
{
closed = 1;
nodes = (
"142 285 OFFCURVE",
"112 361 OFFCURVE",
"131 433 CURVE",
"61 473 LINE",
"23 363 OFFCURVE",
"66 239 OFFCURVE",
"169 180 CURVE SMOOTH",
"276 118 OFFCURVE",
"406 142 OFFCURVE",
"482 230 CURVE",
"413 270 LINE",
"359 219 OFFCURVE",
"277 207 OFFCURVE",
"208 247 CURVE SMOOTH"
);
}
);
width = 600;
}
);
leftKerningGroup = Standard;
rightKerningGroup = Standard;
unicode = 0055;
},
{
glyphname = V;
lastChange = "2019-09-06 18:58:39 +0000";
layers = (
{
layerId = "C6C3B4F4-9047-4AEA-9672-C83927A9B560";
paths = (
{
closed = 1;
nodes = (
"301 684 LINE",
"43 437 LINE",
"559 437 LINE"
);
},
{
closed = 1;
nodes = (
"301 92 LINE",
"559 338 LINE",
"43 338 LINE"
);
}
);
width = 600;
},
{
layerId = "2731C349-77E1-43A4-A9DD-A1DF19151D5D";
paths = (
{
closed = 1;
nodes = (
"449 644 LINE",
"102 559 LINE",
"549 301 LINE"
);
},
{
closed = 1;
nodes = (
"153 132 LINE",
"499 216 LINE",
"53 474 LINE"
);
}
);
width = 600;
}
);
leftKerningGroup = Standard;
rightKerningGroup = Standard;
unicode = 0056;
},
{
glyphname = W;
lastChange = "2019-09-06 18:58:39 +0000";
layers = (
{
layerId = "C6C3B4F4-9047-4AEA-9672-C83927A9B560";
paths = (
{
closed = 1;
nodes = (
"292 62 LINE",
"630 400 LINE",
"292 737 LINE",
"-46 399 LINE"
);
},
{
closed = 1;
nodes = (
"292 645 LINE",
"538 400 LINE",
"292 154 LINE",
"46 400 LINE"
);
},
{
closed = 1;
nodes = (
"256 107 LINE",
"335 107 LINE",
"335 686 LINE",
"256 686 LINE"
);
}
);
width = 600;
},
{
associatedMasterId = "C6C3B4F4-9047-4AEA-9672-C83927A9B560";
layerId = "25D5B710-212E-4D33-B0E6-2E4AA81BC488";
name = "Color 6";
paths = (
{
closed = 1;
nodes = (
"556 143 LINE",
"556 640 LINE",
"397 640 LINE",
"397 143 LINE"
);
},
{
closed = 1;
nodes = (
"171 74 OFFCURVE",
"207 105 OFFCURVE",
"207 143 CURVE",
"207 143 LINE SMOOTH",
"48 143 LINE",
"48 143 LINE",
"48 105 OFFCURVE",
"84 74 OFFCURVE",
"125 74 CURVE SMOOTH"
);
},
{
closed = 1;
nodes = (
"207 143 LINE",
"207 640 LINE",
"48 640 LINE",
"48 143 LINE"
);
},
{
closed = 1;
nodes = (
"519 74 OFFCURVE",
"556 105 OFFCURVE",
"556 143 CURVE",
"556 143 LINE SMOOTH",
"397 143 LINE",
"397 143 LINE",
"397 105 OFFCURVE",
"432 74 OFFCURVE",
"473 74 CURVE SMOOTH"
);
},
{
closed = 1;
nodes = (
"363 304 LINE",
"363 481 LINE",
"241 481 LINE",
"241 304 LINE"
);
},
{
closed = 1;
nodes = (
"48 640 LINE",
"207 640 LINE SMOOTH",
"207 640 LINE",
"207 678 OFFCURVE",
"171 709 OFFCURVE",
"125 709 CURVE SMOOTH",
"84 709 OFFCURVE",
"48 678 OFFCURVE",
"48 640 CURVE"
);
},
{
closed = 1;
nodes = (
"397 640 LINE",
"556 640 LINE SMOOTH",
"556 640 LINE",
"556 678 OFFCURVE",
"519 709 OFFCURVE",
"473 709 CURVE SMOOTH",
"432 709 OFFCURVE",
"397 678 OFFCURVE",
"397 640 CURVE"
);
}
);
width = 600;
},
{
associatedMasterId = "C6C3B4F4-9047-4AEA-9672-C83927A9B560";
layerId = "F00B999C-E7FD-43D5-B2B1-09A82E8555CC";
name = "Color 4";
paths = (
{
closed = 1;
nodes = (
"535 187 LINE",
"535 596 LINE",
"415 596 LINE",
"415 187 LINE"
);
},
{
closed = 1;
nodes = (
"160 130 OFFCURVE",
"187 155 OFFCURVE",
"187 187 CURVE",
"187 187 LINE SMOOTH",
"67 187 LINE",
"67 187 LINE",
"67 155 OFFCURVE",
"94 130 OFFCURVE",
"125 130 CURVE SMOOTH"
);
},
{
closed = 1;
nodes = (
"187 187 LINE",
"187 596 LINE",
"67 596 LINE",
"67 187 LINE"
);
},
{
closed = 1;
nodes = (
"507 130 OFFCURVE",
"535 155 OFFCURVE",
"535 187 CURVE",
"535 187 LINE SMOOTH",
"415 187 LINE",
"415 187 LINE",
"415 155 OFFCURVE",
"441 130 OFFCURVE",
"472 130 CURVE SMOOTH"
);
},
{
closed = 1;
nodes = (
"361 304 LINE",
"361 481 LINE",
"241 481 LINE",
"241 304 LINE"
);
},
{
closed = 1;
nodes = (
"67 596 LINE",
"187 596 LINE SMOOTH",
"187 596 LINE",
"187 628 OFFCURVE",
"160 653 OFFCURVE",
"125 653 CURVE SMOOTH",
"94 653 OFFCURVE",
"67 628 OFFCURVE",
"67 596 CURVE"
);
},
{
closed = 1;
nodes = (
"415 596 LINE",
"535 596 LINE SMOOTH",
"535 596 LINE",
"535 628 OFFCURVE",
"507 653 OFFCURVE",
"472 653 CURVE SMOOTH",
"441 653 OFFCURVE",
"415 628 OFFCURVE",
"415 596 CURVE"
);
}
);
width = 600;
},
{
associatedMasterId = "C6C3B4F4-9047-4AEA-9672-C83927A9B560";
layerId = "D49754FB-EC8C-4AB8-9970-24FA7E44868B";
name = "Color 6";
paths = (
{
closed = 1;
nodes = (
"361 304 LINE",
"361 481 LINE",
"241 481 LINE",
"241 304 LINE"
);
}
);
width = 600;
},
{
layerId = "2731C349-77E1-43A4-A9DD-A1DF19151D5D";
paths = (
{
closed = 1;
nodes = (
"401 97 LINE",
"606 452 LINE",
"502 512 LINE",
"297 157 LINE"
);
},
{
closed = 1;
nodes = (
"48 236 OFFCURVE",
"84 244 OFFCURVE",
"100 271 CURVE",
"100 271 LINE SMOOTH",
"-4 331 LINE",
"-4 331 LINE",
"-20 304 OFFCURVE",
"-9 269 OFFCURVE",
"18 253 CURVE SMOOTH"
);
},
{
closed = 1;
nodes = (
"100 271 LINE",
"305 626 LINE",
"201 686 LINE",
"-4 331 LINE"
);
},
{
closed = 1;
nodes = (
"349 62 OFFCURVE",
"385 70 OFFCURVE",
"401 97 CURVE",
"401 97 LINE SMOOTH",
"297 157 LINE",
"297 157 LINE",
"281 130 OFFCURVE",
"291 95 OFFCURVE",
"318 80 CURVE SMOOTH"
);
},
{
closed = 1;
nodes = (
"309 286 LINE",
"398 439 LINE",
"294 499 LINE",
"205 346 LINE"
);
},
{
closed = 1;
nodes = (
"201 686 LINE",
"305 626 LINE SMOOTH",
"305 626 LINE",
"321 653 OFFCURVE",
"310 688 OFFCURVE",
"279 706 CURVE SMOOTH",
"252 721 OFFCURVE",
"217 713 OFFCURVE",
"201 686 CURVE"
);
},
{
closed = 1;
nodes = (
"502 512 LINE",
"606 452 LINE SMOOTH",
"606 452 LINE",
"621 479 OFFCURVE",
"610 515 OFFCURVE",
"580 532 CURVE SMOOTH",
"553 548 OFFCURVE",
"518 539 OFFCURVE",
"502 512 CURVE"
);
}
);
width = 600;
},
{
associatedMasterId = "2731C349-77E1-43A4-A9DD-A1DF19151D5D";
layerId = "5B4EDB08-3746-4DEC-8FDF-70661C5705D5";
name = "Color 6";
paths = (
{
closed = 1;
nodes = (
"309 286 LINE",
"397 439 LINE",
"293 499 LINE",
"205 346 LINE"
);
},
{
closed = 1;
nodes = (
"396 76 LINE",
"622 467 LINE",
"507 533 LINE",
"281 142 LINE"
);
},
{
closed = 1;
nodes = (
"38 211 OFFCURVE",
"77 220 OFFCURVE",
"95 250 CURVE",
"95 250 LINE SMOOTH",
"-20 316 LINE",
"-20 316 LINE",
"-37 286 OFFCURVE",
"-25 247 OFFCURVE",
"4 230 CURVE SMOOTH"
);
},
{
closed = 1;
nodes = (
"95 250 LINE",
"321 641 LINE",
"206 707 LINE",
"-20 316 LINE"
);
},
{
closed = 1;
nodes = (
"339 37 OFFCURVE",
"378 46 OFFCURVE",
"396 76 CURVE",
"396 76 LINE SMOOTH",
"281 142 LINE",
"281 142 LINE",
"264 112 OFFCURVE",
"275 73 OFFCURVE",
"304 57 CURVE SMOOTH"
);
},
{
closed = 1;
nodes = (
"206 707 LINE",
"321 641 LINE SMOOTH",
"321 641 LINE",
"338 671 OFFCURVE",
"326 709 OFFCURVE",
"292 729 CURVE SMOOTH",
"262 746 OFFCURVE",
"224 737 OFFCURVE",
"206 707 CURVE"
);
},
{
closed = 1;
nodes = (
"507 533 LINE",
"622 467 LINE SMOOTH",
"622 467 LINE",
"638 497 OFFCURVE",
"626 537 OFFCURVE",
"593 555 CURVE SMOOTH",
"563 573 OFFCURVE",
"525 563 OFFCURVE",
"507 533 CURVE"
);
},
{
closed = 1;
nodes = (
"398 50 LINE",
"647 480 LINE",
"509 560 LINE",
"261 129 LINE"
);
},
{
closed = 1;
nodes = (
"30 182 OFFCURVE",
"77 191 OFFCURVE",
"96 224 CURVE",
"96 224 LINE SMOOTH",
"-42 304 LINE",
"-42 304 LINE",
"-61 271 OFFCURVE",
"-45 226 OFFCURVE",
"-9 205 CURVE SMOOTH"
);
},
{
closed = 1;
nodes = (
"96 224 LINE",
"345 655 LINE",
"207 734 LINE",
"-42 304 LINE"
);
},
{
closed = 1;
nodes = (
"332 8 OFFCURVE",
"379 17 OFFCURVE",
"398 50 CURVE",
"398 50 LINE SMOOTH",
"261 129 LINE",
"261 129 LINE",
"242 96 OFFCURVE",
"256 52 OFFCURVE",
"292 31 CURVE SMOOTH"
);
},
{
closed = 1;
nodes = (
"207 734 LINE",
"345 655 LINE SMOOTH",
"345 655 LINE",
"364 687 OFFCURVE",
"348 732 OFFCURVE",
"308 755 CURVE SMOOTH",
"273 776 OFFCURVE",
"226 767 OFFCURVE",
"207 734 CURVE"
);
},
{
closed = 1;
nodes = (
"509 560 LINE",
"647 480 LINE SMOOTH",
"647 480 LINE",
"666 513 OFFCURVE",
"649 558 OFFCURVE",
"609 581 CURVE SMOOTH",
"574 602 OFFCURVE",
"528 592 OFFCURVE",
"509 560 CURVE"
);
}
);
width = 600;
},
{
associatedMasterId = "2731C349-77E1-43A4-A9DD-A1DF19151D5D";
layerId = "8349F52E-84DB-40BD-A7FD-C103AD4678BE";
name = "Color 4";
paths = (
{
closed = 1;
nodes = (
"401 97 LINE",
"606 452 LINE",
"502 512 LINE",
"297 157 LINE"
);
},
{
closed = 1;
nodes = (
"48 236 OFFCURVE",
"84 244 OFFCURVE",
"100 271 CURVE",
"100 271 LINE SMOOTH",
"-4 331 LINE",
"-4 331 LINE",
"-20 304 OFFCURVE",
"-9 269 OFFCURVE",
"18 253 CURVE SMOOTH"
);
},
{
closed = 1;
nodes = (
"100 271 LINE",
"305 626 LINE",
"201 686 LINE",
"-4 331 LINE"
);
},
{
closed = 1;
nodes = (
"349 62 OFFCURVE",
"385 70 OFFCURVE",
"401 97 CURVE",
"401 97 LINE SMOOTH",
"297 157 LINE",
"297 157 LINE",
"281 130 OFFCURVE",
"291 95 OFFCURVE",
"318 80 CURVE SMOOTH"
);
},
{
closed = 1;
nodes = (
"309 286 LINE",
"398 439 LINE",
"294 499 LINE",
"205 346 LINE"
);
},
{
closed = 1;
nodes = (
"201 686 LINE",
"305 626 LINE SMOOTH",
"305 626 LINE",
"321 653 OFFCURVE",
"310 688 OFFCURVE",
"279 706 CURVE SMOOTH",
"252 721 OFFCURVE",
"217 713 OFFCURVE",
"201 686 CURVE"
);
},
{
closed = 1;
nodes = (
"502 512 LINE",
"606 452 LINE SMOOTH",
"606 452 LINE",
"622 479 OFFCURVE",
"610 515 OFFCURVE",
"580 532 CURVE SMOOTH",
"553 548 OFFCURVE",
"518 539 OFFCURVE",
"502 512 CURVE"
);
}
);
width = 600;
},
{
associatedMasterId = "2731C349-77E1-43A4-A9DD-A1DF19151D5D";
layerId = "9B72F469-2A9C-4577-B45E-6955D0165808";
name = "Color 6";
paths = (
{
closed = 1;
nodes = (
"309 286 LINE",
"398 439 LINE",
"294 499 LINE",
"205 346 LINE"
);
}
);
width = 600;
}
);
leftKerningGroup = Standard;
rightKerningGroup = Standard;
unicode = 0057;
},
{
glyphname = X;
lastChange = "2019-09-06 18:58:39 +0000";
layers = (
{
guideLines = (
{
angle = 122.864;
position = "{249, 500}";
},
{
angle = 55.4009;
position = "{468, 405}";
}
);
layerId = "C6C3B4F4-9047-4AEA-9672-C83927A9B560";
paths = (
{
closed = 1;
nodes = (
"385 390 LINE",
"536 239 LINE",
"447 150 LINE",
"296 301 LINE",
"145 150 LINE",
"56 239 LINE",
"207 390 LINE",
"56 541 LINE",
"145 630 LINE",
"296 479 LINE",
"447 630 LINE",
"536 541 LINE"
);
}
);
width = 600;
},
{
guideLines = (
{
angle = 122.864;
position = "{249, 500}";
},
{
angle = 55.4009;
position = "{468, 405}";
}
);
layerId = "2731C349-77E1-43A4-A9DD-A1DF19151D5D";
paths = (
{
closed = 1;
nodes = (
"373 346 LINE",
"428 139 LINE",
"307 107 LINE",
"252 313 LINE",
"45 258 LINE",
"13 379 LINE",
"219 435 LINE",
"164 641 LINE",
"285 673 LINE",
"341 467 LINE",
"547 522 LINE",
"579 401 LINE"
);
}
);
width = 600;
}
);
leftKerningGroup = Standard;
rightKerningGroup = Standard;
unicode = 0058;
},
{
glyphname = Y;
lastChange = "2019-09-06 18:58:39 +0000";
layers = (
{
layerId = "C6C3B4F4-9047-4AEA-9672-C83927A9B560";
paths = (
{
closed = 1;
nodes = (
"228 145 LINE",
"374 145 LINE",
"374 638 LINE",
"228 638 LINE"
);
},
{
closed = 1;
nodes = (
"43 704 LINE",
"301 457 LINE",
"559 704 LINE"
);
},
{
closed = 1;
nodes = (
"559 -1 LINE",
"301 245 LINE",
"43 -1 LINE"
);
}
);
width = 600;
},
{
layerId = "2731C349-77E1-43A4-A9DD-A1DF19151D5D";
paths = (
{
closed = 1;
nodes = (
"135 209 LINE",
"261 136 LINE",
"507 563 LINE",
"381 636 LINE"
);
},
{
closed = 1;
nodes = (
"254 786 LINE",
"354 443 LINE",
"701 528 LINE"
);
},
{
closed = 1;
nodes = (
"348 -83 LINE",
"248 259 LINE",
"-99 175 LINE"
);
}
);
width = 600;
}
);
leftKerningGroup = Standard;
rightKerningGroup = Standard;
unicode = 0059;
},
{
glyphname = Z;
lastChange = "2019-09-06 18:58:39 +0000";
layers = (
{
guideLines = (
{
angle = 90;
position = "{312, 739}";
}
);
layerId = "C6C3B4F4-9047-4AEA-9672-C83927A9B560";
paths = (
{
closed = 1;
nodes = (
"526 158 LINE",
"526 278 LINE",
"77 278 LINE",
"77 158 LINE"
);
},
{
closed = 1;
nodes = (
"526 506 LINE",
"526 626 LINE",
"77 626 LINE",
"77 506 LINE"
);
},
{
closed = 1;
nodes = (
"389 331 LINE",
"389 451 LINE",
"212 451 LINE",
"212 331 LINE"
);
}
);
width = 600;
},
{
guideLines = (
{
angle = 90;
position = "{312, 739}";
}
);
layerId = "2731C349-77E1-43A4-A9DD-A1DF19151D5D";
paths = (
{
closed = 1;
nodes = (
"379 77 LINE",
"439 181 LINE",
"50 406 LINE",
"-10 302 LINE"
);
},
{
closed = 1;
nodes = (
"553 378 LINE",
"613 482 LINE",
"224 707 LINE",
"164 603 LINE"
);
},
{
closed = 1;
nodes = (
"347 295 LINE",
"407 399 LINE",
"253 488 LINE",
"193 384 LINE"
);
}
);
width = 600;
}
);
leftKerningGroup = Standard;
rightKerningGroup = Standard;
unicode = 005A;
},
{
glyphname = i;
lastChange = "2019-09-06 18:58:39 +0000";
layers = (
{
components = (
{
name = I;
}
);
layerId = "C6C3B4F4-9047-4AEA-9672-C83927A9B560";
paths = (
{
closed = 1;
nodes = (
"172 93 LINE SMOOTH",
"172 72 OFFCURVE",
"189 60 OFFCURVE",
"216 60 CURVE SMOOTH",
"386 60 LINE SMOOTH",
"413 60 OFFCURVE",
"430 72 OFFCURVE",
"430 93 CURVE SMOOTH",
"430 690 LINE SMOOTH",
"430 711 OFFCURVE",
"413 723 OFFCURVE",
"386 723 CURVE SMOOTH",
"216 723 LINE SMOOTH",
"189 723 OFFCURVE",
"172 711 OFFCURVE",
"172 690 CURVE SMOOTH"
);
}
);
width = 600;
},
{
associatedMasterId = "C6C3B4F4-9047-4AEA-9672-C83927A9B560";
components = (
{
name = I;
}
);
layerId = "2A71FBDA-59B6-47C3-9113-EF80FEBAFD42";
name = "Color 6";
paths = (
{
closed = 1;
nodes = (
"172 93 LINE SMOOTH",
"172 72 OFFCURVE",
"189 60 OFFCURVE",
"216 60 CURVE SMOOTH",
"386 60 LINE SMOOTH",
"413 60 OFFCURVE",
"430 72 OFFCURVE",
"430 93 CURVE SMOOTH",
"430 690 LINE SMOOTH",
"430 711 OFFCURVE",
"413 723 OFFCURVE",
"386 723 CURVE SMOOTH",
"216 723 LINE SMOOTH",
"189 723 OFFCURVE",
"172 711 OFFCURVE",
"172 690 CURVE SMOOTH"
);
}
);
width = 600;
},
{
associatedMasterId = "C6C3B4F4-9047-4AEA-9672-C83927A9B560";
components = (
{
name = I;
}
);
layerId = "DBE285F0-42F0-4A05-A9F3-8CF4832C8D5E";
name = "Color 2";
width = 600;
},
{
components = (
{
name = I;
}
);
layerId = "2731C349-77E1-43A4-A9DD-A1DF19151D5D";
paths = (
{
closed = 1;
nodes = (
"40 197 LINE SMOOTH",
"30 179 OFFCURVE",
"38 160 OFFCURVE",
"62 147 CURVE SMOOTH",
"209 62 LINE SMOOTH",
"232 48 OFFCURVE",
"253 50 OFFCURVE",
"263 68 CURVE SMOOTH",
"562 586 LINE SMOOTH",
"572 604 OFFCURVE",
"564 623 OFFCURVE",
"540 636 CURVE SMOOTH",
"393 721 LINE SMOOTH",
"370 735 OFFCURVE",
"349 733 OFFCURVE",
"339 715 CURVE SMOOTH"
);
}
);
width = 600;
},
{
associatedMasterId = "2731C349-77E1-43A4-A9DD-A1DF19151D5D";
components = (
{
name = I;
}
);
layerId = "8811885C-53CE-498F-88B0-522FB38DE0B7";
name = "Color 6";
width = 600;
},
{
associatedMasterId = "2731C349-77E1-43A4-A9DD-A1DF19151D5D";
components = (
{
name = I;
}
);
layerId = "E1394677-CE9B-4B79-A224-151C6C9BF90E";
name = "Color 2";
width = 600;
}
);
leftKerningGroup = Standard;
rightKerningGroup = Standard;
unicode = 0069;
},
{
glyphname = k;
lastChange = "2019-09-06 18:58:39 +0000";
layers = (
{
components = (
{
name = K;
}
);
layerId = "C6C3B4F4-9047-4AEA-9672-C83927A9B560";
width = 600;
},
{
associatedMasterId = "C6C3B4F4-9047-4AEA-9672-C83927A9B560";
components = (
{
name = K;
}
);
layerId = "46E87070-AC20-4B16-914E-DCA74C767718";
name = "Color 6";
width = 600;
},
{
associatedMasterId = "C6C3B4F4-9047-4AEA-9672-C83927A9B560";
components = (
{
name = K;
}
);
layerId = "056AABDD-B898-4116-9077-2747178FCF16";
name = "Color 1";
width = 600;
},
{
associatedMasterId = "C6C3B4F4-9047-4AEA-9672-C83927A9B560";
layerId = "4C1BCCB7-F44B-4B03-B497-6B07B26C3CFD";
name = "Color 6";
paths = (
{
closed = 1;
nodes = (
"374 -131 LINE",
"374 931 LINE",
"228 931 LINE",
"228 -131 LINE"
);
}
);
width = 600;
},
{
associatedMasterId = "2731C349-77E1-43A4-A9DD-A1DF19151D5D";
components = (
{
name = K;
}
);
layerId = "6DD2ED95-156D-44CB-9EC1-F4B4B2089AF9";
name = "Color 6";
width = 600;
},
{
components = (
{
name = K;
}
);
layerId = "2731C349-77E1-43A4-A9DD-A1DF19151D5D";
width = 600;
},
{
associatedMasterId = "2731C349-77E1-43A4-A9DD-A1DF19151D5D";
components = (
{
name = K;
}
);
layerId = "02F28AB8-8476-46ED-B6E6-EFD1F31C70F4";
name = "Color 1";
width = 600;
},
{
associatedMasterId = "2731C349-77E1-43A4-A9DD-A1DF19151D5D";
layerId = "955CB6E9-886B-4143-97B2-80E98A821462";
name = "Color 6";
paths = (
{
closed = 1;
nodes = (
"99 -96 LINE",
"630 823 LINE",
"503 896 LINE",
"-28 -23 LINE"
);
}
);
width = 600;
}
);
leftKerningGroup = Standard;
rightKerningGroup = Standard;
unicode = 006B;
},
{
glyphname = w;
lastChange = "2019-09-06 18:58:39 +0000";
layers = (
{
components = (
{
name = W;
transform = "{0.87462, -0.48481, 0.48481, 0.87462, -157, 192}";
}
);
layerId = "C6C3B4F4-9047-4AEA-9672-C83927A9B560";
width = 600;
},
{
associatedMasterId = "C6C3B4F4-9047-4AEA-9672-C83927A9B560";
components = (
{
name = W;
}
);
layerId = "8DD1C234-68EF-4DB7-BEF5-E9512EBF3CA5";
name = "Color 6";
width = 600;
},
{
associatedMasterId = "C6C3B4F4-9047-4AEA-9672-C83927A9B560";
components = (
{
name = W;
}
);
layerId = "664337F8-C418-46AF-8A99-ABE5DF65E6A2";
name = "Color 4";
width = 600;
},
{
components = (
{
name = W;
}
);
layerId = "2731C349-77E1-43A4-A9DD-A1DF19151D5D";
width = 600;
},
{
associatedMasterId = "2731C349-77E1-43A4-A9DD-A1DF19151D5D";
components = (
{
alignment = -1;
name = W;
transform = "{1.1025, 0, 0, 1.1025, -8, -45}";
}
);
layerId = "2768F6AD-8DD4-481D-B6BC-624426436997";
name = "Color 6";
width = 600;
},
{
associatedMasterId = "2731C349-77E1-43A4-A9DD-A1DF19151D5D";
components = (
{
alignment = -1;
name = W;
transform = "{1.1025, 0, 0, 1.1025, -8, -45}";
}
);
layerId = "EFE66760-CECA-4A56-9A24-EEBE7953BD20";
name = "Color 4";
width = 600;
},
{
associatedMasterId = "C6C3B4F4-9047-4AEA-9672-C83927A9B560";
layerId = "E3746AC2-2A6C-491B-BE39-FD74066300E7";
name = "Color 6";
paths = (
{
closed = 1;
nodes = (
"363 304 LINE",
"363 481 LINE",
"241 481 LINE",
"241 304 LINE"
);
}
);
width = 600;
},
{
associatedMasterId = "2731C349-77E1-43A4-A9DD-A1DF19151D5D";
layerId = "EF834FFB-B59E-49B8-988C-16795D060406";
name = "Color 6";
paths = (
{
closed = 1;
nodes = (
"311 285 LINE",
"399 439 LINE",
"293 500 LINE",
"205 346 LINE"
);
}
);
width = 600;
}
);
leftKerningGroup = Standard;
rightKerningGroup = Standard;
unicode = 0077;
},
{
glyphname = ordfeminine;
lastChange = "2019-09-06 18:58:39 +0000";
layers = (
{
layerId = "C6C3B4F4-9047-4AEA-9672-C83927A9B560";
paths = (
{
closed = 1;
nodes = (
"425 645 LINE",
"406 714 LINE",
"365 663 OFFCURVE",
"312 637 OFFCURVE",
"248 637 CURVE SMOOTH",
"161 637 OFFCURVE",
"117 677 OFFCURVE",
"117 758 CURVE SMOOTH",
"117 849 OFFCURVE",
"180 885 OFFCURVE",
"330 890 CURVE SMOOTH",
"403 893 LINE",
"403 899 LINE SMOOTH",
"403 951 OFFCURVE",
"373 977 OFFCURVE",
"314 977 CURVE SMOOTH",
"270 977 OFFCURVE",
"222 967 OFFCURVE",
"170 947 CURVE",
"146 1012 LINE",
"200 1035 OFFCURVE",
"257 1046 OFFCURVE",
"319 1046 CURVE SMOOTH",
"433 1046 OFFCURVE",
"490 999 OFFCURVE",
"490 906 CURVE SMOOTH",
"490 645 LINE"
);
},
{
closed = 1;
nodes = (
"344 832 LINE SMOOTH",
"255 831 OFFCURVE",
"207 815 OFFCURVE",
"207 757 CURVE SMOOTH",
"207 721 OFFCURVE",
"227 704 OFFCURVE",
"268 704 CURVE SMOOTH",
"350 704 OFFCURVE",
"403 751 OFFCURVE",
"403 822 CURVE SMOOTH",
"403 834 LINE"
);
}
);
width = 600;
},
{
layerId = "2731C349-77E1-43A4-A9DD-A1DF19151D5D";
paths = (
{
closed = 1;
nodes = (
"306 627 OFFCURVE",
"358 648 OFFCURVE",
"398 687 CURVE",
"413 635 LINE",
"505 635 LINE",
"505 906 LINE SMOOTH",
"505 1004 OFFCURVE",
"441 1056 OFFCURVE",
"319 1056 CURVE SMOOTH",
"250 1056 OFFCURVE",
"186 1042 OFFCURVE",
"129 1016 CURVE",
"160 932 LINE",
"218 955 OFFCURVE",
"268 967 OFFCURVE",
"314 967 CURVE SMOOTH",
"365 967 OFFCURVE",
"388 946 OFFCURVE",
"388 899 CURVE",
"388 902 LINE",
"329 900 LINE SMOOTH",
"170 895 OFFCURVE",
"102 853 OFFCURVE",
"102 758 CURVE SMOOTH",
"102 672 OFFCURVE",
"152 627 OFFCURVE",
"248 627 CURVE SMOOTH"
);
},
{
closed = 1;
nodes = (
"235 714 OFFCURVE",
"222 726 OFFCURVE",
"222 757 CURVE SMOOTH",
"222 804 OFFCURVE",
"252 821 OFFCURVE",
"344 822 CURVE SMOOTH",
"388 823 LINE",
"388 822 LINE SMOOTH",
"388 756 OFFCURVE",
"342 714 OFFCURVE",
"268 714 CURVE SMOOTH"
);
}
);
width = 600;
}
);
unicode = 00AA;
},
{
glyphname = ordmasculine;
lastChange = "2019-09-06 18:58:39 +0000";
layers = (
{
layerId = "C6C3B4F4-9047-4AEA-9672-C83927A9B560";
paths = (
{
closed = 1;
nodes = (
"211 637 OFFCURVE",
"129 715 OFFCURVE",
"129 842 CURVE SMOOTH",
"129 969 OFFCURVE",
"205 1046 OFFCURVE",
"326 1046 CURVE SMOOTH",
"440 1046 OFFCURVE",
"522 969 OFFCURVE",
"522 842 CURVE SMOOTH",
"522 713 OFFCURVE",
"443 637 OFFCURVE",
"324 637 CURVE SMOOTH"
);
},
{
closed = 1;
nodes = (
"396 707 OFFCURVE",
"432 752 OFFCURVE",
"432 842 CURVE SMOOTH",
"432 931 OFFCURVE",
"396 975 OFFCURVE",
"325 975 CURVE SMOOTH",
"254 975 OFFCURVE",
"218 931 OFFCURVE",
"218 842 CURVE SMOOTH",
"218 752 OFFCURVE",
"254 707 OFFCURVE",
"325 707 CURVE SMOOTH"
);
}
);
width = 600;
},
{
layerId = "2731C349-77E1-43A4-A9DD-A1DF19151D5D";
paths = (
{
closed = 1;
nodes = (
"454 627 OFFCURVE",
"537 710 OFFCURVE",
"537 842 CURVE SMOOTH",
"537 970 OFFCURVE",
"452 1056 OFFCURVE",
"326 1056 CURVE SMOOTH",
"196 1056 OFFCURVE",
"114 973 OFFCURVE",
"114 842 CURVE SMOOTH",
"114 713 OFFCURVE",
"198 627 OFFCURVE",
"324 627 CURVE SMOOTH"
);
},
{
closed = 1;
nodes = (
"264 717 OFFCURVE",
"233 758 OFFCURVE",
"233 842 CURVE SMOOTH",
"233 925 OFFCURVE",
"263 965 OFFCURVE",
"325 965 CURVE SMOOTH",
"387 965 OFFCURVE",
"417 925 OFFCURVE",
"417 842 CURVE SMOOTH",
"417 758 OFFCURVE",
"386 717 OFFCURVE",
"325 717 CURVE SMOOTH"
);
}
);
width = 600;
}
);
unicode = 00BA;
},
{
color = 6;
glyphname = zero;
lastChange = "2019-09-06 18:58:39 +0000";
layers = (
{
guideLines = (
{
angle = 180;
position = "{335, 364}";
},
{
angle = 90;
position = "{334, 321}";
}
);
layerId = "C6C3B4F4-9047-4AEA-9672-C83927A9B560";
paths = (
{
closed = 1;
nodes = (
"498 -14 OFFCURVE",
"584 118 OFFCURVE",
"584 364 CURVE",
"584 614 OFFCURVE",
"499 742 OFFCURVE",
"335 742 CURVE SMOOTH",
"172 742 OFFCURVE",
"80 614 OFFCURVE",
"80 364 CURVE",
"80 118 OFFCURVE",
"171 -14 OFFCURVE",
"334 -14 CURVE SMOOTH"
);
},
{
closed = 1;
nodes = (
"376 321 OFFCURVE",
"385 373 OFFCURVE",
"385 410 CURVE SMOOTH",
"385 480 OFFCURVE",
"376 525 OFFCURVE",
"335 525 CURVE SMOOTH",
"289 525 OFFCURVE",
"282 467 OFFCURVE",
"282 410 CURVE SMOOTH",
"282 373 OFFCURVE",
"293 321 OFFCURVE",
"335 321 CURVE SMOOTH"
);
},
{
closed = 1;
nodes = (
"233 167 OFFCURVE",
"184 250 OFFCURVE",
"184 435 CURVE SMOOTH",
"184 614 OFFCURVE",
"234 703 OFFCURVE",
"335 703 CURVE SMOOTH",
"437 703 OFFCURVE",
"490 614 OFFCURVE",
"490 435 CURVE",
"477 256 OFFCURVE",
"436 167 OFFCURVE",
"334 167 CURVE"
);
}
);
width = 664;
},
{
guideLines = (
{
angle = 180;
position = "{134, 364}";
},
{
angle = 90;
position = "{134, 321}";
}
);
layerId = "2731C349-77E1-43A4-A9DD-A1DF19151D5D";
paths = (
{
closed = 1;
nodes = (
"514 -41 OFFCURVE",
"611 103 OFFCURVE",
"611 364 CURVE SMOOTH",
"611 627 OFFCURVE",
"516 769 OFFCURVE",
"335 769 CURVE SMOOTH",
"153 769 OFFCURVE",
"53 624 OFFCURVE",
"53 364 CURVE SMOOTH",
"53 106 OFFCURVE",
"153 -41 OFFCURVE",
"334 -41 CURVE SMOOTH"
);
},
{
closed = 1;
nodes = (
"385 294 OFFCURVE",
"412 342 OFFCURVE",
"412 410 CURVE SMOOTH",
"412 501 OFFCURVE",
"392 552 OFFCURVE",
"335 552 CURVE SMOOTH",
"278 552 OFFCURVE",
"255 499 OFFCURVE",
"255 410 CURVE SMOOTH",
"255 342 OFFCURVE",
"284 294 OFFCURVE",
"335 294 CURVE SMOOTH"
);
},
{
closed = 1;
nodes = (
"250 194 OFFCURVE",
"211 266 OFFCURVE",
"211 435 CURVE SMOOTH",
"211 602 OFFCURVE",
"252 676 OFFCURVE",
"335 676 CURVE SMOOTH",
"420 676 OFFCURVE",
"463 599 OFFCURVE",
"463 435 CURVE",
"450 260 OFFCURVE",
"412 194 OFFCURVE",
"334 194 CURVE SMOOTH"
);
}
);
width = 664;
},
{
associatedMasterId = "C6C3B4F4-9047-4AEA-9672-C83927A9B560";
guideLines = (
{
angle = 180;
position = "{335, 364}";
},
{
angle = 90;
position = "{334, 321}";
}
);
layerId = "5B77A0D9-DEE8-494C-BF55-9A3FCDF77426";
name = "Color 7";
paths = (
{
closed = 1;
nodes = (
"498 -14 OFFCURVE",
"584 118 OFFCURVE",
"584 364 CURVE",
"584 614 OFFCURVE",
"499 742 OFFCURVE",
"335 742 CURVE SMOOTH",
"172 742 OFFCURVE",
"80 614 OFFCURVE",
"80 364 CURVE",
"80 118 OFFCURVE",
"171 -14 OFFCURVE",
"334 -14 CURVE SMOOTH"
);
},
{
closed = 1;
nodes = (
"376 321 OFFCURVE",
"385 373 OFFCURVE",
"385 410 CURVE SMOOTH",
"385 480 OFFCURVE",
"376 525 OFFCURVE",
"335 525 CURVE SMOOTH",
"289 525 OFFCURVE",
"282 467 OFFCURVE",
"282 410 CURVE SMOOTH",
"282 373 OFFCURVE",
"293 321 OFFCURVE",
"335 321 CURVE SMOOTH"
);
},
{
closed = 1;
nodes = (
"233 167 OFFCURVE",
"184 250 OFFCURVE",
"184 435 CURVE SMOOTH",
"184 614 OFFCURVE",
"234 703 OFFCURVE",
"335 703 CURVE SMOOTH",
"437 703 OFFCURVE",
"490 614 OFFCURVE",
"490 435 CURVE",
"477 256 OFFCURVE",
"436 167 OFFCURVE",
"334 167 CURVE"
);
}
);
width = 664;
}
);
unicode = 0030;
},
{
color = 6;
glyphname = one;
lastChange = "2019-09-06 18:58:39 +0000";
layers = (
{
layerId = "C6C3B4F4-9047-4AEA-9672-C83927A9B560";
paths = (
{
closed = 1;
nodes = (
"500 0 LINE",
"500 137 LINE",
"335 142 LINE",
"335 729 LINE",
"275 729 LINE SMOOTH",
"242 729 OFFCURVE",
"187 700 OFFCURVE",
"129 665 CURVE",
"119 574 LINE",
"242 639 LINE",
"217 141 LINE",
"80 137 LINE",
"80 0 LINE"
);
}
);
width = 580;
},
{
layerId = "2731C349-77E1-43A4-A9DD-A1DF19151D5D";
paths = (
{
closed = 1;
nodes = (
"527 -27 LINE",
"527 163 LINE",
"362 168 LINE",
"362 756 LINE",
"275 756 LINE SMOOTH",
"241 756 OFFCURVE",
"191 734 OFFCURVE",
"104 681 CURVE",
"87 526 LINE",
"213 593 LINE",
"191 167 LINE",
"53 163 LINE",
"53 -27 LINE"
);
}
);
width = 580;
},
{
associatedMasterId = "C6C3B4F4-9047-4AEA-9672-C83927A9B560";
layerId = "F3D28AE2-3C85-40D8-892F-6A699FBC725D";
name = "Color 7";
paths = (
{
closed = 1;
nodes = (
"500 0 LINE",
"500 137 LINE",
"335 142 LINE",
"335 729 LINE",
"275 729 LINE SMOOTH",
"242 729 OFFCURVE",
"187 700 OFFCURVE",
"129 665 CURVE",
"119 574 LINE",
"242 639 LINE",
"217 141 LINE",
"80 137 LINE",
"80 0 LINE"
);
}
);
width = 580;
}
);
unicode = 0031;
},
{
color = 6;
glyphname = two;
lastChange = "2019-09-06 18:58:39 +0000";
layers = (
{
layerId = "C6C3B4F4-9047-4AEA-9672-C83927A9B560";
paths = (
{
closed = 1;
nodes = (
"559 0 LINE",
"548 142 LINE",
"310 142 LINE",
"556 365 OFFCURVE",
"545 431 OFFCURVE",
"545 534 CURVE SMOOTH",
"545 661 OFFCURVE",
"448 742 OFFCURVE",
"297 742 CURVE SMOOTH",
"240 742 OFFCURVE",
"177 726 OFFCURVE",
"97 694 CURVE",
"91 594 LINE",
"169 638 OFFCURVE",
"237 659 OFFCURVE",
"299 659 CURVE SMOOTH",
"387 659 OFFCURVE",
"446 605 OFFCURVE",
"446 528 CURVE SMOOTH",
"446 504 OFFCURVE",
"440 480 OFFCURVE",
"428 456 CURVE SMOOTH",
"402 406 OFFCURVE",
"364 348 OFFCURVE",
"245 271 CURVE SMOOTH",
"177 227 OFFCURVE",
"112 183 OFFCURVE",
"105 141 CURVE SMOOTH",
"80 0 LINE"
);
}
);
width = 639;
},
{
layerId = "2731C349-77E1-43A4-A9DD-A1DF19151D5D";
paths = (
{
closed = 1;
nodes = (
"588 -27 LINE",
"573 169 LINE",
"378 169 LINE",
"583 367 OFFCURVE",
"572 439 OFFCURVE",
"572 534 CURVE SMOOTH",
"572 676 OFFCURVE",
"463 769 OFFCURVE",
"297 769 CURVE SMOOTH",
"233 769 OFFCURVE",
"162 751 OFFCURVE",
"71 712 CURVE",
"61 551 LINE",
"180 611 OFFCURVE",
"240 632 OFFCURVE",
"299 632 CURVE SMOOTH",
"373 632 OFFCURVE",
"419 591 OFFCURVE",
"419 528 CURVE SMOOTH",
"419 507 OFFCURVE",
"414 489 OFFCURVE",
"404 468 CURVE",
"379 420 OFFCURVE",
"345 368 OFFCURVE",
"230 294 CURVE SMOOTH",
"124 225 OFFCURVE",
"85 188 OFFCURVE",
"78 144 CURVE SMOOTH",
"48 -27 LINE"
);
}
);
width = 639;
},
{
associatedMasterId = "C6C3B4F4-9047-4AEA-9672-C83927A9B560";
layerId = "255BDED3-D920-4072-BED4-05B3B6A1AE48";
name = "Color 7";
paths = (
{
closed = 1;
nodes = (
"559 0 LINE",
"548 142 LINE",
"310 142 LINE",
"556 365 OFFCURVE",
"545 431 OFFCURVE",
"545 534 CURVE SMOOTH",
"545 661 OFFCURVE",
"448 742 OFFCURVE",
"297 742 CURVE SMOOTH",
"240 742 OFFCURVE",
"177 726 OFFCURVE",
"97 694 CURVE",
"91 594 LINE",
"169 638 OFFCURVE",
"237 659 OFFCURVE",
"299 659 CURVE SMOOTH",
"387 659 OFFCURVE",
"446 605 OFFCURVE",
"446 528 CURVE SMOOTH",
"446 504 OFFCURVE",
"440 480 OFFCURVE",
"428 456 CURVE SMOOTH",
"402 406 OFFCURVE",
"364 348 OFFCURVE",
"245 271 CURVE SMOOTH",
"177 227 OFFCURVE",
"112 183 OFFCURVE",
"105 141 CURVE SMOOTH",
"80 0 LINE"
);
}
);
width = 639;
}
);
unicode = 0032;
},
{
color = 6;
glyphname = three;
lastChange = "2019-09-06 18:58:39 +0000";
layers = (
{
layerId = "C6C3B4F4-9047-4AEA-9672-C83927A9B560";
paths = (
{
closed = 1;
nodes = (
"457 -14 OFFCURVE",
"560 65 OFFCURVE",
"560 222 CURVE SMOOTH",
"560 315 OFFCURVE",
"526 376 OFFCURVE",
"410 393 CURVE",
"504 427 OFFCURVE",
"543 473 OFFCURVE",
"543 553 CURVE SMOOTH",
"543 669 OFFCURVE",
"450 742 OFFCURVE",
"300 742 CURVE SMOOTH",
"242 742 OFFCURVE",
"200 734 OFFCURVE",
"125 713 CURVE",
"102 643 LINE",
"176 668 OFFCURVE",
"237 677 OFFCURVE",
"291 677 CURVE SMOOTH",
"390 677 OFFCURVE",
"472 640 OFFCURVE",
"472 560 CURVE SMOOTH",
"472 468 OFFCURVE",
"404 440 OFFCURVE",
"307 440 CURVE",
"212 440 LINE",
"194 362 LINE",
"288 362 LINE SMOOTH",
"396 362 OFFCURVE",
"453 303 OFFCURVE",
"453 236 CURVE",
"453 170 OFFCURVE",
"422 134 OFFCURVE",
"281 134 CURVE SMOOTH",
"255 134 OFFCURVE",
"161 142 OFFCURVE",
"125 156 CURVE",
"80 22 LINE",
"149 -2 OFFCURVE",
"214 -14 OFFCURVE",
"275 -14 CURVE SMOOTH"
);
}
);
width = 640;
},
{
layerId = "2731C349-77E1-43A4-A9DD-A1DF19151D5D";
paths = (
{
closed = 1;
nodes = (
"476 -41 OFFCURVE",
"587 52 OFFCURVE",
"587 222 CURVE SMOOTH",
"587 396 OFFCURVE",
"489 440 OFFCURVE",
"177 421 CURVE",
"162 335 LINE",
"468 366 OFFCURVE",
"570 417 OFFCURVE",
"570 553 CURVE SMOOTH",
"570 685 OFFCURVE",
"464 769 OFFCURVE",
"300 769 CURVE SMOOTH",
"241 769 OFFCURVE",
"196 761 OFFCURVE",
"102 735 CURVE",
"66 608 LINE",
"180 639 OFFCURVE",
"237 650 OFFCURVE",
"291 650 CURVE SMOOTH",
"388 650 OFFCURVE",
"445 615 OFFCURVE",
"445 560 CURVE SMOOTH",
"445 495 OFFCURVE",
"405 467 OFFCURVE",
"307 467 CURVE SMOOTH",
"189 467 LINE",
"162 335 LINE",
"288 335 LINE SMOOTH",
"371 335 OFFCURVE",
"426 294 OFFCURVE",
"426 236 CURVE SMOOTH",
"426 180 OFFCURVE",
"395 161 OFFCURVE",
"281 161 CURVE",
"303 161 OFFCURVE",
"272 167 OFFCURVE",
"105 182 CURVE",
"46 5 LINE",
"131 -26 OFFCURVE",
"206 -41 OFFCURVE",
"275 -41 CURVE SMOOTH"
);
}
);
width = 640;
},
{
associatedMasterId = "C6C3B4F4-9047-4AEA-9672-C83927A9B560";
layerId = "6E9F224B-B686-4259-B704-CD377FA98796";
name = "Color 7";
paths = (
{
closed = 1;
nodes = (
"457 -14 OFFCURVE",
"560 65 OFFCURVE",
"560 222 CURVE SMOOTH",
"560 315 OFFCURVE",
"526 376 OFFCURVE",
"410 393 CURVE",
"504 427 OFFCURVE",
"543 473 OFFCURVE",
"543 553 CURVE SMOOTH",
"543 669 OFFCURVE",
"450 742 OFFCURVE",
"300 742 CURVE SMOOTH",
"242 742 OFFCURVE",
"200 734 OFFCURVE",
"125 713 CURVE",
"102 643 LINE",
"176 668 OFFCURVE",
"237 677 OFFCURVE",
"291 677 CURVE SMOOTH",
"390 677 OFFCURVE",
"472 640 OFFCURVE",
"472 560 CURVE SMOOTH",
"472 468 OFFCURVE",
"404 440 OFFCURVE",
"307 440 CURVE",
"212 440 LINE",
"194 362 LINE",
"288 362 LINE SMOOTH",
"396 362 OFFCURVE",
"453 303 OFFCURVE",
"453 236 CURVE",
"453 170 OFFCURVE",
"422 134 OFFCURVE",
"281 134 CURVE SMOOTH",
"255 134 OFFCURVE",
"161 142 OFFCURVE",
"125 156 CURVE",
"80 22 LINE",
"149 -2 OFFCURVE",
"214 -14 OFFCURVE",
"275 -14 CURVE SMOOTH"
);
}
);
width = 640;
}
);
unicode = 0033;
},
{
color = 6;
glyphname = four;
lastChange = "2019-09-06 18:58:39 +0000";
layers = (
{
hints = (
{
horizontal = 1;
place = "{0, 21}";
target = up;
type = BottomGhost;
},
{
horizontal = 1;
place = "{205, 2000}";
type = Stem;
},
{
horizontal = 1;
place = "{213.5, 83}";
type = Stem;
},
{
place = "{396, 197}";
type = Stem;
},
{
place = "{383.5, 123}";
type = Stem;
}
);
layerId = "C6C3B4F4-9047-4AEA-9672-C83927A9B560";
paths = (
{
closed = 1;
nodes = (
"503 674 LINE",
"447 727 LINE",
"130 291 LINE",
"188 200 LINE"
);
},
{
closed = 1;
nodes = (
"635 306 LINE",
"130 291 LINE",
"142 201 LINE",
"635 204 LINE"
);
},
{
closed = 1;
nodes = (
"557 0 LINE",
"497 730 LINE",
"447 727 LINE",
"402 0 LINE"
);
}
);
width = 715;
},
{
hints = (
{
horizontal = 1;
place = "{0, 21}";
target = up;
type = BottomGhost;
},
{
horizontal = 1;
place = "{205, 2000}";
type = Stem;
},
{
horizontal = 1;
place = "{213.5, 83}";
type = Stem;
},
{
place = "{396, 197}";
type = Stem;
},
{
place = "{383.5, 123}";
type = Stem;
}
);
layerId = "2731C349-77E1-43A4-A9DD-A1DF19151D5D";
paths = (
{
closed = 1;
nodes = (
"549 760 LINE",
"433 753 LINE",
"92 284 LINE",
"189 218 LINE"
);
},
{
closed = 1;
nodes = (
"662 334 LINE",
"115 318 LINE",
"30 192 LINE",
"662 176 LINE"
);
},
{
closed = 1;
nodes = (
"586 -27 LINE",
"548 760 LINE",
"433 752 LINE",
"394 -27 LINE"
);
}
);
width = 715;
},
{
associatedMasterId = "C6C3B4F4-9047-4AEA-9672-C83927A9B560";
hints = (
{
horizontal = 1;
place = "{0, 21}";
target = up;
type = BottomGhost;
},
{
horizontal = 1;
place = "{205, 2000}";
type = Stem;
},
{
horizontal = 1;
place = "{213.5, 83}";
type = Stem;
},
{
place = "{396, 197}";
type = Stem;
},
{
place = "{383.5, 123}";
type = Stem;
}
);
layerId = "E19F94BD-132D-4367-9E20-7E38AE301529";
name = "Color 7";
paths = (
{
closed = 1;
nodes = (
"503 674 LINE",
"447 727 LINE",
"130 291 LINE",
"188 200 LINE"
);
},
{
closed = 1;
nodes = (
"635 306 LINE",
"130 291 LINE",
"142 201 LINE",
"635 204 LINE"
);
},
{
closed = 1;
nodes = (
"557 0 LINE",
"497 730 LINE",
"447 727 LINE",
"402 0 LINE"
);
}
);
width = 715;
}
);
unicode = 0034;
},
{
color = 6;
glyphname = five;
lastChange = "2019-09-06 18:58:39 +0000";
layers = (
{
layerId = "C6C3B4F4-9047-4AEA-9672-C83927A9B560";
paths = (
{
closed = 1;
nodes = (
"450 -14 OFFCURVE",
"552 77 OFFCURVE",
"552 234 CURVE SMOOTH",
"552 398 OFFCURVE",
"407 446 OFFCURVE",
"287 446 CURVE SMOOTH",
"258 446 OFFCURVE",
"231 446 OFFCURVE",
"190 446 CURVE",
"180 656 LINE",
"503 656 LINE",
"500 729 LINE",
"108 723 LINE",
"92 352 LINE",
"171 362 OFFCURVE",
"233 368 OFFCURVE",
"285 368 CURVE SMOOTH",
"364 368 OFFCURVE",
"438 362 OFFCURVE",
"438 249 CURVE SMOOTH",
"438 199 OFFCURVE",
"393 137 OFFCURVE",
"280 137 CURVE SMOOTH",
"210 137 OFFCURVE",
"178 149 OFFCURVE",
"114 184 CURVE",
"80 17 LINE",
"148 -4 OFFCURVE",
"211 -14 OFFCURVE",
"272 -14 CURVE SMOOTH"
);
}
);
width = 632;
},
{
layerId = "2731C349-77E1-43A4-A9DD-A1DF19151D5D";
paths = (
{
closed = 1;
nodes = (
"464 -41 OFFCURVE",
"579 62 OFFCURVE",
"579 234 CURVE SMOOTH",
"579 381 OFFCURVE",
"466 473 OFFCURVE",
"287 473 CURVE SMOOTH",
"265 473 OFFCURVE",
"243 473 OFFCURVE",
"216 473 CURVE",
"208 629 LINE",
"531 629 LINE",
"526 756 LINE",
"82 750 LINE",
"64 322 LINE",
"175 336 OFFCURVE",
"235 341 OFFCURVE",
"285 341 CURVE SMOOTH",
"363 341 OFFCURVE",
"411 337 OFFCURVE",
"411 249 CURVE SMOOTH",
"411 200 OFFCURVE",
"358 164 OFFCURVE",
"280 164 CURVE SMOOTH",
"212 164 OFFCURVE",
"189 173 OFFCURVE",
"95 224 CURVE",
"48 -1 LINE",
"129 -28 OFFCURVE",
"202 -41 OFFCURVE",
"272 -41 CURVE SMOOTH"
);
}
);
width = 632;
},
{
associatedMasterId = "C6C3B4F4-9047-4AEA-9672-C83927A9B560";
layerId = "78B2D1D8-3EFE-4A83-B112-AEA2DEE572C3";
name = "Color 7";
paths = (
{
closed = 1;
nodes = (
"450 -14 OFFCURVE",
"552 77 OFFCURVE",
"552 234 CURVE SMOOTH",
"552 398 OFFCURVE",
"407 446 OFFCURVE",
"287 446 CURVE SMOOTH",
"258 446 OFFCURVE",
"231 446 OFFCURVE",
"190 446 CURVE",
"180 656 LINE",
"503 656 LINE",
"500 729 LINE",
"108 723 LINE",
"92 352 LINE",
"171 362 OFFCURVE",
"233 368 OFFCURVE",
"285 368 CURVE SMOOTH",
"364 368 OFFCURVE",
"438 362 OFFCURVE",
"438 249 CURVE SMOOTH",
"438 199 OFFCURVE",
"393 137 OFFCURVE",
"280 137 CURVE SMOOTH",
"210 137 OFFCURVE",
"178 149 OFFCURVE",
"114 184 CURVE",
"80 17 LINE",
"148 -4 OFFCURVE",
"211 -14 OFFCURVE",
"272 -14 CURVE SMOOTH"
);
}
);
width = 632;
}
);
unicode = 0035;
},
{
color = 6;
glyphname = six;
lastChange = "2019-09-06 18:58:39 +0000";
layers = (
{
layerId = "C6C3B4F4-9047-4AEA-9672-C83927A9B560";
paths = (
{
closed = 1;
nodes = (
"487 -14 OFFCURVE",
"584 84 OFFCURVE",
"584 234 CURVE SMOOTH",
"584 387 OFFCURVE",
"493 482 OFFCURVE",
"346 482 CURVE SMOOTH",
"277 482 OFFCURVE",
"224 466 OFFCURVE",
"178 413 CURVE",
"188 597 OFFCURVE",
"256 664 OFFCURVE",
"386 664 CURVE SMOOTH",
"436 664 OFFCURVE",
"463 664 OFFCURVE",
"536 664 CURVE",
"536 742 LINE",
"478 742 OFFCURVE",
"432 742 OFFCURVE",
"382 742 CURVE SMOOTH",
"198 742 OFFCURVE",
"80 594 OFFCURVE",
"80 364 CURVE SMOOTH",
"80 118 OFFCURVE",
"172 -14 OFFCURVE",
"340 -14 CURVE SMOOTH"
);
},
{
closed = 1;
nodes = (
"252 116 OFFCURVE",
"196 168 OFFCURVE",
"196 234 CURVE SMOOTH",
"196 339 OFFCURVE",
"252 404 OFFCURVE",
"340 404 CURVE SMOOTH",
"429 404 OFFCURVE",
"485 339 OFFCURVE",
"485 234 CURVE SMOOTH",
"485 168 OFFCURVE",
"429 116 OFFCURVE",
"340 116 CURVE SMOOTH"
);
}
);
width = 664;
},
{
layerId = "2731C349-77E1-43A4-A9DD-A1DF19151D5D";
paths = (
{
closed = 1;
nodes = (
"502 -41 OFFCURVE",
"611 69 OFFCURVE",
"611 234 CURVE SMOOTH",
"611 402 OFFCURVE",
"508 509 OFFCURVE",
"346 509 CURVE SMOOTH",
"278 509 OFFCURVE",
"227 493 OFFCURVE",
"186 458 CURVE",
"207 449 LINE",
"218 579 OFFCURVE",
"269 637 OFFCURVE",
"386 637 CURVE SMOOTH",
"433 637 OFFCURVE",
"458 637 OFFCURVE",
"563 637 CURVE",
"563 769 LINE",
"493 769 OFFCURVE",
"440 769 OFFCURVE",
"382 769 CURVE SMOOTH",
"183 769 OFFCURVE",
"53 609 OFFCURVE",
"53 364 CURVE SMOOTH",
"53 105 OFFCURVE",
"155 -41 OFFCURVE",
"340 -41 CURVE SMOOTH"
);
},
{
closed = 1;
nodes = (
"271 143 OFFCURVE",
"223 181 OFFCURVE",
"223 234 CURVE SMOOTH",
"223 324 OFFCURVE",
"267 377 OFFCURVE",
"340 377 CURVE SMOOTH",
"414 377 OFFCURVE",
"458 324 OFFCURVE",
"458 234 CURVE SMOOTH",
"458 181 OFFCURVE",
"410 143 OFFCURVE",
"340 143 CURVE SMOOTH"
);
}
);
width = 664;
},
{
associatedMasterId = "C6C3B4F4-9047-4AEA-9672-C83927A9B560";
layerId = "D5EEC71B-CFA5-4825-AAF6-59B8B5507DDC";
name = "Color 7";
paths = (
{
closed = 1;
nodes = (
"487 -14 OFFCURVE",
"584 84 OFFCURVE",
"584 234 CURVE SMOOTH",
"584 387 OFFCURVE",
"493 482 OFFCURVE",
"346 482 CURVE SMOOTH",
"277 482 OFFCURVE",
"224 466 OFFCURVE",
"178 413 CURVE",
"188 597 OFFCURVE",
"256 664 OFFCURVE",
"386 664 CURVE SMOOTH",
"436 664 OFFCURVE",
"463 664 OFFCURVE",
"536 664 CURVE",
"536 742 LINE",
"478 742 OFFCURVE",
"432 742 OFFCURVE",
"382 742 CURVE SMOOTH",
"198 742 OFFCURVE",
"80 594 OFFCURVE",
"80 364 CURVE SMOOTH",
"80 118 OFFCURVE",
"172 -14 OFFCURVE",
"340 -14 CURVE SMOOTH"
);
},
{
closed = 1;
nodes = (
"252 116 OFFCURVE",
"196 168 OFFCURVE",
"196 234 CURVE SMOOTH",
"196 339 OFFCURVE",
"252 404 OFFCURVE",
"340 404 CURVE SMOOTH",
"429 404 OFFCURVE",
"485 339 OFFCURVE",
"485 234 CURVE SMOOTH",
"485 168 OFFCURVE",
"429 116 OFFCURVE",
"340 116 CURVE SMOOTH"
);
}
);
width = 664;
}
);
unicode = 0036;
},
{
color = 6;
glyphname = seven;
lastChange = "2019-09-06 18:58:39 +0000";
layers = (
{
layerId = "C6C3B4F4-9047-4AEA-9672-C83927A9B560";
paths = (
{
closed = 1;
nodes = (
"440 0 LINE",
"548 715 LINE",
"466 713 LINE",
"267 0 LINE"
);
},
{
closed = 1;
nodes = (
"548 715 LINE",
"83 727 LINE",
"80 656 LINE",
"532 639 LINE"
);
}
);
width = 628;
},
{
layerId = "2731C349-77E1-43A4-A9DD-A1DF19151D5D";
paths = (
{
closed = 1;
nodes = (
"463 -27 LINE",
"580 743 LINE",
"445 740 LINE",
"231 -27 LINE"
);
},
{
closed = 1;
nodes = (
"581 741 LINE",
"57 755 LINE",
"52 630 LINE",
"554 611 LINE"
);
}
);
width = 628;
},
{
associatedMasterId = "C6C3B4F4-9047-4AEA-9672-C83927A9B560";
layerId = "43BC29B4-E249-4931-8F54-FF3B5D9A0D28";
name = "Color 7";
paths = (
{
closed = 1;
nodes = (
"440 0 LINE",
"548 715 LINE",
"466 713 LINE",
"267 0 LINE"
);
},
{
closed = 1;
nodes = (
"548 715 LINE",
"83 727 LINE",
"80 656 LINE",
"532 639 LINE"
);
}
);
width = 628;
}
);
unicode = 0037;
},
{
color = 6;
glyphname = eight;
lastChange = "2019-09-06 18:58:39 +0000";
layers = (
{
layerId = "C6C3B4F4-9047-4AEA-9672-C83927A9B560";
paths = (
{
closed = 1;
nodes = (
"501 -14 OFFCURVE",
"600 64 OFFCURVE",
"600 205 CURVE SMOOTH",
"600 298 OFFCURVE",
"534 366 OFFCURVE",
"439 388 CURVE",
"523 409 OFFCURVE",
"563 470 OFFCURVE",
"563 553 CURVE SMOOTH",
"563 657 OFFCURVE",
"485 732 OFFCURVE",
"340 732 CURVE SMOOTH",
"195 732 OFFCURVE",
"117 657 OFFCURVE",
"117 553 CURVE SMOOTH",
"117 470 OFFCURVE",
"157 409 OFFCURVE",
"241 388 CURVE",
"146 366 OFFCURVE",
"80 298 OFFCURVE",
"80 205 CURVE SMOOTH",
"80 64 OFFCURVE",
"179 -14 OFFCURVE",
"340 -14 CURVE SMOOTH"
);
},
{
closed = 1;
nodes = (
"247 125 OFFCURVE",
"189 166 OFFCURVE",
"189 215 CURVE SMOOTH",
"189 303 OFFCURVE",
"246 356 OFFCURVE",
"340 356 CURVE SMOOTH",
"434 356 OFFCURVE",
"491 303 OFFCURVE",
"491 215 CURVE SMOOTH",
"491 167 OFFCURVE",
"435 125 OFFCURVE",
"341 125 CURVE SMOOTH"
);
},
{
closed = 1;
nodes = (
"255 437 OFFCURVE",
"205 498 OFFCURVE",
"205 573 CURVE SMOOTH",
"205 636 OFFCURVE",
"255 684 OFFCURVE",
"340 684 CURVE SMOOTH",
"424 684 OFFCURVE",
"475 636 OFFCURVE",
"475 573 CURVE SMOOTH",
"475 498 OFFCURVE",
"424 437 OFFCURVE",
"340 437 CURVE"
);
}
);
width = 680;
},
{
layerId = "2731C349-77E1-43A4-A9DD-A1DF19151D5D";
paths = (
{
closed = 1;
nodes = (
"518 -41 OFFCURVE",
"627 52 OFFCURVE",
"627 205 CURVE SMOOTH",
"627 348 OFFCURVE",
"491 446 OFFCURVE",
"297 441 CURVE",
"300 332 LINE",
"490 336 OFFCURVE",
"590 412 OFFCURVE",
"590 553 CURVE SMOOTH",
"590 679 OFFCURVE",
"492 759 OFFCURVE",
"340 759 CURVE SMOOTH",
"188 759 OFFCURVE",
"90 679 OFFCURVE",
"90 553 CURVE SMOOTH",
"90 412 OFFCURVE",
"190 336 OFFCURVE",
"380 332 CURVE",
"383 441 LINE",
"189 446 OFFCURVE",
"53 348 OFFCURVE",
"53 205 CURVE SMOOTH",
"53 52 OFFCURVE",
"162 -41 OFFCURVE",
"340 -41 CURVE SMOOTH"
);
},
{
closed = 1;
nodes = (
"267 152 OFFCURVE",
"216 180 OFFCURVE",
"216 215 CURVE SMOOTH",
"216 288 OFFCURVE",
"260 329 OFFCURVE",
"340 329 CURVE SMOOTH",
"420 329 OFFCURVE",
"464 288 OFFCURVE",
"464 215 CURVE SMOOTH",
"464 181 OFFCURVE",
"412 152 OFFCURVE",
"341 152 CURVE SMOOTH"
);
},
{
closed = 1;
nodes = (
"275 464 OFFCURVE",
"232 507 OFFCURVE",
"232 573 CURVE SMOOTH",
"232 623 OFFCURVE",
"274 657 OFFCURVE",
"340 657 CURVE SMOOTH",
"405 657 OFFCURVE",
"448 623 OFFCURVE",
"448 573 CURVE SMOOTH",
"448 508 OFFCURVE",
"404 464 OFFCURVE",
"340 464 CURVE SMOOTH"
);
}
);
width = 680;
},
{
associatedMasterId = "C6C3B4F4-9047-4AEA-9672-C83927A9B560";
layerId = "F4D30C65-2A3F-4DBD-91E0-A43306C327FA";
name = "Color 7";
paths = (
{
closed = 1;
nodes = (
"501 -14 OFFCURVE",
"600 64 OFFCURVE",
"600 205 CURVE SMOOTH",
"600 298 OFFCURVE",
"534 366 OFFCURVE",
"439 388 CURVE",
"523 409 OFFCURVE",
"563 470 OFFCURVE",
"563 553 CURVE SMOOTH",
"563 657 OFFCURVE",
"485 732 OFFCURVE",
"340 732 CURVE SMOOTH",
"195 732 OFFCURVE",
"117 657 OFFCURVE",
"117 553 CURVE SMOOTH",
"117 470 OFFCURVE",
"157 409 OFFCURVE",
"241 388 CURVE",
"146 366 OFFCURVE",
"80 298 OFFCURVE",
"80 205 CURVE SMOOTH",
"80 64 OFFCURVE",
"179 -14 OFFCURVE",
"340 -14 CURVE SMOOTH"
);
},
{
closed = 1;
nodes = (
"247 125 OFFCURVE",
"189 166 OFFCURVE",
"189 215 CURVE SMOOTH",
"189 303 OFFCURVE",
"246 356 OFFCURVE",
"340 356 CURVE SMOOTH",
"434 356 OFFCURVE",
"491 303 OFFCURVE",
"491 215 CURVE SMOOTH",
"491 167 OFFCURVE",
"435 125 OFFCURVE",
"341 125 CURVE SMOOTH"
);
},
{
closed = 1;
nodes = (
"255 437 OFFCURVE",
"205 498 OFFCURVE",
"205 573 CURVE SMOOTH",
"205 636 OFFCURVE",
"255 684 OFFCURVE",
"340 684 CURVE SMOOTH",
"424 684 OFFCURVE",
"475 636 OFFCURVE",
"475 573 CURVE SMOOTH",
"475 498 OFFCURVE",
"424 437 OFFCURVE",
"340 437 CURVE"
);
}
);
width = 680;
}
);
unicode = 0038;
},
{
color = 6;
glyphname = nine;
lastChange = "2019-09-06 18:58:39 +0000";
layers = (
{
layerId = "C6C3B4F4-9047-4AEA-9672-C83927A9B560";
paths = (
{
closed = 1;
nodes = (
"469 -13 OFFCURVE",
"583 0 OFFCURVE",
"583 364 CURVE SMOOTH",
"583 643 OFFCURVE",
"492 742 OFFCURVE",
"323 742 CURVE SMOOTH",
"176 742 OFFCURVE",
"80 644 OFFCURVE",
"80 494 CURVE SMOOTH",
"80 341 OFFCURVE",
"171 247 OFFCURVE",
"317 247 CURVE SMOOTH",
"387 247 OFFCURVE",
"433 258 OFFCURVE",
"485 274 CURVE",
"475 121 OFFCURVE",
"417 118 OFFCURVE",
"317 118 CURVE SMOOTH",
"272 118 OFFCURVE",
"194 128 OFFCURVE",
"139 142 CURVE",
"116 7 LINE",
"177 -6 OFFCURVE",
"236 -13 OFFCURVE",
"285 -13 CURVE SMOOTH"
);
},
{
closed = 1;
nodes = (
"201 341 OFFCURVE",
"139 404 OFFCURVE",
"139 510 CURVE SMOOTH",
"139 615 OFFCURVE",
"207 680 OFFCURVE",
"315 680 CURVE SMOOTH",
"423 680 OFFCURVE",
"490 628 OFFCURVE",
"490 510 CURVE SMOOTH",
"490 384 OFFCURVE",
"417 341 OFFCURVE",
"309 341 CURVE"
);
}
);
width = 663;
},
{
layerId = "2731C349-77E1-43A4-A9DD-A1DF19151D5D";
paths = (
{
closed = 1;
nodes = (
"471 -40 OFFCURVE",
"610 -24 OFFCURVE",
"610 364 CURVE SMOOTH",
"610 640 OFFCURVE",
"520 769 OFFCURVE",
"323 769 CURVE SMOOTH",
"161 769 OFFCURVE",
"53 659 OFFCURVE",
"53 494 CURVE SMOOTH",
"53 327 OFFCURVE",
"156 220 OFFCURVE",
"317 220 CURVE SMOOTH",
"371 220 OFFCURVE",
"415 226 OFFCURVE",
"465 240 CURVE",
"456 248 LINE",
"446 147 OFFCURVE",
"413 145 OFFCURVE",
"317 145 CURVE SMOOTH",
"268 145 OFFCURVE",
"177 158 OFFCURVE",
"117 174 CURVE",
"85 -15 LINE",
"158 -31 OFFCURVE",
"230 -40 OFFCURVE",
"285 -40 CURVE SMOOTH"
);
},
{
closed = 1;
nodes = (
"216 368 OFFCURVE",
"166 418 OFFCURVE",
"166 510 CURVE SMOOTH",
"166 600 OFFCURVE",
"221 653 OFFCURVE",
"315 653 CURVE SMOOTH",
"415 653 OFFCURVE",
"463 606 OFFCURVE",
"463 510 CURVE SMOOTH",
"463 411 OFFCURVE",
"416 368 OFFCURVE",
"309 368 CURVE SMOOTH"
);
}
);
width = 663;
},
{
associatedMasterId = "C6C3B4F4-9047-4AEA-9672-C83927A9B560";
layerId = "18556516-F3D0-4145-8D88-B764D12D745F";
name = "Color 7";
paths = (
{
closed = 1;
nodes = (
"469 -13 OFFCURVE",
"583 0 OFFCURVE",
"583 364 CURVE SMOOTH",
"583 643 OFFCURVE",
"492 742 OFFCURVE",
"323 742 CURVE SMOOTH",
"176 742 OFFCURVE",
"80 644 OFFCURVE",
"80 494 CURVE SMOOTH",
"80 341 OFFCURVE",
"171 247 OFFCURVE",
"317 247 CURVE SMOOTH",
"387 247 OFFCURVE",
"433 258 OFFCURVE",
"485 274 CURVE",
"475 121 OFFCURVE",
"417 118 OFFCURVE",
"317 118 CURVE SMOOTH",
"272 118 OFFCURVE",
"194 128 OFFCURVE",
"139 142 CURVE",
"116 7 LINE",
"177 -6 OFFCURVE",
"236 -13 OFFCURVE",
"285 -13 CURVE SMOOTH"
);
},
{
closed = 1;
nodes = (
"201 341 OFFCURVE",
"139 404 OFFCURVE",
"139 510 CURVE SMOOTH",
"139 615 OFFCURVE",
"207 680 OFFCURVE",
"315 680 CURVE SMOOTH",
"423 680 OFFCURVE",
"490 628 OFFCURVE",
"490 510 CURVE SMOOTH",
"490 384 OFFCURVE",
"417 341 OFFCURVE",
"309 341 CURVE"
);
}
);
width = 663;
}
);
unicode = 0039;
},
{
glyphname = fraction;
lastChange = "2019-09-06 19:16:06 +0000";
layers = (
{
anchors = (
{
name = denom;
position = "{338, 111}";
},
{
name = num;
position = "{344, 732}";
}
);
layerId = "C6C3B4F4-9047-4AEA-9672-C83927A9B560";
paths = (
{
closed = 1;
nodes = (
"-17 422 LINE",
"-17 358 LINE",
"689 331 LINE",
"685 435 LINE"
);
}
);
width = 713;
},
{
anchors = (
{
name = denom;
position = "{354, 62}";
},
{
name = num;
position = "{351, 752}";
}
);
layerId = "2731C349-77E1-43A4-A9DD-A1DF19151D5D";
paths = (
{
closed = 1;
nodes = (
"-5 452 LINE",
"-5 291 LINE",
"711 302 LINE",
"691 469 LINE"
);
}
);
width = 713;
}
);
unicode = 2044;
},
{
glyphname = period;
lastChange = "2019-09-06 18:58:39 +0000";
layers = (
{
layerId = "C6C3B4F4-9047-4AEA-9672-C83927A9B560";
paths = (
{
closed = 1;
nodes = (
"196 -5 LINE",
"196 116 LINE",
"65 116 LINE",
"65 -5 LINE"
);
}
);
width = 261;
},
{
layerId = "2731C349-77E1-43A4-A9DD-A1DF19151D5D";
paths = (
{
closed = 1;
nodes = (
"208 -27 LINE",
"208 128 LINE",
"53 128 LINE",
"53 -27 LINE"
);
}
);
width = 261;
}
);
unicode = 002E;
},
{
glyphname = comma;
lastChange = "2019-09-06 18:58:39 +0000";
layers = (
{
layerId = "C6C3B4F4-9047-4AEA-9672-C83927A9B560";
paths = (
{
closed = 1;
nodes = (
"194 -132 LINE",
"262 115 LINE",
"157 115 LINE",
"68 -132 LINE"
);
},
{
closed = 1;
nodes = (
"224 10 LINE",
"224 115 LINE",
"118 115 LINE",
"105 10 LINE"
);
}
);
width = 321;
},
{
layerId = "2731C349-77E1-43A4-A9DD-A1DF19151D5D";
paths = (
{
closed = 1;
nodes = (
"41 -154 LINE",
"195 -154 LINE",
"277 133 LINE",
"146 133 LINE"
);
},
{
closed = 1;
nodes = (
"103 -8 LINE",
"237 -8 LINE",
"237 133 LINE",
"104 133 LINE"
);
}
);
width = 321;
}
);
unicode = 002C;
},
{
glyphname = exclam;
lastChange = "2019-09-06 18:58:39 +0000";
layers = (
{
components = (
{
name = period;
transform = "{1.24469, 0, 0, 1.24469, -20, 0}";
}
);
layerId = "C6C3B4F4-9047-4AEA-9672-C83927A9B560";
paths = (
{
closed = 1;
nodes = (
"267 285 LINE",
"267 806 LINE",
"127 806 LINE",
"69 234 LINE"
);
}
);
width = 337;
},
{
components = (
{
name = period;
transform = "{1.24469, 0, 0, 1.24469, -10, -20}";
}
);
layerId = "2731C349-77E1-43A4-A9DD-A1DF19151D5D";
paths = (
{
closed = 1;
nodes = (
"49 206 LINE",
"284 267 LINE",
"284 828 LINE",
"112 828 LINE"
);
}
);
width = 337;
}
);
unicode = 0021;
},
{
glyphname = question;
lastChange = "2019-09-06 18:58:39 +0000";
layers = (
{
components = (
{
name = period;
transform = "{1, 0, 0, 1, 106, 4}";
}
);
layerId = "C6C3B4F4-9047-4AEA-9672-C83927A9B560";
paths = (
{
closed = 1;
nodes = (
"230 159 OFFCURVE",
"304 174 OFFCURVE",
"304 185 CURVE SMOOTH",
"304 215 OFFCURVE",
"304 223 OFFCURVE",
"304 342 CURVE",
"388 381 OFFCURVE",
"416 428 OFFCURVE",
"416 528 CURVE SMOOTH",
"416 612 OFFCURVE",
"374 666 OFFCURVE",
"294 684 CURVE SMOOTH",
"229 699 OFFCURVE",
"136 696 OFFCURVE",
"73 628 CURVE",
"73 621 LINE",
"104 591 OFFCURVE",
"104 591 OFFCURVE",
"125 562 CURVE",
"178 624 OFFCURVE",
"208 626 OFFCURVE",
"278 611 CURVE SMOOTH",
"315 604 OFFCURVE",
"335 571 OFFCURVE",
"335 517 CURVE SMOOTH",
"335 449 OFFCURVE",
"301 439 OFFCURVE",
"178 395 CURVE",
"171 390 LINE",
"171 349 OFFCURVE",
"171 329 OFFCURVE",
"171 272 CURVE SMOOTH",
"171 224 OFFCURVE",
"171 185 OFFCURVE",
"171 149 CURVE"
);
}
);
width = 486;
},
{
components = (
{
name = period;
transform = "{1, 0, 0, 1, 294, 4}";
}
);
layerId = "2731C349-77E1-43A4-A9DD-A1DF19151D5D";
paths = (
{
closed = 1;
nodes = (
"371 168 OFFCURVE",
"509 188 OFFCURVE",
"509 245 CURVE SMOOTH",
"509 274 OFFCURVE",
"509 222 OFFCURVE",
"509 327 CURVE",
"591 368 OFFCURVE",
"621 423 OFFCURVE",
"621 528 CURVE SMOOTH",
"621 622 OFFCURVE",
"573 685 OFFCURVE",
"486 705 CURVE SMOOTH",
"393 727 OFFCURVE",
"306 705 OFFCURVE",
"248 643 CURVE",
"249 606 LINE",
"287 569 OFFCURVE",
"279 576 OFFCURVE",
"313 532 CURVE",
"364 595 OFFCURVE",
"382 606 OFFCURVE",
"463 590 CURVE SMOOTH",
"491 584 OFFCURVE",
"506 561 OFFCURVE",
"506 517 CURVE SMOOTH",
"506 467 OFFCURVE",
"485 461 OFFCURVE",
"360 415 CURVE",
"342 390 LINE",
"342 349 OFFCURVE",
"342 328 OFFCURVE",
"342 272 CURVE SMOOTH",
"342 201 OFFCURVE",
"342 229 OFFCURVE",
"342 172 CURVE"
);
}
);
width = 861;
}
);
unicode = 003F;
},
{
glyphname = asterisk;
lastChange = "2019-09-06 18:58:39 +0000";
layers = (
{
layerId = "C6C3B4F4-9047-4AEA-9672-C83927A9B560";
paths = (
{
closed = 1;
nodes = (
"372 298 LINE",
"355 456 LINE",
"510 362 LINE",
"566 440 LINE",
"374 515 LINE",
"545 608 LINE",
"535 690 LINE",
"353 572 LINE",
"353 750 LINE",
"258 726 LINE",
"275 572 LINE",
"119 667 LINE",
"69 587 LINE",
"256 513 LINE",
"84 420 LINE",
"141 341 LINE",
"277 453 LINE",
"277 279 LINE"
);
}
);
width = 635;
},
{
layerId = "2731C349-77E1-43A4-A9DD-A1DF19151D5D";
paths = (
{
closed = 1;
nodes = (
"391 281 LINE",
"376 419 LINE",
"515 335 LINE",
"598 450 LINE",
"424 518 LINE",
"565 594 LINE",
"546 722 LINE",
"370 608 LINE",
"370 774 LINE",
"239 745 LINE",
"254 609 LINE",
"116 693 LINE",
"38 576 LINE",
"206 510 LINE",
"57 429 LINE",
"137 312 LINE",
"260 413 LINE",
"260 252 LINE"
);
}
);
width = 635;
}
);
unicode = 002A;
},
{
glyphname = caretSign;
lastChange = "2019-09-06 18:58:39 +0000";
layers = (
{
layerId = "C6C3B4F4-9047-4AEA-9672-C83927A9B560";
paths = (
{
closed = 1;
nodes = (
"204 -87 LINE",
"63 -200 LINE",
"209 -200 LINE",
"277 -107 LINE",
"345 -200 LINE",
"493 -200 LINE",
"353 -87 LINE",
"312 -20 LINE",
"250 -20 LINE"
);
}
);
width = 556;
},
{
layerId = "2731C349-77E1-43A4-A9DD-A1DF19151D5D";
paths = (
{
closed = 1;
nodes = (
"193 -70 LINE",
"3 -222 LINE",
"216 -222 LINE",
"277 -139 LINE",
"338 -222 LINE",
"553 -222 LINE",
"365 -71 LINE",
"320 2 LINE",
"243 2 LINE"
);
}
);
width = 556;
}
);
unicode = 2038;
},
{
glyphname = numbersign;
lastChange = "2019-09-06 18:58:39 +0000";
layers = (
{
layerId = "C6C3B4F4-9047-4AEA-9672-C83927A9B560";
paths = (
{
closed = 1;
nodes = (
"257 -51 LINE",
"416 -51 LINE",
"490 813 LINE",
"385 813 LINE"
);
},
{
closed = 1;
nodes = (
"109 249 LINE",
"68 153 LINE",
"1013 153 LINE",
"1040 249 LINE"
);
},
{
closed = 1;
nodes = (
"123 578 LINE",
"93 482 LINE",
"1037 482 LINE",
"1070 578 LINE"
);
},
{
closed = 1;
nodes = (
"570 -49 LINE",
"716 -49 LINE",
"790 815 LINE",
"685 815 LINE"
);
}
);
width = 1138;
},
{
layerId = "2731C349-77E1-43A4-A9DD-A1DF19151D5D";
paths = (
{
closed = 1;
nodes = (
"187 -73 LINE",
"381 -73 LINE",
"459 835 LINE",
"321 835 LINE"
);
},
{
closed = 1;
nodes = (
"49 271 LINE",
"-11 131 LINE",
"974 131 LINE",
"1015 271 LINE"
);
},
{
closed = 1;
nodes = (
"61 600 LINE",
"19 460 LINE",
"998 460 LINE",
"1046 600 LINE"
);
},
{
closed = 1;
nodes = (
"500 -71 LINE",
"681 -71 LINE",
"759 837 LINE",
"620 837 LINE"
);
}
);
width = 1038;
}
);
unicode = 0023;
},
{
glyphname = slash;
lastChange = "2019-09-06 18:58:39 +0000";
layers = (
{
layerId = "C6C3B4F4-9047-4AEA-9672-C83927A9B560";
paths = (
{
closed = 1;
nodes = (
"232 -33 LINE",
"442 748 LINE",
"327 689 LINE",
"64 -156 LINE"
);
}
);
width = 508;
},
{
layerId = "2731C349-77E1-43A4-A9DD-A1DF19151D5D";
paths = (
{
closed = 1;
nodes = (
"246 -48 LINE",
"470 786 LINE",
"314 706 LINE",
"30 -206 LINE"
);
}
);
width = 508;
}
);
unicode = 002F;
},
{
glyphname = backslash;
lastChange = "2019-09-06 18:58:39 +0000";
layers = (
{
layerId = "C6C3B4F4-9047-4AEA-9672-C83927A9B560";
paths = (
{
closed = 1;
nodes = (
"70 634 LINE",
"323 -206 LINE",
"402 -20 LINE",
"98 802 LINE"
);
}
);
width = 472;
},
{
layerId = "2731C349-77E1-43A4-A9DD-A1DF19151D5D";
paths = (
{
closed = 1;
nodes = (
"52 632 LINE",
"321 -257 LINE",
"421 -21 LINE",
"92 870 LINE"
);
}
);
width = 472;
}
);
unicode = 005C;
},
{
glyphname = triangularbullet;
lastChange = "2019-09-06 18:58:39 +0000";
layers = (
{
layerId = "C6C3B4F4-9047-4AEA-9672-C83927A9B560";
paths = (
{
closed = 1;
nodes = (
"70 191 LINE SMOOTH",
"70 159 OFFCURVE",
"97 146 OFFCURVE",
"126 161 CURVE SMOOTH",
"299 249 LINE SMOOTH",
"331 265 OFFCURVE",
"331 289 OFFCURVE",
"299 305 CURVE SMOOTH",
"127 396 LINE SMOOTH",
"98 412 OFFCURVE",
"70 398 OFFCURVE",
"70 367 CURVE SMOOTH"
);
}
);
width = 393;
},
{
layerId = "2731C349-77E1-43A4-A9DD-A1DF19151D5D";
paths = (
{
closed = 1;
nodes = (
"157 191 LINE SMOOTH",
"157 143 OFFCURVE",
"195 119 OFFCURVE",
"237 141 CURVE SMOOTH",
"410 229 LINE SMOOTH",
"455 252 OFFCURVE",
"455 302 OFFCURVE",
"411 325 CURVE SMOOTH",
"239 416 LINE SMOOTH",
"197 438 OFFCURVE",
"157 415 OFFCURVE",
"157 367 CURVE SMOOTH"
);
}
);
width = 600;
}
);
unicode = 2023;
},
{
glyphname = asterisk.ss01;
lastChange = "2019-09-06 18:58:39 +0000";
layers = (
{
layerId = "C6C3B4F4-9047-4AEA-9672-C83927A9B560";
paths = (
{
closed = 1;
nodes = (
"262 375 LINE",
"397 375 LINE",
"397 883 LINE",
"262 883 LINE"
);
},
{
closed = 1;
nodes = (
"353 849 LINE",
"353 409 LINE",
"306 409 LINE",
"306 849 LINE"
);
},
{
closed = 1;
nodes = (
"319 825 LINE",
"319 433 LINE",
"340 433 LINE",
"340 825 LINE"
);
},
{
closed = 1;
nodes = (
"298 429 LINE",
"361 429 LINE",
"361 829 LINE",
"298 829 LINE"
);
},
{
closed = 1;
nodes = (
"194 857 LINE",
"102 765 LINE",
"465 402 LINE",
"557 494 LINE"
);
},
{
closed = 1;
nodes = (
"465 458 LINE",
"158 765 LINE",
"194 801 LINE",
"501 494 LINE"
);
},
{
closed = 1;
nodes = (
"476 495 LINE",
"195 776 LINE",
"183 764 LINE",
"464 483 LINE"
);
},
{
closed = 1;
nodes = (
"206 794 LINE",
"165 753 LINE",
"453 465 LINE",
"494 506 LINE"
);
},
{
closed = 1;
nodes = (
"102 494 LINE",
"194 402 LINE",
"557 764 LINE",
"465 856 LINE"
);
},
{
closed = 1;
nodes = (
"501 764 LINE",
"194 458 LINE",
"158 494 LINE",
"465 800 LINE"
);
},
{
closed = 1;
nodes = (
"464 775 LINE",
"183 495 LINE",
"195 483 LINE",
"476 763 LINE"
);
},
{
closed = 1;
nodes = (
"165 506 LINE",
"206 465 LINE",
"494 752 LINE",
"453 793 LINE"
);
},
{
closed = 1;
nodes = (
"588 569 LINE",
"588 692 LINE",
"70 692 LINE",
"70 569 LINE"
);
},
{
closed = 1;
nodes = (
"114 658 LINE",
"544 658 LINE",
"544 603 LINE",
"114 603 LINE"
);
},
{
closed = 1;
nodes = (
"128 624 LINE",
"530 624 LINE",
"530 637 LINE",
"128 637 LINE"
);
},
{
closed = 1;
nodes = (
"534 605 LINE",
"534 656 LINE",
"124 656 LINE",
"124 605 LINE"
);
}
);
width = 658;
},
{
layerId = "2731C349-77E1-43A4-A9DD-A1DF19151D5D";
paths = (
{
closed = 1;
nodes = (
"245 353 LINE",
"414 353 LINE",
"414 905 LINE",
"245 905 LINE"
);
},
{
closed = 1;
nodes = (
"336 827 LINE",
"336 431 LINE",
"323 431 LINE",
"323 827 LINE"
);
},
{
closed = 1;
nodes = (
"302 847 LINE",
"302 411 LINE",
"357 411 LINE",
"357 847 LINE"
);
},
{
closed = 1;
nodes = (
"281 407 LINE",
"378 407 LINE",
"378 851 LINE",
"281 851 LINE"
);
},
{
closed = 1;
nodes = (
"194 884 LINE",
"75 765 LINE",
"465 375 LINE",
"584 494 LINE"
);
},
{
closed = 1;
nodes = (
"465 485 LINE",
"185 765 LINE",
"194 774 LINE",
"474 494 LINE"
);
},
{
closed = 1;
nodes = (
"503 495 LINE",
"195 803 LINE",
"156 764 LINE",
"464 456 LINE"
);
},
{
closed = 1;
nodes = (
"206 821 LINE",
"138 753 LINE",
"453 438 LINE",
"521 506 LINE"
);
},
{
closed = 1;
nodes = (
"75 494 LINE",
"194 375 LINE",
"584 764 LINE",
"465 883 LINE"
);
},
{
closed = 1;
nodes = (
"474 764 LINE",
"194 485 LINE",
"185 494 LINE",
"465 773 LINE"
);
},
{
closed = 1;
nodes = (
"464 802 LINE",
"156 495 LINE",
"195 456 LINE",
"503 763 LINE"
);
},
{
closed = 1;
nodes = (
"138 506 LINE",
"206 438 LINE",
"521 752 LINE",
"453 820 LINE"
);
},
{
closed = 1;
nodes = (
"605 547 LINE",
"605 714 LINE",
"53 714 LINE",
"53 547 LINE"
);
},
{
closed = 1;
nodes = (
"131 636 LINE",
"527 636 LINE",
"527 625 LINE",
"131 625 LINE"
);
},
{
closed = 1;
nodes = (
"111 602 LINE",
"547 602 LINE",
"547 659 LINE",
"111 659 LINE"
);
},
{
closed = 1;
nodes = (
"551 583 LINE",
"551 678 LINE",
"107 678 LINE",
"107 583 LINE"
);
}
);
width = 658;
}
);
},
{
glyphname = period.ss03;
lastChange = "2019-09-06 18:58:39 +0000";
layers = (
{
layerId = "C6C3B4F4-9047-4AEA-9672-C83927A9B560";
paths = (
{
closed = 1;
nodes = (
"70 -5 LINE",
"191 -5 LINE",
"191 106 LINE",
"70 106 LINE"
);
}
);
width = 261;
},
{
layerId = "2731C349-77E1-43A4-A9DD-A1DF19151D5D";
paths = (
{
closed = 1;
nodes = (
"53 -27 LINE",
"208 -27 LINE",
"208 128 LINE",
"53 128 LINE"
);
}
);
width = 261;
},
{
associatedMasterId = "C6C3B4F4-9047-4AEA-9672-C83927A9B560";
layerId = "A4298C42-122E-4BAC-B334-CA56510B8238";
name = "Color 0";
paths = (
{
closed = 1;
nodes = (
"80 0 LINE",
"181 0 LINE",
"181 101 LINE",
"80 101 LINE"
);
}
);
width = 261;
},
{
associatedMasterId = "2731C349-77E1-43A4-A9DD-A1DF19151D5D";
layerId = "D540FACB-D430-4E82-AD6B-EE8820AC5B7D";
name = "Color 0";
paths = (
{
closed = 1;
nodes = (
"53 -27 LINE",
"208 -27 LINE",
"208 128 LINE",
"53 128 LINE"
);
}
);
width = 261;
}
);
},
{
glyphname = comma.ss03;
lastChange = "2019-09-06 18:58:39 +0000";
layers = (
{
layerId = "C6C3B4F4-9047-4AEA-9672-C83927A9B560";
paths = (
{
closed = 1;
nodes = (
"184 -132 LINE",
"252 111 LINE",
"157 111 LINE",
"68 -132 LINE"
);
},
{
closed = 1;
nodes = (
"220 14 LINE",
"220 111 LINE",
"121 111 LINE",
"120 14 LINE"
);
}
);
width = 321;
},
{
layerId = "2731C349-77E1-43A4-A9DD-A1DF19151D5D";
paths = (
{
closed = 1;
nodes = (
"41 -154 LINE",
"195 -154 LINE",
"277 133 LINE",
"146 133 LINE"
);
},
{
closed = 1;
nodes = (
"103 -8 LINE",
"237 -8 LINE",
"237 133 LINE",
"104 133 LINE"
);
}
);
width = 321;
},
{
associatedMasterId = "C6C3B4F4-9047-4AEA-9672-C83927A9B560";
layerId = "0EC81D48-638E-412E-B8F3-A10D5C8EBAC5";
name = "Color 0";
paths = (
{
closed = 1;
nodes = (
"80 -127 LINE",
"175 -127 LINE",
"241 106 LINE",
"165 106 LINE"
);
},
{
closed = 1;
nodes = (
"130 19 LINE",
"210 19 LINE",
"210 106 LINE",
"131 106 LINE"
);
}
);
width = 321;
}
);
},
{
glyphname = exclam.ss03;
lastChange = "2019-09-06 18:58:39 +0000";
layers = (
{
components = (
{
name = period;
transform = "{1.24469, 0, 0, 1.24469, -20, 0}";
}
);
layerId = "C6C3B4F4-9047-4AEA-9672-C83927A9B560";
paths = (
{
closed = 1;
nodes = (
"69 234 LINE",
"267 285 LINE",
"267 806 LINE",
"127 806 LINE"
);
}
);
width = 337;
},
{
components = (
{
name = period;
transform = "{1.24469, 0, 0, 1.24469, -10, -20}";
}
);
layerId = "2731C349-77E1-43A4-A9DD-A1DF19151D5D";
paths = (
{
closed = 1;
nodes = (
"49 206 LINE",
"284 267 LINE",
"284 828 LINE",
"112 828 LINE"
);
}
);
width = 337;
},
{
associatedMasterId = "C6C3B4F4-9047-4AEA-9672-C83927A9B560";
components = (
{
name = period;
transform = "{1.24469, 0, 0, 1.24469, -20, 0}";
}
);
layerId = "6712A670-5C7E-4E06-9DEF-D281C8ED88BE";
name = "Color 0";
paths = (
{
closed = 1;
nodes = (
"80 242 LINE",
"257 288 LINE",
"257 801 LINE",
"136 801 LINE"
);
}
);
width = 337;
}
);
},
{
glyphname = question.ss03;
lastChange = "2019-09-06 18:58:39 +0000";
layers = (
{
components = (
{
name = period;
transform = "{1, 0, 0, 1, 106, 4}";
}
);
layerId = "C6C3B4F4-9047-4AEA-9672-C83927A9B560";
paths = (
{
closed = 1;
nodes = (
"230 159 OFFCURVE",
"304 174 OFFCURVE",
"304 185 CURVE SMOOTH",
"304 215 OFFCURVE",
"304 223 OFFCURVE",
"304 342 CURVE",
"388 381 OFFCURVE",
"416 428 OFFCURVE",
"416 528 CURVE SMOOTH",
"416 612 OFFCURVE",
"374 666 OFFCURVE",
"294 684 CURVE SMOOTH",
"229 699 OFFCURVE",
"136 696 OFFCURVE",
"73 628 CURVE",
"73 621 LINE",
"104 591 OFFCURVE",
"104 591 OFFCURVE",
"125 562 CURVE",
"178 624 OFFCURVE",
"208 626 OFFCURVE",
"278 611 CURVE SMOOTH",
"315 604 OFFCURVE",
"335 571 OFFCURVE",
"335 517 CURVE SMOOTH",
"335 449 OFFCURVE",
"301 439 OFFCURVE",
"178 395 CURVE",
"171 390 LINE",
"171 349 OFFCURVE",
"171 329 OFFCURVE",
"171 272 CURVE SMOOTH",
"171 224 OFFCURVE",
"171 185 OFFCURVE",
"171 149 CURVE"
);
}
);
width = 486;
},
{
components = (
{
name = period;
transform = "{1, 0, 0, 1, 294, 4}";
}
);
layerId = "2731C349-77E1-43A4-A9DD-A1DF19151D5D";
paths = (
{
closed = 1;
nodes = (
"371 168 OFFCURVE",
"509 188 OFFCURVE",
"509 245 CURVE SMOOTH",
"509 274 OFFCURVE",
"509 222 OFFCURVE",
"509 327 CURVE",
"591 368 OFFCURVE",
"621 423 OFFCURVE",
"621 528 CURVE SMOOTH",
"621 622 OFFCURVE",
"573 685 OFFCURVE",
"486 705 CURVE SMOOTH",
"393 727 OFFCURVE",
"306 705 OFFCURVE",
"248 643 CURVE",
"249 606 LINE",
"287 569 OFFCURVE",
"279 576 OFFCURVE",
"313 532 CURVE",
"364 595 OFFCURVE",
"382 606 OFFCURVE",
"463 590 CURVE SMOOTH",
"491 584 OFFCURVE",
"506 561 OFFCURVE",
"506 517 CURVE SMOOTH",
"506 467 OFFCURVE",
"485 461 OFFCURVE",
"360 415 CURVE",
"342 390 LINE",
"342 349 OFFCURVE",
"342 328 OFFCURVE",
"342 272 CURVE SMOOTH",
"342 201 OFFCURVE",
"342 229 OFFCURVE",
"342 172 CURVE"
);
}
);
width = 861;
},
{
associatedMasterId = "C6C3B4F4-9047-4AEA-9672-C83927A9B560";
components = (
{
name = period;
transform = "{1, 0, 0, 1, 114, 25}";
}
);
layerId = "43477A05-53FB-480F-96C2-0395F0BDFD7E";
name = "Color 0";
paths = (
{
closed = 1;
nodes = (
"230 184 OFFCURVE",
"302 199 OFFCURVE",
"302 206 CURVE",
"302 236 OFFCURVE",
"302 244 OFFCURVE",
"302 365 CURVE",
"376 398 OFFCURVE",
"414 437 OFFCURVE",
"414 549 CURVE SMOOTH",
"414 621 OFFCURVE",
"383 681 OFFCURVE",
"300 700 CURVE SMOOTH",
"236 715 OFFCURVE",
"150 712 OFFCURVE",
"88 646 CURVE",
"115 620 OFFCURVE",
"120 615 OFFCURVE",
"134 596 CURVE",
"183 650 OFFCURVE",
"221 650 OFFCURVE",
"288 637 CURVE SMOOTH",
"333 628 OFFCURVE",
"353 591 OFFCURVE",
"353 538 CURVE SMOOTH",
"353 467 OFFCURVE",
"313 456 OFFCURVE",
"189 411 CURVE",
"189 371 OFFCURVE",
"189 350 OFFCURVE",
"189 293 CURVE SMOOTH",
"189 248 OFFCURVE",
"189 211 OFFCURVE",
"189 177 CURVE"
);
}
);
width = 486;
}
);
},
{
glyphname = asterisk.ss03;
lastChange = "2019-09-06 18:58:39 +0000";
layers = (
{
layerId = "C6C3B4F4-9047-4AEA-9672-C83927A9B560";
paths = (
{
closed = 1;
nodes = (
"372 298 LINE",
"355 456 LINE",
"510 362 LINE",
"566 440 LINE",
"374 515 LINE",
"545 608 LINE",
"535 690 LINE",
"353 572 LINE",
"353 750 LINE",
"258 726 LINE",
"275 572 LINE",
"119 667 LINE",
"69 587 LINE",
"256 513 LINE",
"84 420 LINE",
"141 341 LINE",
"277 453 LINE",
"277 279 LINE"
);
}
);
width = 635;
},
{
layerId = "2731C349-77E1-43A4-A9DD-A1DF19151D5D";
paths = (
{
closed = 1;
nodes = (
"391 281 LINE",
"376 419 LINE",
"515 335 LINE",
"598 450 LINE",
"424 518 LINE",
"565 594 LINE",
"546 722 LINE",
"370 608 LINE",
"370 774 LINE",
"239 745 LINE",
"254 609 LINE",
"116 693 LINE",
"38 576 LINE",
"206 510 LINE",
"57 429 LINE",
"137 312 LINE",
"260 413 LINE",
"260 252 LINE"
);
}
);
width = 635;
},
{
associatedMasterId = "C6C3B4F4-9047-4AEA-9672-C83927A9B560";
layerId = "8DC464E4-55F0-4FA2-A456-A0CE341B2405";
name = "Color 0";
paths = (
{
closed = 1;
nodes = (
"362 301 LINE",
"343 470 LINE",
"507 371 LINE",
"555 438 LINE",
"360 514 LINE",
"535 609 LINE",
"527 677 LINE",
"343 558 LINE",
"343 742 LINE",
"268 723 LINE",
"287 558 LINE",
"123 657 LINE",
"80 589 LINE",
"270 514 LINE",
"95 419 LINE",
"143 352 LINE",
"287 470 LINE",
"287 286 LINE"
);
}
);
width = 635;
}
);
},
{
glyphname = slash.ss03;
lastChange = "2019-09-06 18:58:39 +0000";
layers = (
{
layerId = "C6C3B4F4-9047-4AEA-9672-C83927A9B560";
paths = (
{
closed = 1;
nodes = (
"232 -33 LINE",
"442 748 LINE",
"327 689 LINE",
"64 -156 LINE"
);
}
);
width = 508;
},
{
layerId = "2731C349-77E1-43A4-A9DD-A1DF19151D5D";
paths = (
{
closed = 1;
nodes = (
"246 -48 LINE",
"470 786 LINE",
"314 706 LINE",
"30 -206 LINE"
);
}
);
width = 508;
},
{
associatedMasterId = "C6C3B4F4-9047-4AEA-9672-C83927A9B560";
layerId = "7F5915FD-37A9-47B1-B7F5-E4F6743BBEFE";
name = "Color 0";
paths = (
{
closed = 1;
nodes = (
"80 -136 LINE",
"222 -32 LINE",
"428 734 LINE",
"336 687 LINE"
);
}
);
width = 508;
}
);
},
{
glyphname = backslash.ss03;
lastChange = "2019-09-06 18:58:39 +0000";
layers = (
{
layerId = "C6C3B4F4-9047-4AEA-9672-C83927A9B560";
paths = (
{
closed = 1;
nodes = (
"70 634 LINE",
"323 -206 LINE",
"402 -20 LINE",
"98 802 LINE"
);
}
);
width = 472;
},
{
layerId = "2731C349-77E1-43A4-A9DD-A1DF19151D5D";
paths = (
{
closed = 1;
nodes = (
"52 632 LINE",
"321 -257 LINE",
"421 -21 LINE",
"92 870 LINE"
);
}
);
width = 472;
},
{
associatedMasterId = "C6C3B4F4-9047-4AEA-9672-C83927A9B560";
layerId = "EA9F4648-0D88-4065-94E9-0F3720A8C369";
name = "Color 0";
paths = (
{
closed = 1;
nodes = (
"80 634 LINE",
"325 -178 LINE",
"392 -20 LINE",
"102 765 LINE"
);
}
);
width = 472;
}
);
},
{
glyphname = parenleft;
lastChange = "2019-09-06 18:58:39 +0000";
layers = (
{
layerId = "C6C3B4F4-9047-4AEA-9672-C83927A9B560";
paths = (
{
closed = 1;
nodes = (
"226 -52 OFFCURVE",
"196 188 OFFCURVE",
"190 342 CURVE",
"196 494 OFFCURVE",
"269 664 OFFCURVE",
"370 804 CURVE",
"273 813 LINE",
"156 662 OFFCURVE",
"82 493 OFFCURVE",
"70 350 CURVE",
"70 203 OFFCURVE",
"112 -35 OFFCURVE",
"178 -197 CURVE",
"302 -206 LINE"
);
}
);
width = 437;
},
{
layerId = "2731C349-77E1-43A4-A9DD-A1DF19151D5D";
paths = (
{
closed = 1;
nodes = (
"249 -29 OFFCURVE",
"215 156 OFFCURVE",
"207 342 CURVE",
"207 342 LINE",
"212 465 OFFCURVE",
"264 609 OFFCURVE",
"402 821 CURVE",
"267 836 LINE",
"110 639 OFFCURVE",
"24 398 OFFCURVE",
"59 234 CURVE",
"75 82 OFFCURVE",
"117 -98 OFFCURVE",
"167 -218 CURVE",
"329 -230 LINE"
);
}
);
width = 437;
}
);
unicode = 0028;
},
{
glyphname = braceleft;
lastChange = "2019-09-06 18:58:39 +0000";
layers = (
{
layerId = "C6C3B4F4-9047-4AEA-9672-C83927A9B560";
paths = (
{
closed = 1;
nodes = (
"437 -65 LINE",
"394 -65 LINE SMOOTH",
"310 -65 OFFCURVE",
"301 -42 OFFCURVE",
"299 24 CURVE",
"305 146 LINE",
"304 227 OFFCURVE",
"288 273 OFFCURVE",
"209 296 CURVE",
"288 314 OFFCURVE",
"316 355 OFFCURVE",
"322 453 CURVE SMOOTH",
"328 574 LINE SMOOTH",
"333 664 OFFCURVE",
"343 674 OFFCURVE",
"435 679 CURVE",
"477 678 LINE",
"492 758 LINE",
"421 758 LINE SMOOTH",
"249 755 OFFCURVE",
"205 719 OFFCURVE",
"197 577 CURVE SMOOTH",
"192 460 LINE SMOOTH",
"186 367 OFFCURVE",
"182 363 OFFCURVE",
"113 358 CURVE",
"73 359 LINE",
"70 239 LINE",
"110 239 LINE SMOOTH",
"172 239 OFFCURVE",
"173 209 OFFCURVE",
"174 131 CURVE",
"168 15 LINE",
"167 -133 OFFCURVE",
"207 -171 OFFCURVE",
"373 -174 CURVE SMOOTH",
"443 -175 LINE"
);
}
);
width = 561;
},
{
layerId = "2731C349-77E1-43A4-A9DD-A1DF19151D5D";
paths = (
{
closed = 1;
nodes = (
"454 -43 LINE",
"394 -43 LINE SMOOTH",
"326 -43 OFFCURVE",
"318 -35 OFFCURVE",
"316 24 CURVE",
"322 146 LINE",
"320 297 OFFCURVE",
"281 309 OFFCURVE",
"51 352 CURVE",
"48 245 LINE",
"238 271 OFFCURVE",
"328 264 OFFCURVE",
"339 451 CURVE SMOOTH",
"345 572 LINE SMOOTH",
"349 649 OFFCURVE",
"351 652 OFFCURVE",
"436 657 CURVE",
"490 657 LINE",
"515 780 LINE",
"420 780 LINE SMOOTH",
"242 777 OFFCURVE",
"189 735 OFFCURVE",
"180 579 CURVE SMOOTH",
"175 462 LINE SMOOTH",
"170 380 OFFCURVE",
"171 384 OFFCURVE",
"111 380 CURVE",
"56 380 LINE",
"53 217 LINE",
"110 217 LINE SMOOTH",
"154 217 OFFCURVE",
"156 213 OFFCURVE",
"157 131 CURVE",
"151 16 LINE",
"150 -147 OFFCURVE",
"199 -192 OFFCURVE",
"372 -196 CURVE SMOOTH",
"460 -199 LINE"
);
}
);
width = 561;
}
);
unicode = 007B;
},
{
glyphname = bracketleft;
lastChange = "2019-09-06 18:58:39 +0000";
layers = (
{
layerId = "C6C3B4F4-9047-4AEA-9672-C83927A9B560";
paths = (
{
closed = 1;
nodes = (
"168 -141 LINE",
"231 705 LINE",
"133 705 LINE",
"70 -141 LINE"
);
},
{
closed = 1;
nodes = (
"359 -141 LINE",
"359 -34 LINE",
"82 -34 LINE",
"82 -141 LINE"
);
},
{
closed = 1;
nodes = (
"401 624 LINE",
"401 705 LINE",
"138 705 LINE",
"138 624 LINE"
);
}
);
width = 471;
},
{
layerId = "2731C349-77E1-43A4-A9DD-A1DF19151D5D";
paths = (
{
closed = 1;
nodes = (
"51 -163 LINE",
"183 -163 LINE",
"250 727 LINE",
"118 727 LINE"
);
},
{
closed = 1;
nodes = (
"121 602 LINE",
"418 602 LINE",
"418 727 LINE",
"121 727 LINE"
);
},
{
closed = 1;
nodes = (
"65 -163 LINE",
"376 -163 LINE",
"376 -12 LINE",
"65 -12 LINE"
);
}
);
width = 471;
}
);
unicode = 005B;
},
{
glyphname = parenleft.ss03;
lastChange = "2019-09-06 18:58:39 +0000";
layers = (
{
layerId = "C6C3B4F4-9047-4AEA-9672-C83927A9B560";
paths = (
{
closed = 1;
nodes = (
"344 796 LINE",
"238 645 OFFCURVE",
"176 482 OFFCURVE",
"170 342 CURVE",
"176 194 OFFCURVE",
"204 -36 OFFCURVE",
"276 -194 CURVE",
"194 -189 LINE",
"135 -39 OFFCURVE",
"90 196 OFFCURVE",
"90 350 CURVE",
"102 490 OFFCURVE",
"174 656 OFFCURVE",
"285 801 CURVE"
);
}
);
width = 437;
},
{
layerId = "2731C349-77E1-43A4-A9DD-A1DF19151D5D";
paths = (
{
closed = 1;
nodes = (
"249 -29 OFFCURVE",
"215 156 OFFCURVE",
"207 342 CURVE",
"207 342 LINE",
"212 465 OFFCURVE",
"264 609 OFFCURVE",
"402 821 CURVE",
"267 836 LINE",
"110 639 OFFCURVE",
"24 398 OFFCURVE",
"59 234 CURVE",
"75 82 OFFCURVE",
"117 -98 OFFCURVE",
"167 -218 CURVE",
"329 -230 LINE"
);
}
);
width = 437;
},
{
associatedMasterId = "C6C3B4F4-9047-4AEA-9672-C83927A9B560";
layerId = "2528E2B6-72C5-4DCC-96E2-AEE782E80800";
name = "Color 0";
paths = (
{
closed = 1;
nodes = (
"357 800 LINE",
"257 659 OFFCURVE",
"186 492 OFFCURVE",
"180 342 CURVE",
"186 191 OFFCURVE",
"215 -44 OFFCURVE",
"289 -200 CURVE",
"186 -193 LINE",
"122 -32 OFFCURVE",
"80 204 OFFCURVE",
"80 350 CURVE",
"92 495 OFFCURVE",
"168 663 OFFCURVE",
"279 807 CURVE"
);
}
);
width = 437;
}
);
},
{
glyphname = braceleft.ss03;
lastChange = "2019-09-06 18:58:39 +0000";
layers = (
{
layerId = "C6C3B4F4-9047-4AEA-9672-C83927A9B560";
paths = (
{
closed = 1;
nodes = (
"417 -75 LINE",
"423 -165 LINE",
"373 -164 LINE SMOOTH",
"220 -161 OFFCURVE",
"187 -129 OFFCURVE",
"188 15 CURVE",
"194 131 LINE",
"193 209 OFFCURVE",
"192 249 OFFCURVE",
"110 249 CURVE SMOOTH",
"90 249 LINE",
"93 349 LINE",
"113 348 LINE",
"197 354 OFFCURVE",
"206 364 OFFCURVE",
"212 460 CURVE SMOOTH",
"217 577 LINE SMOOTH",
"225 716 OFFCURVE",
"261 745 OFFCURVE",
"421 748 CURVE SMOOTH",
"470 748 LINE",
"459 688 LINE",
"435 689 LINE",
"330 684 OFFCURVE",
"313 668 OFFCURVE",
"308 574 CURVE SMOOTH",
"302 453 LINE SMOOTH",
"296 350 OFFCURVE",
"269 316 OFFCURVE",
"183 301 CURVE",
"183 291 LINE",
"260 275 OFFCURVE",
"284 241 OFFCURVE",
"285 146 CURVE",
"279 24 LINE",
"281 -42 OFFCURVE",
"294 -75 OFFCURVE",
"394 -75 CURVE SMOOTH"
);
}
);
width = 561;
},
{
layerId = "2731C349-77E1-43A4-A9DD-A1DF19151D5D";
paths = (
{
closed = 1;
nodes = (
"454 -43 LINE",
"394 -43 LINE SMOOTH",
"326 -43 OFFCURVE",
"318 -35 OFFCURVE",
"316 24 CURVE",
"322 146 LINE",
"320 297 OFFCURVE",
"281 309 OFFCURVE",
"51 352 CURVE",
"48 245 LINE",
"238 271 OFFCURVE",
"328 264 OFFCURVE",
"339 451 CURVE SMOOTH",
"345 572 LINE SMOOTH",
"349 649 OFFCURVE",
"351 652 OFFCURVE",
"436 657 CURVE",
"490 657 LINE",
"515 780 LINE",
"420 780 LINE SMOOTH",
"242 777 OFFCURVE",
"189 735 OFFCURVE",
"180 579 CURVE SMOOTH",
"175 462 LINE SMOOTH",
"170 380 OFFCURVE",
"171 384 OFFCURVE",
"111 380 CURVE",
"56 380 LINE",
"53 217 LINE",
"110 217 LINE SMOOTH",
"154 217 OFFCURVE",
"156 213 OFFCURVE",
"157 131 CURVE",
"151 16 LINE",
"150 -147 OFFCURVE",
"199 -192 OFFCURVE",
"372 -196 CURVE SMOOTH",
"460 -199 LINE"
);
}
);
width = 561;
},
{
associatedMasterId = "C6C3B4F4-9047-4AEA-9672-C83927A9B560";
layerId = "C26121B9-0313-47AC-988C-A7041AD44BF4";
name = "Color 0";
paths = (
{
closed = 1;
nodes = (
"427 -70 LINE",
"433 -170 LINE",
"373 -169 LINE SMOOTH",
"211 -166 OFFCURVE",
"177 -129 OFFCURVE",
"178 15 CURVE",
"184 131 LINE",
"183 209 OFFCURVE",
"182 244 OFFCURVE",
"110 244 CURVE SMOOTH",
"80 244 LINE",
"83 354 LINE",
"113 353 LINE",
"187 358 OFFCURVE",
"196 363 OFFCURVE",
"202 460 CURVE SMOOTH",
"207 577 LINE SMOOTH",
"215 721 OFFCURVE",
"259 750 OFFCURVE",
"421 753 CURVE",
"481 753 LINE",
"468 683 LINE",
"435 684 LINE",
"336 679 OFFCURVE",
"323 666 OFFCURVE",
"318 574 CURVE SMOOTH",
"312 453 LINE SMOOTH",
"306 351 OFFCURVE",
"278 312 OFFCURVE",
"185 296 CURVE",
"276 277 OFFCURVE",
"294 234 OFFCURVE",
"295 146 CURVE",
"289 24 LINE",
"291 -42 OFFCURVE",
"302 -70 OFFCURVE",
"394 -70 CURVE SMOOTH"
);
}
);
width = 561;
}
);
},
{
glyphname = bracketleft.ss03;
lastChange = "2019-09-06 18:58:39 +0000";
layers = (
{
layerId = "C6C3B4F4-9047-4AEA-9672-C83927A9B560";
paths = (
{
closed = 1;
nodes = (
"70 -141 LINE",
"168 -141 LINE",
"231 705 LINE",
"133 705 LINE"
);
},
{
closed = 1;
nodes = (
"138 624 LINE",
"401 624 LINE",
"401 705 LINE",
"138 705 LINE"
);
},
{
closed = 1;
nodes = (
"82 -141 LINE",
"359 -141 LINE",
"359 -34 LINE",
"82 -34 LINE"
);
}
);
width = 471;
},
{
layerId = "2731C349-77E1-43A4-A9DD-A1DF19151D5D";
paths = (
{
closed = 1;
nodes = (
"51 -163 LINE",
"183 -163 LINE",
"250 727 LINE",
"118 727 LINE"
);
},
{
closed = 1;
nodes = (
"121 602 LINE",
"418 602 LINE",
"418 727 LINE",
"121 727 LINE"
);
},
{
closed = 1;
nodes = (
"65 -163 LINE",
"376 -163 LINE",
"376 -12 LINE",
"65 -12 LINE"
);
}
);
width = 471;
},
{
associatedMasterId = "C6C3B4F4-9047-4AEA-9672-C83927A9B560";
layerId = "EBEB8350-3B6E-427B-B893-2AC01E67DF3A";
name = "Color 0";
paths = (
{
closed = 1;
nodes = (
"80 -136 LINE",
"158 -136 LINE",
"221 700 LINE",
"143 700 LINE"
);
},
{
closed = 1;
nodes = (
"148 629 LINE",
"391 629 LINE",
"391 700 LINE",
"148 700 LINE"
);
},
{
closed = 1;
nodes = (
"92 -136 LINE",
"349 -136 LINE",
"349 -39 LINE",
"92 -39 LINE"
);
}
);
width = 471;
}
);
},
{
glyphname = hyphen;
lastChange = "2019-09-06 18:58:39 +0000";
layers = (
{
layerId = "C6C3B4F4-9047-4AEA-9672-C83927A9B560";
paths = (
{
closed = 1;
nodes = (
"70 239 LINE",
"481 239 LINE",
"481 340 LINE",
"70 340 LINE"
);
}
);
width = 551;
},
{
layerId = "2731C349-77E1-43A4-A9DD-A1DF19151D5D";
paths = (
{
closed = 1;
nodes = (
"-7 247 LINE",
"438 247 LINE",
"438 352 LINE",
"-7 352 LINE"
);
}
);
width = 551;
}
);
unicode = 002D;
},
{
glyphname = endash;
lastChange = "2019-09-06 18:58:39 +0000";
layers = (
{
layerId = "C6C3B4F4-9047-4AEA-9672-C83927A9B560";
paths = (
{
closed = 1;
nodes = (
"69 239 LINE",
"715 237 LINE",
"727 338 LINE",
"81 340 LINE"
);
}
);
width = 796;
},
{
layerId = "2731C349-77E1-43A4-A9DD-A1DF19151D5D";
paths = (
{
closed = 1;
nodes = (
"50 217 LINE",
"730 215 LINE",
"746 360 LINE",
"66 362 LINE"
);
}
);
width = 796;
}
);
unicode = 2013;
},
{
glyphname = emdash;
lastChange = "2019-09-06 18:58:39 +0000";
layers = (
{
layerId = "C6C3B4F4-9047-4AEA-9672-C83927A9B560";
paths = (
{
closed = 1;
nodes = (
"70 239 LINE",
"1046 237 LINE",
"1058 338 LINE",
"79 340 LINE"
);
}
);
width = 1127;
},
{
layerId = "2731C349-77E1-43A4-A9DD-A1DF19151D5D";
paths = (
{
closed = 1;
nodes = (
"51 217 LINE",
"1062 215 LINE",
"1078 360 LINE",
"66 362 LINE"
);
}
);
width = 1128;
}
);
unicode = 2014;
},
{
glyphname = hyphen.ss03;
lastChange = "2019-09-06 18:58:39 +0000";
layers = (
{
layerId = "C6C3B4F4-9047-4AEA-9672-C83927A9B560";
paths = (
{
closed = 1;
nodes = (
"70 239 LINE",
"481 239 LINE",
"481 340 LINE",
"70 340 LINE"
);
}
);
width = 551;
},
{
layerId = "2731C349-77E1-43A4-A9DD-A1DF19151D5D";
paths = (
{
closed = 1;
nodes = (
"-7 247 LINE",
"438 247 LINE",
"438 352 LINE",
"-7 352 LINE"
);
}
);
width = 551;
},
{
associatedMasterId = "C6C3B4F4-9047-4AEA-9672-C83927A9B560";
layerId = "260CA6F3-A523-4504-91A2-42B5BD9D4209";
name = "Color 0";
paths = (
{
closed = 1;
nodes = (
"80 244 LINE",
"471 244 LINE",
"471 335 LINE",
"80 335 LINE"
);
}
);
width = 551;
}
);
},
{
glyphname = endash.ss03;
lastChange = "2019-09-06 18:58:39 +0000";
layers = (
{
layerId = "C6C3B4F4-9047-4AEA-9672-C83927A9B560";
paths = (
{
closed = 1;
nodes = (
"69 239 LINE",
"715 237 LINE",
"727 338 LINE",
"81 340 LINE"
);
}
);
width = 796;
},
{
layerId = "2731C349-77E1-43A4-A9DD-A1DF19151D5D";
paths = (
{
closed = 1;
nodes = (
"50 217 LINE",
"730 215 LINE",
"746 360 LINE",
"66 362 LINE"
);
}
);
width = 796;
},
{
associatedMasterId = "C6C3B4F4-9047-4AEA-9672-C83927A9B560";
layerId = "B2378218-85E3-41DE-B37A-590E398B40EB";
name = "Color 0";
paths = (
{
closed = 1;
nodes = (
"80 244 LINE",
"706 242 LINE",
"716 333 LINE",
"90 335 LINE"
);
}
);
width = 796;
}
);
},
{
glyphname = emdash.ss03;
lastChange = "2019-09-06 18:58:39 +0000";
layers = (
{
layerId = "C6C3B4F4-9047-4AEA-9672-C83927A9B560";
paths = (
{
closed = 1;
nodes = (
"70 239 LINE",
"1046 237 LINE",
"1058 338 LINE",
"79 340 LINE"
);
}
);
width = 1127;
},
{
layerId = "2731C349-77E1-43A4-A9DD-A1DF19151D5D";
paths = (
{
closed = 1;
nodes = (
"51 217 LINE",
"1062 215 LINE",
"1078 360 LINE",
"66 362 LINE"
);
}
);
width = 1128;
},
{
associatedMasterId = "C6C3B4F4-9047-4AEA-9672-C83927A9B560";
layerId = "685D1085-AC0D-4FDA-900D-BC89AF1EAABD";
name = "Color 0";
paths = (
{
closed = 1;
nodes = (
"80 244 LINE",
"1037 242 LINE",
"1047 333 LINE",
"89 335 LINE"
);
}
);
width = 1127;
}
);
},
{
glyphname = guilsinglleft;
lastChange = "2019-09-06 18:58:39 +0000";
layers = (
{
layerId = "C6C3B4F4-9047-4AEA-9672-C83927A9B560";
paths = (
{
closed = 1;
nodes = (
"327 483 LINE",
"325 409 LINE",
"172 282 LINE",
"315 145 LINE",
"295 51 LINE",
"90 246 LINE",
"112 304 LINE"
);
}
);
width = 417;
},
{
layerId = "2731C349-77E1-43A4-A9DD-A1DF19151D5D";
paths = (
{
closed = 1;
nodes = (
"346 152 LINE",
"210 281 LINE",
"352 399 LINE",
"359 542 LINE",
"87 316 LINE",
"60 241 LINE",
"312 -1 LINE"
);
}
);
width = 417;
}
);
unicode = 2039;
},
{
glyphname = primeReversed;
lastChange = "2019-09-06 18:58:39 +0000";
layers = (
{
layerId = "C6C3B4F4-9047-4AEA-9672-C83927A9B560";
paths = (
{
closed = 1;
nodes = (
"261 578 OFFCURVE",
"273 588 OFFCURVE",
"265 602 CURVE SMOOTH",
"167 779 LINE",
"161 787 OFFCURVE",
"146 790 OFFCURVE",
"137 785 CURVE SMOOTH",
"82 756 LINE SMOOTH",
"69 749 OFFCURVE",
"67 743 OFFCURVE",
"75 733 CURVE SMOOTH",
"178 600 LINE",
"180 595 OFFCURVE",
"188 592 OFFCURVE",
"197 590 CURVE SMOOTH",
"244 581 LINE SMOOTH"
);
}
);
width = 338;
},
{
layerId = "2731C349-77E1-43A4-A9DD-A1DF19151D5D";
paths = (
{
closed = 1;
nodes = (
"277 560 LINE",
"309 553 OFFCURVE",
"332 584 OFFCURVE",
"316 613 CURVE SMOOTH",
"217 790 LINE",
"206 808 OFFCURVE",
"185 814 OFFCURVE",
"166 805 CURVE",
"110 776 LINE",
"88 763 OFFCURVE",
"82 738 OFFCURVE",
"98 719 CURVE",
"200 587 LINE",
"207 577 OFFCURVE",
"218 570 OFFCURVE",
"230 568 CURVE SMOOTH"
);
}
);
width = 410;
},
{
associatedMasterId = "C6C3B4F4-9047-4AEA-9672-C83927A9B560";
layerId = "3BD6B322-49D9-4AE3-AD6E-DFC87BE99550";
name = "Color 0";
paths = (
{
closed = 1;
nodes = (
"246 586 LINE SMOOTH",
"256 584 OFFCURVE",
"261 591 OFFCURVE",
"256 600 CURVE SMOOTH",
"158 776 LINE SMOOTH",
"154 782 OFFCURVE",
"148 784 OFFCURVE",
"142 781 CURVE SMOOTH",
"87 752 LINE SMOOTH",
"80 748 OFFCURVE",
"78 742 OFFCURVE",
"83 736 CURVE SMOOTH",
"186 603 LINE SMOOTH",
"189 598 OFFCURVE",
"193 596 OFFCURVE",
"199 595 CURVE SMOOTH"
);
}
);
width = 338;
}
);
unicode = 2035;
},
{
glyphname = primeReversed.ss03;
lastChange = "2019-09-06 18:58:39 +0000";
layers = (
{
layerId = "C6C3B4F4-9047-4AEA-9672-C83927A9B560";
paths = (
{
closed = 1;
nodes = (
"261 578 OFFCURVE",
"273 588 OFFCURVE",
"265 602 CURVE SMOOTH",
"167 779 LINE",
"161 787 OFFCURVE",
"146 790 OFFCURVE",
"137 785 CURVE SMOOTH",
"82 756 LINE SMOOTH",
"69 749 OFFCURVE",
"67 743 OFFCURVE",
"75 733 CURVE SMOOTH",
"178 600 LINE",
"180 595 OFFCURVE",
"188 592 OFFCURVE",
"197 590 CURVE SMOOTH",
"244 581 LINE SMOOTH"
);
}
);
width = 338;
},
{
layerId = "2731C349-77E1-43A4-A9DD-A1DF19151D5D";
paths = (
{
closed = 1;
nodes = (
"277 560 LINE",
"309 553 OFFCURVE",
"332 584 OFFCURVE",
"316 613 CURVE SMOOTH",
"217 790 LINE",
"206 808 OFFCURVE",
"185 814 OFFCURVE",
"166 805 CURVE",
"110 776 LINE",
"88 763 OFFCURVE",
"82 738 OFFCURVE",
"98 719 CURVE",
"200 587 LINE",
"207 577 OFFCURVE",
"218 570 OFFCURVE",
"230 568 CURVE SMOOTH"
);
}
);
width = 410;
},
{
associatedMasterId = "C6C3B4F4-9047-4AEA-9672-C83927A9B560";
layerId = "3BD6B322-49D9-4AE3-AD6E-DFC87BE99550";
name = "Color 0";
paths = (
{
closed = 1;
nodes = (
"246 586 LINE SMOOTH",
"256 584 OFFCURVE",
"261 591 OFFCURVE",
"256 600 CURVE SMOOTH",
"158 776 LINE SMOOTH",
"154 782 OFFCURVE",
"148 784 OFFCURVE",
"142 781 CURVE SMOOTH",
"87 752 LINE SMOOTH",
"80 748 OFFCURVE",
"78 742 OFFCURVE",
"83 736 CURVE SMOOTH",
"186 603 LINE SMOOTH",
"189 598 OFFCURVE",
"193 596 OFFCURVE",
"199 595 CURVE SMOOTH"
);
}
);
width = 338;
}
);
},
{
glyphname = "leftanglebracket-math";
lastChange = "2019-09-06 18:58:39 +0000";
layers = (
{
layerId = "C6C3B4F4-9047-4AEA-9672-C83927A9B560";
paths = (
{
closed = 1;
nodes = (
"70 340 LINE",
"376 -123 LINE",
"404 12 LINE",
"191 350 LINE",
"407 610 LINE",
"407 726 LINE"
);
}
);
width = 477;
},
{
layerId = "2731C349-77E1-43A4-A9DD-A1DF19151D5D";
paths = (
{
closed = 1;
nodes = (
"393 17 LINE",
"184 348 LINE",
"394 600 LINE",
"394 775 LINE",
"16 342 LINE",
"354 -169 LINE"
);
}
);
width = 417;
}
);
unicode = 27E8;
},
{
glyphname = currency;
lastChange = "2019-09-06 18:58:39 +0000";
layers = (
{
layerId = "C6C3B4F4-9047-4AEA-9672-C83927A9B560";
paths = (
{
closed = 1;
nodes = (
"276 277 OFFCURVE",
"230 324 OFFCURVE",
"230 382 CURVE SMOOTH",
"230 439 OFFCURVE",
"277 486 OFFCURVE",
"334 486 CURVE SMOOTH",
"391 486 OFFCURVE",
"438 439 OFFCURVE",
"438 382 CURVE SMOOTH",
"438 324 OFFCURVE",
"391 277 OFFCURVE",
"334 277 CURVE SMOOTH"
);
},
{
closed = 1;
nodes = (
"514 269 LINE",
"527 295 OFFCURVE",
"534 325 OFFCURVE",
"534 357 CURVE SMOOTH",
"534 396 OFFCURVE",
"523 432 OFFCURVE",
"503 463 CURVE",
"568 528 LINE",
"492 606 LINE",
"422 536 LINE",
"396 549 OFFCURVE",
"366 556 OFFCURVE",
"335 556 CURVE SMOOTH",
"304 556 OFFCURVE",
"274 549 OFFCURVE",
"248 536 CURVE",
"178 606 LINE",
"102 528 LINE",
"167 463 LINE",
"147 432 OFFCURVE",
"136 396 OFFCURVE",
"136 357 CURVE SMOOTH",
"136 325 OFFCURVE",
"143 295 OFFCURVE",
"156 269 CURVE",
"80 192 LINE",
"156 114 LINE",
"230 188 LINE",
"260 169 OFFCURVE",
"296 158 OFFCURVE",
"335 158 CURVE SMOOTH",
"374 158 OFFCURVE",
"410 169 OFFCURVE",
"440 188 CURVE",
"514 114 LINE",
"590 192 LINE"
);
}
);
width = 670;
},
{
layerId = "2731C349-77E1-43A4-A9DD-A1DF19151D5D";
paths = (
{
closed = 1;
nodes = (
"291 304 OFFCURVE",
"257 339 OFFCURVE",
"257 382 CURVE SMOOTH",
"257 425 OFFCURVE",
"292 459 OFFCURVE",
"334 459 CURVE SMOOTH",
"377 459 OFFCURVE",
"411 424 OFFCURVE",
"411 382 CURVE SMOOTH",
"411 339 OFFCURVE",
"376 304 OFFCURVE",
"334 304 CURVE SMOOTH"
);
},
{
closed = 1;
nodes = (
"546 275 LINE",
"556 300 OFFCURVE",
"561 329 OFFCURVE",
"561 357 CURVE SMOOTH",
"561 392 OFFCURVE",
"553 427 OFFCURVE",
"537 459 CURVE",
"606 528 LINE",
"492 644 LINE",
"416 568 LINE",
"391 578 OFFCURVE",
"363 583 OFFCURVE",
"335 583 CURVE SMOOTH",
"307 583 OFFCURVE",
"279 578 OFFCURVE",
"254 568 CURVE",
"178 644 LINE",
"64 528 LINE",
"133 459 LINE",
"117 427 OFFCURVE",
"109 392 OFFCURVE",
"109 357 CURVE SMOOTH",
"109 329 OFFCURVE",
"114 300 OFFCURVE",
"124 275 CURVE",
"42 192 LINE",
"156 76 LINE",
"235 154 LINE",
"265 139 OFFCURVE",
"300 131 OFFCURVE",
"335 131 CURVE SMOOTH",
"370 131 OFFCURVE",
"405 139 OFFCURVE",
"435 154 CURVE",
"514 76 LINE",
"628 192 LINE"
);
}
);
width = 670;
}
);
unicode = 00A4;
},
{
glyphname = euro;
lastChange = "2019-09-06 18:58:39 +0000";
layers = (
{
components = (
{
name = equal;
transform = "{1, 0, 0, 1, 1, 76}";
}
);
layerId = "C6C3B4F4-9047-4AEA-9672-C83927A9B560";
paths = (
{
closed = 1;
nodes = (
"665 -41 OFFCURVE",
"665 28 OFFCURVE",
"665 70 CURVE",
"452 70 OFFCURVE",
"336 24 OFFCURVE",
"336 386 CURVE SMOOTH",
"336 624 OFFCURVE",
"432 677 OFFCURVE",
"665 624 CURVE",
"665 670 OFFCURVE",
"665 710 OFFCURVE",
"665 735 CURVE",
"284 787 OFFCURVE",
"234 654 OFFCURVE",
"241 347 CURVE SMOOTH",
"249 0 OFFCURVE",
"266 -82 OFFCURVE",
"665 -71 CURVE"
);
}
);
width = 745;
},
{
components = (
{
name = equal;
transform = "{1, 0, 0, 1, 1, 76}";
}
);
layerId = "2731C349-77E1-43A4-A9DD-A1DF19151D5D";
paths = (
{
closed = 1;
nodes = (
"692 -71 LINE",
"692 -33 OFFCURVE",
"692 72 OFFCURVE",
"692 97 CURVE",
"454 100 OFFCURVE",
"363 51 OFFCURVE",
"363 386 CURVE SMOOTH",
"363 598 OFFCURVE",
"435 649 OFFCURVE",
"659 598 CURVE",
"692 624 LINE",
"692 688 OFFCURVE",
"692 738 OFFCURVE",
"692 758 CURVE",
"269 823 OFFCURVE",
"207 665 OFFCURVE",
"214 346 CURVE SMOOTH",
"222 -3 OFFCURVE",
"244 -110 OFFCURVE",
"666 -98 CURVE"
);
}
);
width = 744;
}
);
unicode = 20AC;
},
{
glyphname = liraTurkish;
lastChange = "2019-09-06 18:58:39 +0000";
layers = (
{
layerId = "C6C3B4F4-9047-4AEA-9672-C83927A9B560";
paths = (
{
closed = 1;
nodes = (
"190 647 LINE",
"194 569 OFFCURVE",
"190 534 OFFCURVE",
"190 419 CURVE SMOOTH",
"190 417 OFFCURVE",
"190 335 OFFCURVE",
"190 240 CURVE SMOOTH",
"190 88 OFFCURVE",
"190 88 OFFCURVE",
"189 -3 CURVE",
"315 -16 OFFCURVE",
"577 56 OFFCURVE",
"609 242 CURVE",
"530 242 LINE",
"519 151 OFFCURVE",
"331 66 OFFCURVE",
"286 82 CURVE",
"286 156 OFFCURVE",
"287 169 OFFCURVE",
"287 236 CURVE SMOOTH",
"287 437 LINE",
"283 562 OFFCURVE",
"283 562 OFFCURVE",
"283 658 CURVE"
);
},
{
closed = 1;
nodes = (
"80 335 LINE",
"471 486 LINE",
"471 577 LINE",
"80 426 LINE"
);
},
{
closed = 1;
nodes = (
"80 149 LINE",
"471 300 LINE",
"471 391 LINE",
"80 240 LINE"
);
}
);
width = 689;
},
{
layerId = "2731C349-77E1-43A4-A9DD-A1DF19151D5D";
paths = (
{
closed = 1;
nodes = (
"163 671 LINE",
"169 575 OFFCURVE",
"164 547 OFFCURVE",
"164 419 CURVE SMOOTH",
"164 416 OFFCURVE",
"164 335 OFFCURVE",
"164 240 CURVE",
"191 240 LINE",
"191 88 OFFCURVE",
"191 88 OFFCURVE",
"190 -3 CURVE",
"187 -30 LINE",
"325 -44 OFFCURVE",
"631 43 OFFCURVE",
"640 269 CURVE",
"491 269 LINE",
"552 236 OFFCURVE",
"386 112 OFFCURVE",
"314 106 CURVE",
"314 159 OFFCURVE",
"315 177 OFFCURVE",
"315 236 CURVE SMOOTH",
"315 437 LINE",
"311 575 OFFCURVE",
"311 561 OFFCURVE",
"311 688 CURVE"
);
},
{
closed = 1;
nodes = (
"54 296 LINE",
"499 467 LINE",
"499 616 LINE",
"54 445 LINE"
);
},
{
closed = 1;
nodes = (
"54 110 LINE",
"499 281 LINE",
"499 430 LINE",
"54 259 LINE"
);
}
);
width = 691;
}
);
unicode = 20BA;
},
{
glyphname = manat;
lastChange = "2019-09-06 18:58:39 +0000";
layers = (
{
layerId = "C6C3B4F4-9047-4AEA-9672-C83927A9B560";
paths = (
{
closed = 1;
nodes = (
"184 7 LINE",
"139 212 OFFCURVE",
"134 526 OFFCURVE",
"316 526 CURVE SMOOTH",
"502 526 OFFCURVE",
"470 206 OFFCURVE",
"447 7 CURVE",
"536 7 LINE",
"525 282 OFFCURVE",
"619 627 OFFCURVE",
"316 634 CURVE",
"-4 628 OFFCURVE",
"98 284 OFFCURVE",
"88 7 CURVE"
);
},
{
closed = 1;
nodes = (
"351 5 LINE",
"328 762 LINE",
"258 762 LINE",
"281 5 LINE"
);
}
);
width = 622;
},
{
layerId = "2731C349-77E1-43A4-A9DD-A1DF19151D5D";
paths = (
{
closed = 1;
nodes = (
"313 -20 LINE",
"241 274 OFFCURVE",
"284 499 OFFCURVE",
"411 499 CURVE SMOOTH",
"529 499 OFFCURVE",
"556 342 OFFCURVE",
"512 -20 CURVE",
"660 -20 LINE",
"639 252 OFFCURVE",
"761 653 OFFCURVE",
"412 661 CURVE SMOOTH",
"410 661 LINE SMOOTH",
"43 654 OFFCURVE",
"174 254 OFFCURVE",
"155 -20 CURVE"
);
},
{
closed = 1;
nodes = (
"474 -22 LINE",
"449 789 LINE",
"325 789 LINE",
"350 -22 LINE"
);
}
);
width = 812;
}
);
unicode = 20BC;
},
{
glyphname = rupeeIndian;
lastChange = "2019-09-06 18:58:39 +0000";
layers = (
{
layerId = "C6C3B4F4-9047-4AEA-9672-C83927A9B560";
paths = (
{
closed = 1;
nodes = (
"82 738 LINE",
"82 672 LINE",
"522 672 LINE",
"522 738 LINE"
);
},
{
closed = 1;
nodes = (
"85 549 LINE",
"85 483 LINE",
"525 483 LINE",
"525 549 LINE"
);
},
{
closed = 1;
nodes = (
"80 679 LINE",
"157 679 LINE SMOOTH",
"232 679 OFFCURVE",
"310 646 OFFCURVE",
"310 521 CURVE SMOOTH",
"310 458 OFFCURVE",
"232 407 OFFCURVE",
"157 407 CURVE SMOOTH",
"80 407 LINE",
"80 287 LINE",
"116 293 LINE SMOOTH",
"176 303 OFFCURVE",
"283 296 OFFCURVE",
"278 189 CURVE SMOOTH",
"269 2 LINE",
"449 2 LINE",
"392 201 LINE SMOOTH",
"370 279 OFFCURVE",
"312 342 OFFCURVE",
"270 364 CURVE",
"338 375 OFFCURVE",
"380 425 OFFCURVE",
"380 521 CURVE SMOOTH",
"380 662 OFFCURVE",
"294 731 OFFCURVE",
"147 731 CURVE SMOOTH",
"80 731 LINE"
);
}
);
width = 605;
},
{
layerId = "2731C349-77E1-43A4-A9DD-A1DF19151D5D";
paths = (
{
closed = 1;
nodes = (
"98 765 LINE",
"98 645 LINE",
"592 645 LINE",
"592 765 LINE"
);
},
{
closed = 1;
nodes = (
"101 576 LINE",
"101 456 LINE",
"595 456 LINE",
"595 576 LINE"
);
},
{
closed = 1;
nodes = (
"96 652 LINE",
"200 652 LINE SMOOTH",
"284 652 OFFCURVE",
"326 609 OFFCURVE",
"326 521 CURVE SMOOTH",
"326 478 OFFCURVE",
"265 434 OFFCURVE",
"200 434 CURVE SMOOTH",
"96 434 LINE",
"96 255 LINE",
"163 266 LINE SMOOTH",
"247 280 OFFCURVE",
"297 252 OFFCURVE",
"294 190 CURVE SMOOTH",
"284 -25 LINE",
"528 -25 LINE",
"461 208 LINE SMOOTH",
"446 262 OFFCURVE",
"411 318 OFFCURVE",
"370 355 CURVE",
"422 384 OFFCURVE",
"450 441 OFFCURVE",
"450 521 CURVE SMOOTH",
"450 673 OFFCURVE",
"356 758 OFFCURVE",
"190 758 CURVE SMOOTH",
"96 758 LINE"
);
}
);
width = 691;
}
);
unicode = 20B9;
},
{
glyphname = sterling;
lastChange = "2019-09-06 18:58:39 +0000";
layers = (
{
components = (
{
name = hyphen;
transform = "{1, 0, 0, 0.90858, 17, 86}";
}
);
guideLines = (
{
angle = 90;
position = "{166, 179}";
},
{
position = "{166, 179}";
},
{
angle = 90;
position = "{118, 685}";
},
{
position = "{118, 685}";
}
);
layerId = "C6C3B4F4-9047-4AEA-9672-C83927A9B560";
paths = (
{
closed = 1;
nodes = (
"215 347 LINE SMOOTH",
"215 346 OFFCURVE",
"215 346 OFFCURVE",
"215 345 CURVE SMOOTH",
"259 216 OFFCURVE",
"255 174 OFFCURVE",
"80 112 CURVE",
"80 0 LINE",
"611 0 LINE",
"563 70 LINE",
"363 98 OFFCURVE",
"344 101 OFFCURVE",
"193 90 CURVE",
"393 127 OFFCURVE",
"310 290 OFFCURVE",
"288 348 CURVE SMOOTH",
"213 549 LINE SMOOTH",
"195 596 OFFCURVE",
"187 634 OFFCURVE",
"213 663 CURVE SMOOTH",
"258 714 OFFCURVE",
"373 759 OFFCURVE",
"498 663 CURVE",
"560 680 LINE",
"439 825 OFFCURVE",
"273 786 OFFCURVE",
"170 712 CURVE SMOOTH",
"134 686 OFFCURVE",
"119 656 OFFCURVE",
"159 527 CURVE SMOOTH"
);
}
);
width = 691;
},
{
components = (
{
name = hyphen;
transform = "{1, 0, 0, 0.90858, 17, 86}";
}
);
guideLines = (
{
angle = 90;
position = "{92, 179}";
},
{
position = "{92, 179}";
},
{
angle = 90;
position = "{80, 685}";
},
{
position = "{80, 685}";
}
);
layerId = "2731C349-77E1-43A4-A9DD-A1DF19151D5D";
paths = (
{
closed = 1;
nodes = (
"215 256 LINE",
"215 258 OFFCURVE",
"215 260 OFFCURVE",
"215 261 CURVE",
"218 196 OFFCURVE",
"180 175 OFFCURVE",
"53 131 CURVE",
"53 -27 LINE",
"662 -27 LINE",
"579 95 LINE",
"368 125 OFFCURVE",
"348 128 OFFCURVE",
"191 117 CURVE",
"198 63 LINE",
"433 107 OFFCURVE",
"335 301 OFFCURVE",
"313 358 CURVE SMOOTH",
"238 559 LINE SMOOTH",
"220 607 OFFCURVE",
"219 629 OFFCURVE",
"233 645 CURVE SMOOTH",
"291 711 OFFCURVE",
"403 708 OFFCURVE",
"492 633 CURVE",
"605 664 LINE",
"499 824 OFFCURVE",
"314 849 OFFCURVE",
"154 734 CURVE SMOOTH",
"99 694 OFFCURVE",
"95 641 OFFCURVE",
"133 519 CURVE SMOOTH"
);
}
);
width = 691;
}
);
unicode = 00A3;
},
{
glyphname = yen;
lastChange = "2019-09-06 18:58:39 +0000";
layers = (
{
components = (
{
name = equal;
transform = "{1, 0, 0, 1, 63, -50}";
}
);
layerId = "C6C3B4F4-9047-4AEA-9672-C83927A9B560";
paths = (
{
closed = 1;
nodes = (
"300 -69 LINE",
"433 -69 LINE",
"447 410 LINE",
"684 729 LINE",
"578 729 LINE",
"383 516 LINE",
"186 729 LINE",
"80 729 LINE",
"314 410 LINE"
);
}
);
width = 764;
},
{
components = (
{
name = equal;
transform = "{1, 0, 0, 1, 63, -57}";
}
);
layerId = "2731C349-77E1-43A4-A9DD-A1DF19151D5D";
paths = (
{
closed = 1;
nodes = (
"272 -96 LINE",
"459 -96 LINE",
"474 401 LINE",
"738 756 LINE",
"566 756 LINE",
"383 556 LINE",
"198 756 LINE",
"27 756 LINE",
"287 402 LINE"
);
}
);
width = 764;
}
);
unicode = 00A5;
},
{
glyphname = commercialMinusSign;
lastChange = "2019-09-06 18:58:39 +0000";
layers = (
{
components = (
{
name = slash;
},
{
alignment = -1;
name = dotaccentcomb;
transform = "{1, 0, 0, 1, 244, -590}";
}
);
layerId = "C6C3B4F4-9047-4AEA-9672-C83927A9B560";
paths = (
{
closed = 1;
nodes = (
"69 584 LINE",
"202 584 LINE",
"202 717 LINE",
"69 717 LINE"
);
},
{
closed = 1;
nodes = (
"371 -44 LINE",
"504 -44 LINE",
"504 89 LINE",
"371 89 LINE"
);
}
);
width = 508;
},
{
components = (
{
name = slash;
},
{
name = dotaccentcomb;
transform = "{1, 0, 0, 1, 17, -48}";
},
{
alignment = -1;
name = dotaccentcomb;
transform = "{1, 0, 0, 1, 244, -590}";
}
);
layerId = "2731C349-77E1-43A4-A9DD-A1DF19151D5D";
width = 508;
}
);
unicode = 2052;
},
{
glyphname = plus;
lastChange = "2019-09-06 18:58:39 +0000";
layers = (
{
layerId = "C6C3B4F4-9047-4AEA-9672-C83927A9B560";
paths = (
{
closed = 1;
nodes = (
"282 51 LINE",
"366 51 LINE",
"366 512 LINE",
"282 512 LINE"
);
},
{
closed = 1;
nodes = (
"540 239 LINE",
"540 313 LINE",
"80 316 LINE",
"80 242 LINE"
);
}
);
width = 620;
},
{
layerId = "2731C349-77E1-43A4-A9DD-A1DF19151D5D";
paths = (
{
closed = 1;
nodes = (
"255 24 LINE",
"393 24 LINE",
"393 539 LINE",
"255 539 LINE"
);
},
{
closed = 1;
nodes = (
"567 212 LINE",
"567 340 LINE",
"53 343 LINE",
"53 215 LINE"
);
}
);
width = 620;
}
);
unicode = 002B;
},
{
glyphname = minus;
lastChange = "2019-09-06 18:58:39 +0000";
layers = (
{
layerId = "C6C3B4F4-9047-4AEA-9672-C83927A9B560";
paths = (
{
closed = 1;
nodes = (
"80 232 LINE",
"526 249 LINE",
"497 326 LINE",
"111 302 LINE"
);
}
);
width = 606;
},
{
layerId = "2731C349-77E1-43A4-A9DD-A1DF19151D5D";
paths = (
{
closed = 1;
nodes = (
"38 203 LINE",
"564 223 LINE",
"515 354 LINE",
"93 328 LINE"
);
}
);
width = 606;
}
);
unicode = 2212;
},
{
glyphname = multiply;
lastChange = "2019-09-06 18:58:39 +0000";
layers = (
{
layerId = "C6C3B4F4-9047-4AEA-9672-C83927A9B560";
paths = (
{
closed = 1;
nodes = (
"370 105 LINE",
"510 105 LINE",
"200 379 LINE",
"104 379 LINE"
);
},
{
closed = 1;
nodes = (
"80 105 LINE",
"219 105 LINE",
"466 376 LINE",
"375 376 LINE"
);
}
);
width = 590;
},
{
layerId = "2731C349-77E1-43A4-A9DD-A1DF19151D5D";
paths = (
{
closed = 1;
nodes = (
"359 78 LINE",
"581 78 LINE",
"210 406 LINE",
"40 406 LINE"
);
},
{
closed = 1;
nodes = (
"11 78 LINE",
"231 78 LINE",
"527 403 LINE",
"364 403 LINE"
);
}
);
width = 590;
}
);
unicode = 00D7;
},
{
glyphname = greater;
lastChange = "2019-09-06 18:58:39 +0000";
layers = (
{
layerId = "C6C3B4F4-9047-4AEA-9672-C83927A9B560";
paths = (
{
closed = 1;
nodes = (
"111 516 LINE",
"718 226 LINE",
"725 336 LINE",
"116 604 LINE"
);
},
{
closed = 1;
nodes = (
"720 229 LINE",
"581 293 LINE",
"81 157 LINE",
"80 37 LINE"
);
}
);
width = 805;
},
{
layerId = "2731C349-77E1-43A4-A9DD-A1DF19151D5D";
paths = (
{
closed = 1;
nodes = (
"83 499 LINE",
"742 184 LINE",
"753 353 LINE",
"91 644 LINE"
);
},
{
closed = 1;
nodes = (
"796 224 LINE",
"583 322 LINE",
"54 178 LINE",
"53 1 LINE"
);
}
);
width = 805;
}
);
unicode = 003E;
},
{
glyphname = greaterequal;
lastChange = "2019-09-06 18:58:39 +0000";
layers = (
{
components = (
{
name = greater;
transform = "{1, 0, 0, 1, 56, 90}";
}
);
layerId = "C6C3B4F4-9047-4AEA-9672-C83927A9B560";
paths = (
{
closed = 1;
nodes = (
"80 -53 LINE",
"755 15 LINE",
"726 92 LINE",
"111 17 LINE"
);
}
);
width = 861;
},
{
components = (
{
name = greater;
transform = "{1, 0, 0, 1, 56, 90}";
}
);
layerId = "2731C349-77E1-43A4-A9DD-A1DF19151D5D";
paths = (
{
closed = 1;
nodes = (
"37 -85 LINE",
"793 -8 LINE",
"744 121 LINE",
"93 42 LINE"
);
}
);
width = 861;
}
);
unicode = 2265;
},
{
glyphname = logicalnot;
lastChange = "2019-09-06 18:58:39 +0000";
layers = (
{
layerId = "C6C3B4F4-9047-4AEA-9672-C83927A9B560";
paths = (
{
closed = 1;
nodes = (
"80 253 LINE",
"519 238 LINE",
"519 308 LINE",
"80 344 LINE"
);
},
{
closed = 1;
nodes = (
"424 57 LINE",
"531 57 LINE",
"520 305 LINE",
"420 305 LINE"
);
}
);
width = 611;
},
{
layerId = "2731C349-77E1-43A4-A9DD-A1DF19151D5D";
paths = (
{
closed = 1;
nodes = (
"53 227 LINE",
"546 210 LINE",
"546 333 LINE",
"53 373 LINE"
);
},
{
closed = 1;
nodes = (
"397 30 LINE",
"559 30 LINE",
"546 332 LINE",
"393 332 LINE"
);
}
);
width = 611;
}
);
unicode = 00AC;
},
{
glyphname = infinity;
lastChange = "2019-09-06 18:58:39 +0000";
layers = (
{
layerId = "C6C3B4F4-9047-4AEA-9672-C83927A9B560";
paths = (
{
closed = 1;
nodes = (
"392 119 OFFCURVE",
"460 165 OFFCURVE",
"482 260 CURVE",
"503 163 OFFCURVE",
"564 119 OFFCURVE",
"647 119 CURVE SMOOTH",
"751 119 OFFCURVE",
"835 214 OFFCURVE",
"835 359 CURVE SMOOTH",
"835 504 OFFCURVE",
"751 599 OFFCURVE",
"647 599 CURVE SMOOTH",
"564 599 OFFCURVE",
"510 553 OFFCURVE",
"482 458 CURVE",
"460 553 OFFCURVE",
"392 599 OFFCURVE",
"299 599 CURVE SMOOTH",
"158 599 OFFCURVE",
"80 520 OFFCURVE",
"80 359 CURVE SMOOTH",
"80 198 OFFCURVE",
"158 119 OFFCURVE",
"299 119 CURVE SMOOTH"
);
},
{
closed = 1;
nodes = (
"208 244 OFFCURVE",
"156 265 OFFCURVE",
"156 359 CURVE SMOOTH",
"156 453 OFFCURVE",
"213 510 OFFCURVE",
"309 510 CURVE SMOOTH",
"397 510 OFFCURVE",
"450 453 OFFCURVE",
"450 359 CURVE SMOOTH",
"450 265 OFFCURVE",
"392 254 OFFCURVE",
"304 249 CURVE SMOOTH"
);
},
{
closed = 1;
nodes = (
"586 270 OFFCURVE",
"531 288 OFFCURVE",
"531 372 CURVE",
"531 457 OFFCURVE",
"592 507 OFFCURVE",
"667 507 CURVE SMOOTH",
"730 507 OFFCURVE",
"778 457 OFFCURVE",
"778 372 CURVE SMOOTH",
"778 288 OFFCURVE",
"724 270 OFFCURVE",
"661 270 CURVE SMOOTH"
);
}
);
width = 915;
},
{
layerId = "2731C349-77E1-43A4-A9DD-A1DF19151D5D";
paths = (
{
closed = 1;
nodes = (
"381 92 OFFCURVE",
"444 125 OFFCURVE",
"481 185 CURVE",
"514 125 OFFCURVE",
"571 92 OFFCURVE",
"647 92 CURVE SMOOTH",
"771 92 OFFCURVE",
"862 205 OFFCURVE",
"862 359 CURVE SMOOTH",
"862 513 OFFCURVE",
"771 626 OFFCURVE",
"647 626 CURVE SMOOTH",
"573 626 OFFCURVE",
"518 594 OFFCURVE",
"483 530 CURVE",
"446 592 OFFCURVE",
"382 626 OFFCURVE",
"299 626 CURVE SMOOTH",
"140 626 OFFCURVE",
"53 531 OFFCURVE",
"53 359 CURVE SMOOTH",
"53 187 OFFCURVE",
"140 92 OFFCURVE",
"299 92 CURVE SMOOTH"
);
},
{
closed = 1;
nodes = (
"210 271 OFFCURVE",
"183 291 OFFCURVE",
"183 359 CURVE SMOOTH",
"183 438 OFFCURVE",
"228 483 OFFCURVE",
"309 483 CURVE SMOOTH",
"382 483 OFFCURVE",
"453 439 OFFCURVE",
"453 359 CURVE SMOOTH",
"453 297 OFFCURVE",
"401 282 OFFCURVE",
"303 276 CURVE SMOOTH"
);
},
{
closed = 1;
nodes = (
"584 297 OFFCURVE",
"528 316 OFFCURVE",
"528 372 CURVE SMOOTH",
"528 437 OFFCURVE",
"601 480 OFFCURVE",
"667 480 CURVE SMOOTH",
"718 480 OFFCURVE",
"751 438 OFFCURVE",
"751 372 CURVE SMOOTH",
"751 318 OFFCURVE",
"727 297 OFFCURVE",
"661 297 CURVE SMOOTH"
);
}
);
width = 915;
}
);
unicode = 221E;
},
{
glyphname = product;
lastChange = "2019-09-06 18:58:39 +0000";
layers = (
{
layerId = "C6C3B4F4-9047-4AEA-9672-C83927A9B560";
paths = (
{
closed = 1;
nodes = (
"80 628 LINE",
"658 628 LINE",
"658 700 LINE",
"80 700 LINE"
);
},
{
closed = 1;
nodes = (
"167 0 LINE",
"266 0 LINE",
"266 650 LINE",
"167 650 LINE"
);
},
{
closed = 1;
nodes = (
"473 -1 LINE",
"572 -1 LINE",
"572 649 LINE",
"473 649 LINE"
);
}
);
width = 738;
},
{
layerId = "2731C349-77E1-43A4-A9DD-A1DF19151D5D";
paths = (
{
closed = 1;
nodes = (
"53 601 LINE",
"685 601 LINE",
"685 727 LINE",
"53 727 LINE"
);
},
{
closed = 1;
nodes = (
"140 -27 LINE",
"293 -27 LINE",
"293 677 LINE",
"140 677 LINE"
);
},
{
closed = 1;
nodes = (
"446 -28 LINE",
"599 -28 LINE",
"599 676 LINE",
"446 676 LINE"
);
}
);
width = 738;
}
);
unicode = 220F;
},
{
glyphname = summation;
lastChange = "2019-09-06 18:58:39 +0000";
layers = (
{
layerId = "C6C3B4F4-9047-4AEA-9672-C83927A9B560";
paths = (
{
closed = 1;
nodes = (
"80 629 LINE",
"519 629 LINE",
"519 700 LINE",
"80 700 LINE"
);
},
{
closed = 1;
nodes = (
"385 311 LINE",
"385 383 LINE",
"80 103 LINE",
"80 -7 LINE"
);
},
{
closed = 1;
nodes = (
"80 -6 LINE",
"519 -6 LINE",
"519 103 LINE",
"80 103 LINE"
);
},
{
closed = 0;
nodes = (
"385 311 LINE",
"385 383 LINE"
);
},
{
closed = 1;
nodes = (
"81 627 LINE",
"386 309 LINE",
"386 381 LINE",
"81 699 LINE"
);
}
);
width = 599;
},
{
layerId = "2731C349-77E1-43A4-A9DD-A1DF19151D5D";
paths = (
{
closed = 1;
nodes = (
"53 602 LINE",
"546 602 LINE",
"546 727 LINE",
"53 727 LINE"
);
},
{
closed = 1;
nodes = (
"412 300 LINE",
"406 394 LINE",
"53 115 LINE",
"119 -33 LINE"
);
},
{
closed = 1;
nodes = (
"53 -33 LINE",
"546 -33 LINE",
"546 130 LINE",
"53 130 LINE"
);
},
{
closed = 0;
nodes = (
"357 326 LINE",
"412 383 LINE"
);
},
{
closed = 1;
nodes = (
"54 616 LINE",
"350 248 LINE",
"413 392 LINE",
"124 727 LINE"
);
}
);
width = 599;
}
);
unicode = 2211;
},
{
glyphname = radical;
lastChange = "2019-09-06 18:58:39 +0000";
layers = (
{
layerId = "C6C3B4F4-9047-4AEA-9672-C83927A9B560";
paths = (
{
closed = 1;
nodes = (
"524 778 LINE",
"851 778 LINE",
"851 731 LINE",
"587 700 LINE",
"381 -53 LINE",
"198 -53 LINE",
"80 178 LINE",
"126 224 LINE",
"272 97 LINE"
);
}
);
width = 931;
},
{
layerId = "2731C349-77E1-43A4-A9DD-A1DF19151D5D";
paths = (
{
closed = 1;
nodes = (
"543 751 LINE",
"824 751 LINE",
"824 755 LINE",
"566 725 LINE",
"360 -26 LINE",
"215 -26 LINE",
"113 173 LINE",
"127 187 LINE",
"284 51 LINE"
);
}
);
width = 931;
}
);
unicode = 221A;
},
{
glyphname = partialdiff;
lastChange = "2019-09-06 18:58:39 +0000";
layers = (
{
layerId = "C6C3B4F4-9047-4AEA-9672-C83927A9B560";
paths = (
{
closed = 1;
nodes = (
"412 404 OFFCURVE",
"454 326 OFFCURVE",
"468 234 CURVE SMOOTH",
"478 170 OFFCURVE",
"412 116 OFFCURVE",
"324 116 CURVE SMOOTH",
"235 116 OFFCURVE",
"179 168 OFFCURVE",
"179 234 CURVE SMOOTH",
"179 339 OFFCURVE",
"235 404 OFFCURVE",
"324 404 CURVE"
);
},
{
closed = 1;
nodes = (
"401 720 LINE",
"474 720 OFFCURVE",
"524 704 OFFCURVE",
"531 632 CURVE SMOOTH",
"542 515 OFFCURVE",
"522 456 OFFCURVE",
"502 336 CURVE",
"456 456 OFFCURVE",
"387 482 OFFCURVE",
"318 482 CURVE SMOOTH",
"171 482 OFFCURVE",
"80 387 OFFCURVE",
"80 234 CURVE SMOOTH",
"80 84 OFFCURVE",
"177 -14 OFFCURVE",
"324 -14 CURVE SMOOTH",
"492 -14 OFFCURVE",
"547 124 OFFCURVE",
"584 364 CURVE SMOOTH",
"609 525 OFFCURVE",
"610 519 OFFCURVE",
"609 656 CURVE SMOOTH",
"608 768 OFFCURVE",
"490 787 OFFCURVE",
"432 787 CURVE"
);
}
);
width = 689;
},
{
layerId = "2731C349-77E1-43A4-A9DD-A1DF19151D5D";
paths = (
{
closed = 1;
nodes = (
"386 377 OFFCURVE",
"426 327 OFFCURVE",
"441 230 CURVE SMOOTH",
"448 184 OFFCURVE",
"396 143 OFFCURVE",
"324 143 CURVE SMOOTH",
"254 143 OFFCURVE",
"206 181 OFFCURVE",
"206 234 CURVE SMOOTH",
"206 324 OFFCURVE",
"250 377 OFFCURVE",
"324 377 CURVE SMOOTH"
);
},
{
closed = 1;
nodes = (
"358 692 LINE",
"465 698 OFFCURVE",
"499 685 OFFCURVE",
"504 629 CURVE SMOOTH",
"512 545 OFFCURVE",
"503 493 OFFCURVE",
"490 419 CURVE",
"448 480 OFFCURVE",
"392 509 OFFCURVE",
"318 509 CURVE SMOOTH",
"156 509 OFFCURVE",
"53 402 OFFCURVE",
"53 234 CURVE SMOOTH",
"53 69 OFFCURVE",
"162 -41 OFFCURVE",
"324 -41 CURVE SMOOTH",
"489 -41 OFFCURVE",
"566 70 OFFCURVE",
"611 360 CURVE",
"610 355 OFFCURVE",
"637 519 OFFCURVE",
"636 656 CURVE SMOOTH",
"635 758 OFFCURVE",
"546 820 OFFCURVE",
"415 814 CURVE"
);
}
);
width = 689;
}
);
unicode = 2202;
},
{
glyphname = upArrow;
lastChange = "2019-09-06 18:58:39 +0000";
layers = (
{
layerId = "C6C3B4F4-9047-4AEA-9672-C83927A9B560";
paths = (
{
closed = 1;
nodes = (
"347 0 LINE",
"424 0 LINE",
"424 549 LINE",
"347 549 LINE"
);
},
{
closed = 1;
nodes = (
"132 279 LINE",
"440 543 LINE",
"388 595 LINE",
"80 330 LINE"
);
},
{
closed = 1;
nodes = (
"336 544 LINE",
"629 290 LINE",
"681 341 LINE",
"388 596 LINE"
);
}
);
width = 761;
},
{
layerId = "2731C349-77E1-43A4-A9DD-A1DF19151D5D";
paths = (
{
closed = 1;
nodes = (
"320 -27 LINE",
"451 -27 LINE",
"451 576 LINE",
"320 576 LINE"
);
},
{
closed = 1;
nodes = (
"131 242 LINE",
"480 541 LINE",
"389 632 LINE",
"40 331 LINE"
);
},
{
closed = 1;
nodes = (
"296 543 LINE",
"630 253 LINE",
"721 342 LINE",
"387 633 LINE"
);
}
);
width = 761;
}
);
unicode = 2191;
},
{
glyphname = upDoubleArrow;
lastChange = "2019-09-06 18:58:39 +0000";
layers = (
{
layerId = "C6C3B4F4-9047-4AEA-9672-C83927A9B560";
paths = (
{
closed = 1;
nodes = (
"511 0 LINE",
"574 0 LINE",
"574 555 LINE",
"779 344 LINE",
"831 404 LINE",
"511 706 LINE"
);
},
{
closed = 1;
nodes = (
"401 706 LINE",
"380 707 LINE",
"80 391 LINE",
"132 331 LINE",
"347 549 LINE",
"347 0 LINE",
"401 0 LINE"
);
}
);
width = 911;
},
{
layerId = "2731C349-77E1-43A4-A9DD-A1DF19151D5D";
paths = (
{
closed = 1;
nodes = (
"409 -27 LINE",
"526 -27 LINE",
"526 488 LINE",
"705 304 LINE",
"793 406 LINE",
"409 769 LINE"
);
},
{
closed = 1;
nodes = (
"353 732 LINE",
"294 735 LINE",
"-31 392 LINE",
"56 291 LINE",
"245 483 LINE",
"245 -27 LINE",
"353 -27 LINE"
);
}
);
width = 761;
}
);
unicode = 21D1;
},
{
glyphname = rightDoubleArrow;
lastChange = "2019-09-06 18:58:39 +0000";
layers = (
{
layerId = "C6C3B4F4-9047-4AEA-9672-C83927A9B560";
paths = (
{
closed = 1;
nodes = (
"80 304 LINE",
"668 304 LINE",
"668 352 LINE",
"80 352 LINE"
);
},
{
closed = 1;
nodes = (
"80 154 LINE",
"668 154 LINE",
"668 202 LINE",
"80 202 LINE"
);
},
{
closed = 1;
nodes = (
"560 19 OFFCURVE",
"628 149 OFFCURVE",
"772 265 CURVE",
"628 410 OFFCURVE",
"577 491 OFFCURVE",
"532 592 CURVE",
"490 537 OFFCURVE",
"510 565 OFFCURVE",
"470 511 CURVE",
"528 454 OFFCURVE",
"570 368 OFFCURVE",
"673 265 CURVE",
"570 190 OFFCURVE",
"539 143 OFFCURVE",
"472 58 CURVE",
"492 34 OFFCURVE",
"500 24 OFFCURVE",
"532 -25 CURVE"
);
}
);
width = 852;
},
{
layerId = "2731C349-77E1-43A4-A9DD-A1DF19151D5D";
paths = (
{
closed = 1;
nodes = (
"-73 277 LINE",
"569 277 LINE",
"569 379 LINE",
"-73 379 LINE"
);
},
{
closed = 1;
nodes = (
"-73 127 LINE",
"569 127 LINE",
"569 229 LINE",
"-73 229 LINE"
);
},
{
closed = 1;
nodes = (
"429 -39 LINE",
"457 5 OFFCURVE",
"523 132 OFFCURVE",
"663 244 CURVE",
"665 284 LINE",
"523 427 OFFCURVE",
"475 504 OFFCURVE",
"431 603 CURVE",
"385 608 LINE",
"343 553 OFFCURVE",
"363 582 OFFCURVE",
"322 527 CURVE",
"325 492 LINE",
"376 441 OFFCURVE",
"416 364 OFFCURVE",
"506 268 CURVE",
"419 201 OFFCURVE",
"386 152 OFFCURVE",
"325 75 CURVE",
"325 41 LINE",
"345 17 OFFCURVE",
"352 8 OFFCURVE",
"383 -40 CURVE"
);
}
);
width = 600;
}
);
unicode = 21D2;
},
{
glyphname = rightHeavyWideHeadedArrow;
lastChange = "2019-09-06 18:58:39 +0000";
layers = (
{
layerId = "C6C3B4F4-9047-4AEA-9672-C83927A9B560";
paths = (
{
closed = 1;
nodes = (
"80 333 LINE",
"80 181 LINE",
"604 181 LINE",
"604 333 LINE"
);
},
{
closed = 1;
nodes = (
"340 489 LINE",
"604 181 LINE",
"675 252 LINE",
"410 560 LINE"
);
},
{
closed = 1;
nodes = (
"604 335 LINE",
"340 59 LINE",
"410 -24 LINE",
"676 252 LINE"
);
}
);
width = 756;
},
{
layerId = "2731C349-77E1-43A4-A9DD-A1DF19151D5D";
paths = (
{
closed = 1;
nodes = (
"53 360 LINE",
"53 154 LINE",
"631 154 LINE",
"631 360 LINE"
);
},
{
closed = 1;
nodes = (
"303 490 LINE",
"602 141 LINE",
"712 251 LINE",
"411 600 LINE"
);
},
{
closed = 1;
nodes = (
"605 375 LINE",
"304 60 LINE",
"409 -64 LINE",
"713 251 LINE"
);
}
);
width = 756;
}
);
unicode = 2794;
},
{
glyphname = rightBlackArrowhead;
lastChange = "2019-09-06 18:58:39 +0000";
layers = (
{
layerId = "C6C3B4F4-9047-4AEA-9672-C83927A9B560";
paths = (
{
closed = 1;
nodes = (
"255 343 LINE",
"80 38 LINE",
"728 342 LINE",
"80 649 LINE"
);
}
);
width = 808;
},
{
layerId = "2731C349-77E1-43A4-A9DD-A1DF19151D5D";
paths = (
{
closed = 1;
nodes = (
"120 343 LINE",
"-90 -23 LINE",
"687 342 LINE",
"-90 710 LINE"
);
}
);
width = 600;
}
);
unicode = 27A4;
},
{
glyphname = rightHeavyCircledWhiteArrow;
lastChange = "2019-09-06 18:58:39 +0000";
layers = (
{
layerId = "C6C3B4F4-9047-4AEA-9672-C83927A9B560";
paths = (
{
closed = 1;
nodes = (
"740 -4 OFFCURVE",
"938 153 OFFCURVE",
"938 348 CURVE SMOOTH",
"938 542 OFFCURVE",
"740 699 OFFCURVE",
"496 699 CURVE SMOOTH",
"305 699 OFFCURVE",
"142 603 OFFCURVE",
"80 468 CURVE",
"80 429 LINE",
"149 429 OFFCURVE",
"541 429 OFFCURVE",
"615 454 CURVE",
"615 237 LINE",
"541 262 OFFCURVE",
"149 254 OFFCURVE",
"80 254 CURVE",
"80 228 LINE",
"142 92 OFFCURVE",
"305 -4 OFFCURVE",
"496 -4 CURVE SMOOTH"
);
},
{
closed = 1;
nodes = (
"615 659 LINE",
"938 348 LINE",
"615 42 LINE"
);
}
);
width = 1018;
},
{
layerId = "2731C349-77E1-43A4-A9DD-A1DF19151D5D";
paths = (
{
closed = 1;
nodes = (
"767 -3 OFFCURVE",
"985 63 OFFCURVE",
"985 381 CURVE SMOOTH",
"985 705 OFFCURVE",
"767 776 OFFCURVE",
"534 776 CURVE",
"358 776 OFFCURVE",
"100 705 OFFCURVE",
"100 496 CURVE",
"100 484 LINE",
"232 484 OFFCURVE",
"430 486 OFFCURVE",
"591 511 CURVE",
"591 247 LINE",
"438 268 OFFCURVE",
"234 266 OFFCURVE",
"100 266 CURVE SMOOTH",
"100 266 LINE",
"100 62 OFFCURVE",
"357 -3 OFFCURVE",
"534 -3 CURVE SMOOTH"
);
},
{
closed = 1;
nodes = (
"591 743 LINE",
"967 381 LINE",
"591 25 LINE"
);
}
);
width = 1072;
}
);
unicode = 27B2;
},
{
glyphname = blackCircle;
lastChange = "2019-09-06 18:58:39 +0000";
layers = (
{
layerId = "C6C3B4F4-9047-4AEA-9672-C83927A9B560";
paths = (
{
closed = 1;
nodes = (
"678 -28 OFFCURVE",
"850 144 OFFCURVE",
"850 357 CURVE SMOOTH",
"850 569 OFFCURVE",
"678 741 OFFCURVE",
"466 741 CURVE SMOOTH",
"253 741 OFFCURVE",
"80 569 OFFCURVE",
"80 357 CURVE SMOOTH",
"80 144 OFFCURVE",
"253 -28 OFFCURVE",
"466 -28 CURVE SMOOTH"
);
}
);
width = 930;
},
{
layerId = "2731C349-77E1-43A4-A9DD-A1DF19151D5D";
paths = (
{
closed = 1;
nodes = (
"528 -55 OFFCURVE",
"712 129 OFFCURVE",
"712 357 CURVE SMOOTH",
"712 584 OFFCURVE",
"528 768 OFFCURVE",
"301 768 CURVE SMOOTH",
"73 768 OFFCURVE",
"-112 584 OFFCURVE",
"-112 357 CURVE SMOOTH",
"-112 129 OFFCURVE",
"73 -55 OFFCURVE",
"301 -55 CURVE SMOOTH"
);
}
);
width = 600;
}
);
unicode = 25CF;
},
{
glyphname = whiteCircle;
lastChange = "2019-09-06 18:58:39 +0000";
layers = (
{
layerId = "C6C3B4F4-9047-4AEA-9672-C83927A9B560";
paths = (
{
closed = 1;
nodes = (
"667 -26 OFFCURVE",
"836 143 OFFCURVE",
"836 351 CURVE SMOOTH",
"836 559 OFFCURVE",
"667 728 OFFCURVE",
"459 728 CURVE SMOOTH",
"250 728 OFFCURVE",
"80 559 OFFCURVE",
"80 351 CURVE SMOOTH",
"80 143 OFFCURVE",
"250 -26 OFFCURVE",
"459 -26 CURVE SMOOTH"
);
},
{
closed = 1;
nodes = (
"287 39 OFFCURVE",
"147 178 OFFCURVE",
"147 350 CURVE SMOOTH",
"147 522 OFFCURVE",
"287 661 OFFCURVE",
"459 661 CURVE SMOOTH",
"631 661 OFFCURVE",
"770 522 OFFCURVE",
"770 350 CURVE SMOOTH",
"770 178 OFFCURVE",
"631 39 OFFCURVE",
"459 39 CURVE"
);
}
);
width = 916;
},
{
layerId = "2731C349-77E1-43A4-A9DD-A1DF19151D5D";
paths = (
{
closed = 1;
nodes = (
"524 -53 OFFCURVE",
"705 128 OFFCURVE",
"705 351 CURVE SMOOTH",
"705 574 OFFCURVE",
"524 755 OFFCURVE",
"301 755 CURVE SMOOTH",
"77 755 OFFCURVE",
"-105 574 OFFCURVE",
"-105 351 CURVE SMOOTH",
"-105 128 OFFCURVE",
"77 -53 OFFCURVE",
"301 -53 CURVE SMOOTH"
);
},
{
closed = 1;
nodes = (
"144 66 OFFCURVE",
"16 193 OFFCURVE",
"16 350 CURVE SMOOTH",
"16 507 OFFCURVE",
"144 634 OFFCURVE",
"301 634 CURVE SMOOTH",
"458 634 OFFCURVE",
"585 507 OFFCURVE",
"585 350 CURVE SMOOTH",
"585 193 OFFCURVE",
"458 66 OFFCURVE",
"301 66 CURVE SMOOTH"
);
}
);
width = 600;
}
);
unicode = 25CB;
},
{
glyphname = largeCircle;
lastChange = "2019-09-06 18:58:39 +0000";
layers = (
{
layerId = "C6C3B4F4-9047-4AEA-9672-C83927A9B560";
paths = (
{
closed = 1;
nodes = (
"736 -35 OFFCURVE",
"925 154 OFFCURVE",
"925 387 CURVE SMOOTH",
"925 619 OFFCURVE",
"736 809 OFFCURVE",
"503 809 CURVE SMOOTH",
"270 809 OFFCURVE",
"80 619 OFFCURVE",
"80 387 CURVE SMOOTH",
"80 154 OFFCURVE",
"270 -35 OFFCURVE",
"503 -35 CURVE SMOOTH"
);
},
{
closed = 1;
nodes = (
"292 3 OFFCURVE",
"120 174 OFFCURVE",
"120 386 CURVE SMOOTH",
"120 597 OFFCURVE",
"292 768 OFFCURVE",
"504 768 CURVE SMOOTH",
"716 768 OFFCURVE",
"887 597 OFFCURVE",
"887 386 CURVE SMOOTH",
"887 174 OFFCURVE",
"716 3 OFFCURVE",
"504 3 CURVE"
);
}
);
width = 1005;
},
{
layerId = "2731C349-77E1-43A4-A9DD-A1DF19151D5D";
paths = (
{
closed = 1;
nodes = (
"548 -62 OFFCURVE",
"749 139 OFFCURVE",
"749 387 CURVE SMOOTH",
"749 634 OFFCURVE",
"547 836 OFFCURVE",
"300 836 CURVE SMOOTH",
"52 836 OFFCURVE",
"-150 634 OFFCURVE",
"-150 387 CURVE SMOOTH",
"-150 139 OFFCURVE",
"52 -62 OFFCURVE",
"300 -62 CURVE SMOOTH"
);
},
{
closed = 1;
nodes = (
"104 30 OFFCURVE",
"-56 189 OFFCURVE",
"-56 386 CURVE SMOOTH",
"-56 582 OFFCURVE",
"104 741 OFFCURVE",
"301 741 CURVE SMOOTH",
"498 741 OFFCURVE",
"657 582 OFFCURVE",
"657 386 CURVE SMOOTH",
"657 189 OFFCURVE",
"498 30 OFFCURVE",
"301 30 CURVE SMOOTH"
);
}
);
width = 600;
}
);
unicode = 25EF;
},
{
glyphname = whiteBullet;
lastChange = "2019-09-06 18:58:39 +0000";
layers = (
{
layerId = "C6C3B4F4-9047-4AEA-9672-C83927A9B560";
paths = (
{
closed = 1;
nodes = (
"165 158 OFFCURVE",
"112 211 OFFCURVE",
"112 276 CURVE SMOOTH",
"112 340 OFFCURVE",
"165 393 OFFCURVE",
"230 393 CURVE SMOOTH",
"294 393 OFFCURVE",
"347 340 OFFCURVE",
"347 276 CURVE SMOOTH",
"347 211 OFFCURVE",
"294 158 OFFCURVE",
"230 158 CURVE SMOOTH"
);
},
{
closed = 1;
nodes = (
"312 126 OFFCURVE",
"379 193 OFFCURVE",
"379 276 CURVE SMOOTH",
"379 358 OFFCURVE",
"312 425 OFFCURVE",
"230 425 CURVE SMOOTH",
"147 425 OFFCURVE",
"80 358 OFFCURVE",
"80 276 CURVE SMOOTH",
"80 193 OFFCURVE",
"147 126 OFFCURVE",
"230 126 CURVE SMOOTH"
);
}
);
width = 459;
},
{
layerId = "2731C349-77E1-43A4-A9DD-A1DF19151D5D";
paths = (
{
closed = 1;
nodes = (
"251 185 OFFCURVE",
"210 226 OFFCURVE",
"210 276 CURVE SMOOTH",
"210 325 OFFCURVE",
"251 366 OFFCURVE",
"301 366 CURVE SMOOTH",
"350 366 OFFCURVE",
"391 325 OFFCURVE",
"391 276 CURVE SMOOTH",
"391 226 OFFCURVE",
"350 185 OFFCURVE",
"301 185 CURVE SMOOTH"
);
},
{
closed = 1;
nodes = (
"398 99 OFFCURVE",
"477 178 OFFCURVE",
"477 276 CURVE SMOOTH",
"477 373 OFFCURVE",
"398 452 OFFCURVE",
"301 452 CURVE SMOOTH",
"203 452 OFFCURVE",
"124 373 OFFCURVE",
"124 276 CURVE SMOOTH",
"124 178 OFFCURVE",
"203 99 OFFCURVE",
"301 99 CURVE SMOOTH"
);
}
);
width = 600;
}
);
unicode = 25E6;
},
{
glyphname = inverseBullet;
lastChange = "2019-09-06 18:58:39 +0000";
layers = (
{
layerId = "C6C3B4F4-9047-4AEA-9672-C83927A9B560";
paths = (
{
closed = 1;
nodes = (
"80 0 LINE",
"644 0 LINE",
"644 567 LINE",
"80 567 LINE"
);
},
{
closed = 1;
nodes = (
"292 154 OFFCURVE",
"235 211 OFFCURVE",
"235 282 CURVE SMOOTH",
"235 353 OFFCURVE",
"292 410 OFFCURVE",
"363 410 CURVE SMOOTH",
"434 410 OFFCURVE",
"491 353 OFFCURVE",
"491 282 CURVE SMOOTH",
"491 212 OFFCURVE",
"434 154 OFFCURVE",
"363 154 CURVE SMOOTH"
);
}
);
width = 724;
},
{
layerId = "2731C349-77E1-43A4-A9DD-A1DF19151D5D";
paths = (
{
closed = 1;
nodes = (
"-9 -27 LINE",
"609 -27 LINE",
"609 594 LINE",
"-9 594 LINE"
);
},
{
closed = 1;
nodes = (
"245 181 OFFCURVE",
"200 226 OFFCURVE",
"200 282 CURVE SMOOTH",
"200 338 OFFCURVE",
"245 383 OFFCURVE",
"301 383 CURVE SMOOTH",
"357 383 OFFCURVE",
"402 338 OFFCURVE",
"402 282 CURVE SMOOTH",
"402 226 OFFCURVE",
"357 181 OFFCURVE",
"301 181 CURVE SMOOTH"
);
}
);
width = 600;
}
);
unicode = 25D8;
},
{
glyphname = inverseWhiteCircle;
lastChange = "2019-09-06 18:58:39 +0000";
layers = (
{
layerId = "C6C3B4F4-9047-4AEA-9672-C83927A9B560";
paths = (
{
closed = 1;
nodes = (
"80 0 LINE",
"644 0 LINE",
"644 567 LINE",
"80 567 LINE"
);
},
{
closed = 1;
nodes = (
"225 33 OFFCURVE",
"114 144 OFFCURVE",
"114 282 CURVE SMOOTH",
"114 420 OFFCURVE",
"225 531 OFFCURVE",
"363 531 CURVE SMOOTH",
"501 531 OFFCURVE",
"612 420 OFFCURVE",
"612 282 CURVE SMOOTH",
"612 144 OFFCURVE",
"501 33 OFFCURVE",
"363 33 CURVE SMOOTH"
);
},
{
closed = 1;
nodes = (
"484 64 OFFCURVE",
"581 161 OFFCURVE",
"581 281 CURVE SMOOTH",
"581 400 OFFCURVE",
"484 497 OFFCURVE",
"365 497 CURVE SMOOTH",
"245 497 OFFCURVE",
"148 400 OFFCURVE",
"148 281 CURVE SMOOTH",
"148 161 OFFCURVE",
"245 64 OFFCURVE",
"365 64 CURVE SMOOTH"
);
}
);
width = 724;
},
{
layerId = "2731C349-77E1-43A4-A9DD-A1DF19151D5D";
paths = (
{
closed = 1;
nodes = (
"-9 -27 LINE",
"609 -27 LINE",
"609 594 LINE",
"-9 594 LINE"
);
},
{
closed = 1;
nodes = (
"178 60 OFFCURVE",
"79 159 OFFCURVE",
"79 282 CURVE SMOOTH",
"79 405 OFFCURVE",
"178 504 OFFCURVE",
"301 504 CURVE SMOOTH",
"424 504 OFFCURVE",
"523 405 OFFCURVE",
"523 282 CURVE SMOOTH",
"523 159 OFFCURVE",
"424 60 OFFCURVE",
"301 60 CURVE SMOOTH"
);
},
{
closed = 1;
nodes = (
"437 37 OFFCURVE",
"546 146 OFFCURVE",
"546 281 CURVE SMOOTH",
"546 415 OFFCURVE",
"437 524 OFFCURVE",
"303 524 CURVE SMOOTH",
"168 524 OFFCURVE",
"59 415 OFFCURVE",
"59 281 CURVE SMOOTH",
"59 146 OFFCURVE",
"168 37 OFFCURVE",
"303 37 CURVE SMOOTH"
);
}
);
width = 600;
}
);
unicode = 25D9;
},
{
glyphname = lozenge;
lastChange = "2019-09-06 18:58:39 +0000";
layers = (
{
layerId = "C6C3B4F4-9047-4AEA-9672-C83927A9B560";
paths = (
{
closed = 1;
nodes = (
"325 -102 LINE",
"550 270 LINE",
"550 334 LINE",
"325 758 LINE",
"80 334 LINE",
"80 270 LINE"
);
},
{
closed = 1;
nodes = (
"155 362 LINE",
"322 652 LINE",
"476 362 LINE",
"476 318 LINE",
"322 65 LINE",
"155 318 LINE"
);
}
);
width = 630;
},
{
layerId = "2731C349-77E1-43A4-A9DD-A1DF19151D5D";
paths = (
{
closed = 1;
nodes = (
"326 -153 LINE",
"577 262 LINE",
"577 341 LINE",
"326 814 LINE",
"53 341 LINE",
"53 262 LINE"
);
},
{
closed = 1;
nodes = (
"182 355 LINE",
"321 596 LINE",
"449 355 LINE",
"449 326 LINE",
"321 115 LINE",
"182 326 LINE"
);
}
);
width = 630;
}
);
unicode = 25CA;
},
{
glyphname = blackVerticalRect;
lastChange = "2019-09-06 18:58:39 +0000";
layers = (
{
layerId = "C6C3B4F4-9047-4AEA-9672-C83927A9B560";
paths = (
{
closed = 1;
nodes = (
"80 159 LINE",
"292 159 LINE",
"292 591 LINE",
"80 591 LINE"
);
}
);
width = 372;
},
{
layerId = "2731C349-77E1-43A4-A9DD-A1DF19151D5D";
paths = (
{
closed = 1;
nodes = (
"167 132 LINE",
"433 132 LINE",
"433 618 LINE",
"167 618 LINE"
);
}
);
width = 600;
}
);
unicode = 25AE;
},
{
glyphname = filledRect;
lastChange = "2019-09-06 18:58:39 +0000";
layers = (
{
layerId = "C6C3B4F4-9047-4AEA-9672-C83927A9B560";
paths = (
{
closed = 1;
nodes = (
"80 195 LINE",
"680 195 LINE",
"680 306 LINE",
"80 306 LINE"
);
}
);
width = 760;
},
{
layerId = "2731C349-77E1-43A4-A9DD-A1DF19151D5D";
paths = (
{
closed = 1;
nodes = (
"-27 168 LINE",
"627 168 LINE",
"627 333 LINE",
"-27 333 LINE"
);
}
);
width = 600;
}
);
unicode = 25AC;
},
{
glyphname = whiteRect;
lastChange = "2019-09-06 18:58:39 +0000";
layers = (
{
layerId = "C6C3B4F4-9047-4AEA-9672-C83927A9B560";
paths = (
{
closed = 1;
nodes = (
"80 191 LINE",
"934 191 LINE",
"934 606 LINE",
"80 606 LINE"
);
},
{
closed = 1;
nodes = (
"863 550 LINE",
"863 248 LINE",
"157 248 LINE",
"157 550 LINE"
);
}
);
width = 1014;
},
{
layerId = "2731C349-77E1-43A4-A9DD-A1DF19151D5D";
paths = (
{
closed = 1;
nodes = (
"-154 164 LINE",
"754 164 LINE",
"754 633 LINE",
"-154 633 LINE"
);
},
{
closed = 1;
nodes = (
"629 523 LINE",
"629 275 LINE",
"-23 275 LINE",
"-23 523 LINE"
);
}
);
width = 600;
}
);
unicode = 25AD;
},
{
glyphname = whiteVerticalRect;
lastChange = "2019-09-06 18:58:39 +0000";
layers = (
{
layerId = "C6C3B4F4-9047-4AEA-9672-C83927A9B560";
paths = (
{
closed = 1;
nodes = (
"80 162 LINE",
"296 162 LINE",
"296 590 LINE",
"80 590 LINE"
);
},
{
closed = 1;
nodes = (
"269 554 LINE",
"269 205 LINE",
"107 205 LINE",
"107 554 LINE"
);
}
);
width = 376;
},
{
layerId = "2731C349-77E1-43A4-A9DD-A1DF19151D5D";
paths = (
{
closed = 1;
nodes = (
"165 135 LINE",
"435 135 LINE",
"435 617 LINE",
"165 617 LINE"
);
},
{
closed = 1;
nodes = (
"354 527 LINE",
"354 232 LINE",
"246 232 LINE",
"246 527 LINE"
);
}
);
width = 600;
}
);
unicode = 25AF;
},
{
glyphname = blackSquare;
lastChange = "2019-09-06 18:58:39 +0000";
layers = (
{
layerId = "C6C3B4F4-9047-4AEA-9672-C83927A9B560";
paths = (
{
closed = 1;
nodes = (
"80 57 LINE SMOOTH",
"80 12 OFFCURVE",
"105 -13 OFFCURVE",
"150 -13 CURVE SMOOTH",
"728 -13 LINE SMOOTH",
"773 -13 OFFCURVE",
"798 12 OFFCURVE",
"798 57 CURVE SMOOTH",
"798 649 LINE SMOOTH",
"798 694 OFFCURVE",
"773 719 OFFCURVE",
"728 719 CURVE SMOOTH",
"150 719 LINE SMOOTH",
"105 719 OFFCURVE",
"80 694 OFFCURVE",
"80 649 CURVE SMOOTH"
);
}
);
width = 878;
},
{
layerId = "2731C349-77E1-43A4-A9DD-A1DF19151D5D";
paths = (
{
closed = 1;
nodes = (
"-86 57 LINE SMOOTH",
"-86 -3 OFFCURVE",
"-49 -40 OFFCURVE",
"11 -40 CURVE SMOOTH",
"589 -40 LINE SMOOTH",
"649 -40 OFFCURVE",
"686 -3 OFFCURVE",
"686 57 CURVE SMOOTH",
"686 649 LINE SMOOTH",
"686 709 OFFCURVE",
"649 746 OFFCURVE",
"589 746 CURVE SMOOTH",
"11 746 LINE SMOOTH",
"-49 746 OFFCURVE",
"-86 709 OFFCURVE",
"-86 649 CURVE SMOOTH"
);
}
);
width = 600;
}
);
unicode = 25A0;
},
{
glyphname = whiteSquare;
lastChange = "2019-09-06 18:58:39 +0000";
layers = (
{
layerId = "C6C3B4F4-9047-4AEA-9672-C83927A9B560";
paths = (
{
closed = 1;
nodes = (
"80 57 LINE SMOOTH",
"80 12 OFFCURVE",
"105 -13 OFFCURVE",
"150 -13 CURVE SMOOTH",
"728 -13 LINE SMOOTH",
"773 -13 OFFCURVE",
"798 12 OFFCURVE",
"798 57 CURVE SMOOTH",
"798 649 LINE SMOOTH",
"798 694 OFFCURVE",
"773 719 OFFCURVE",
"728 719 CURVE SMOOTH",
"150 719 LINE SMOOTH",
"105 719 OFFCURVE",
"80 694 OFFCURVE",
"80 649 CURVE SMOOTH"
);
},
{
closed = 1;
nodes = (
"142 635 OFFCURVE",
"163 655 OFFCURVE",
"200 655 CURVE SMOOTH",
"678 655 LINE SMOOTH",
"715 655 OFFCURVE",
"736 635 OFFCURVE",
"736 598 CURVE SMOOTH",
"736 108 LINE SMOOTH",
"736 71 OFFCURVE",
"715 51 OFFCURVE",
"678 51 CURVE SMOOTH",
"200 51 LINE SMOOTH",
"163 51 OFFCURVE",
"142 71 OFFCURVE",
"142 108 CURVE SMOOTH",
"142 598 LINE SMOOTH"
);
}
);
width = 878;
},
{
layerId = "2731C349-77E1-43A4-A9DD-A1DF19151D5D";
paths = (
{
closed = 1;
nodes = (
"-86 57 LINE SMOOTH",
"-86 -3 OFFCURVE",
"-49 -40 OFFCURVE",
"11 -40 CURVE SMOOTH",
"589 -40 LINE SMOOTH",
"649 -40 OFFCURVE",
"686 -3 OFFCURVE",
"686 57 CURVE SMOOTH",
"686 649 LINE SMOOTH",
"686 709 OFFCURVE",
"649 746 OFFCURVE",
"589 746 CURVE SMOOTH",
"11 746 LINE SMOOTH",
"-49 746 OFFCURVE",
"-86 709 OFFCURVE",
"-86 649 CURVE SMOOTH"
);
},
{
closed = 1;
nodes = (
"30 620 OFFCURVE",
"39 628 OFFCURVE",
"61 628 CURVE SMOOTH",
"539 628 LINE SMOOTH",
"561 628 OFFCURVE",
"570 620 OFFCURVE",
"570 598 CURVE SMOOTH",
"570 108 LINE SMOOTH",
"570 86 OFFCURVE",
"561 78 OFFCURVE",
"539 78 CURVE SMOOTH",
"61 78 LINE SMOOTH",
"39 78 OFFCURVE",
"30 86 OFFCURVE",
"30 108 CURVE SMOOTH",
"30 598 LINE SMOOTH"
);
}
);
width = 600;
}
);
unicode = 25A1;
},
{
glyphname = blackSmallSquare;
lastChange = "2019-09-06 18:58:39 +0000";
layers = (
{
layerId = "C6C3B4F4-9047-4AEA-9672-C83927A9B560";
paths = (
{
closed = 1;
nodes = (
"80 143 LINE",
"371 143 LINE",
"371 435 LINE",
"80 435 LINE"
);
}
);
width = 451;
},
{
layerId = "2731C349-77E1-43A4-A9DD-A1DF19151D5D";
paths = (
{
closed = 1;
nodes = (
"128 116 LINE",
"473 116 LINE",
"473 462 LINE",
"128 462 LINE"
);
}
);
width = 600;
}
);
unicode = 25AA;
},
{
glyphname = whiteSmallSquare;
lastChange = "2019-09-06 18:58:39 +0000";
layers = (
{
components = (
{
name = blackSmallSquare;
}
);
layerId = "C6C3B4F4-9047-4AEA-9672-C83927A9B560";
paths = (
{
closed = 1;
nodes = (
"341 399 LINE",
"341 179 LINE",
"113 179 LINE",
"113 399 LINE"
);
}
);
width = 491;
},
{
components = (
{
name = blackSmallSquare;
transform = "{1, 0, 0, 1, -1, 0}";
}
);
layerId = "2731C349-77E1-43A4-A9DD-A1DF19151D5D";
paths = (
{
closed = 1;
nodes = (
"383 372 LINE",
"383 206 LINE",
"219 206 LINE",
"219 372 LINE"
);
}
);
width = 600;
}
);
unicode = 25AB;
},
{
glyphname = upWhiteTriangle;
lastChange = "2019-09-06 18:58:39 +0000";
layers = (
{
layerId = "C6C3B4F4-9047-4AEA-9672-C83927A9B560";
paths = (
{
closed = 1;
nodes = (
"687 55 OFFCURVE",
"716 102 OFFCURVE",
"682 164 CURVE SMOOTH",
"446 610 LINE SMOOTH",
"412 675 OFFCURVE",
"355 675 OFFCURVE",
"322 610 CURVE SMOOTH",
"93 161 LINE SMOOTH",
"60 96 OFFCURVE",
"91 55 OFFCURVE",
"161 55 CURVE SMOOTH",
"617 55 LINE SMOOTH"
);
},
{
closed = 1;
nodes = (
"234 127 LINE SMOOTH",
"185 127 OFFCURVE",
"166 155 OFFCURVE",
"187 199 CURVE SMOOTH",
"344 524 LINE SMOOTH",
"365 568 OFFCURVE",
"406 569 OFFCURVE",
"428 524 CURVE SMOOTH",
"590 201 LINE SMOOTH",
"611 158 OFFCURVE",
"594 127 OFFCURVE",
"545 127 CURVE SMOOTH"
);
}
);
width = 776;
},
{
layerId = "2731C349-77E1-43A4-A9DD-A1DF19151D5D";
paths = (
{
closed = 1;
nodes = (
"620 28 OFFCURVE",
"661 97 OFFCURVE",
"618 177 CURVE SMOOTH",
"382 623 LINE SMOOTH",
"338 707 OFFCURVE",
"253 707 OFFCURVE",
"210 622 CURVE SMOOTH",
"-19 173 LINE SMOOTH",
"-60 92 OFFCURVE",
"-19 28 OFFCURVE",
"73 28 CURVE SMOOTH",
"529 28 LINE SMOOTH"
);
},
{
closed = 1;
nodes = (
"146 154 LINE SMOOTH",
"116 154 OFFCURVE",
"111 162 OFFCURVE",
"123 187 CURVE SMOOTH",
"280 512 LINE SMOOTH",
"292 536 OFFCURVE",
"304 537 OFFCURVE",
"316 512 CURVE SMOOTH",
"478 189 LINE SMOOTH",
"490 163 OFFCURVE",
"484 154 OFFCURVE",
"457 154 CURVE SMOOTH"
);
}
);
width = 600;
}
);
unicode = 25B3;
},
{
glyphname = rightBlackPointer;
lastChange = "2019-09-06 18:58:39 +0000";
layers = (
{
layerId = "C6C3B4F4-9047-4AEA-9672-C83927A9B560";
paths = (
{
closed = 1;
nodes = (
"80 168 LINE SMOOTH",
"80 91 OFFCURVE",
"120 64 OFFCURVE",
"197 94 CURVE SMOOTH",
"690 285 LINE SMOOTH",
"821 336 OFFCURVE",
"820 369 OFFCURVE",
"690 422 CURVE SMOOTH",
"200 621 LINE SMOOTH",
"127 650 OFFCURVE",
"80 627 OFFCURVE",
"80 550 CURVE SMOOTH"
);
}
);
width = 868;
},
{
layerId = "2731C349-77E1-43A4-A9DD-A1DF19151D5D";
paths = (
{
closed = 1;
nodes = (
"-81 168 LINE SMOOTH",
"-81 71 OFFCURVE",
"-21 32 OFFCURVE",
"73 69 CURVE SMOOTH",
"566 260 LINE SMOOTH",
"720 320 OFFCURVE",
"722 384 OFFCURVE",
"566 447 CURVE SMOOTH",
"76 646 LINE SMOOTH",
"-17 683 OFFCURVE",
"-81 644 OFFCURVE",
"-81 550 CURVE SMOOTH"
);
}
);
width = 600;
}
);
unicode = 25BA;
},
{
glyphname = rightWhitePointer;
lastChange = "2019-09-06 18:58:39 +0000";
layers = (
{
guideLines = (
{
angle = -22.0724;
position = "{460, 525}";
}
);
layerId = "C6C3B4F4-9047-4AEA-9672-C83927A9B560";
paths = (
{
closed = 1;
nodes = (
"80 168 LINE SMOOTH",
"80 91 OFFCURVE",
"120 64 OFFCURVE",
"197 94 CURVE SMOOTH",
"690 285 LINE SMOOTH",
"821 336 OFFCURVE",
"820 369 OFFCURVE",
"690 422 CURVE SMOOTH",
"200 621 LINE SMOOTH",
"127 650 OFFCURVE",
"80 627 OFFCURVE",
"80 550 CURVE SMOOTH"
);
},
{
closed = 1;
nodes = (
"148 560 OFFCURVE",
"183 576 OFFCURVE",
"238 555 CURVE SMOOTH",
"626 406 LINE SMOOTH",
"733 365 OFFCURVE",
"734 343 OFFCURVE",
"626 303 CURVE SMOOTH",
"236 160 LINE SMOOTH",
"178 139 OFFCURVE",
"148 157 OFFCURVE",
"148 215 CURVE SMOOTH",
"148 502 LINE SMOOTH"
);
}
);
width = 868;
},
{
guideLines = (
{
angle = -22.0724;
position = "{132, 525}";
}
);
layerId = "2731C349-77E1-43A4-A9DD-A1DF19151D5D";
paths = (
{
closed = 1;
nodes = (
"-81 168 LINE SMOOTH",
"-81 71 OFFCURVE",
"-21 32 OFFCURVE",
"73 69 CURVE SMOOTH",
"566 260 LINE SMOOTH",
"720 320 OFFCURVE",
"722 384 OFFCURVE",
"566 447 CURVE SMOOTH",
"76 646 LINE SMOOTH",
"-17 683 OFFCURVE",
"-81 644 OFFCURVE",
"-81 550 CURVE SMOOTH"
);
},
{
closed = 1;
nodes = (
"41 537 OFFCURVE",
"53 545 OFFCURVE",
"94 530 CURVE SMOOTH",
"482 381 LINE SMOOTH",
"570 347 OFFCURVE",
"570 361 OFFCURVE",
"483 328 CURVE SMOOTH",
"93 185 LINE SMOOTH",
"51 170 OFFCURVE",
"41 178 OFFCURVE",
"41 215 CURVE SMOOTH",
"41 502 LINE SMOOTH"
);
}
);
width = 600;
}
);
unicode = 25BB;
},
{
glyphname = upWhiteSmallTriangle;
lastChange = "2019-09-06 18:58:39 +0000";
layers = (
{
layerId = "C6C3B4F4-9047-4AEA-9672-C83927A9B560";
paths = (
{
closed = 1;
nodes = (
"148 137 LINE SMOOTH",
"115 137 OFFCURVE",
"101 156 OFFCURVE",
"116 186 CURVE SMOOTH",
"223 395 LINE SMOOTH",
"238 426 OFFCURVE",
"265 426 OFFCURVE",
"281 395 CURVE SMOOTH",
"391 187 LINE SMOOTH",
"407 158 OFFCURVE",
"393 137 OFFCURVE",
"361 137 CURVE SMOOTH"
);
},
{
closed = 1;
nodes = (
"423 114 OFFCURVE",
"439 141 OFFCURVE",
"420 176 CURVE SMOOTH",
"287 428 LINE SMOOTH",
"268 464 OFFCURVE",
"236 464 OFFCURVE",
"217 428 CURVE SMOOTH",
"88 174 LINE SMOOTH",
"69 138 OFFCURVE",
"86 114 OFFCURVE",
"126 114 CURVE SMOOTH",
"384 114 LINE SMOOTH"
);
}
);
width = 508;
},
{
layerId = "2731C349-77E1-43A4-A9DD-A1DF19151D5D";
paths = (
{
closed = 1;
nodes = (
"194 164 LINE SMOOTH",
"179 164 OFFCURVE",
"180 163 OFFCURVE",
"186 174 CURVE SMOOTH",
"293 383 LINE SMOOTH",
"299 395 OFFCURVE",
"296 396 OFFCURVE",
"303 382 CURVE SMOOTH",
"413 174 LINE",
"419 164 OFFCURVE",
"420 164 OFFCURVE",
"407 164 CURVE SMOOTH"
);
},
{
closed = 1;
nodes = (
"490 87 OFFCURVE",
"518 136 OFFCURVE",
"490 189 CURVE SMOOTH",
"357 441 LINE SMOOTH",
"328 496 OFFCURVE",
"268 496 OFFCURVE",
"239 440 CURVE SMOOTH",
"110 186 LINE SMOOTH",
"82 133 OFFCURVE",
"111 87 OFFCURVE",
"172 87 CURVE SMOOTH",
"430 87 LINE SMOOTH"
);
}
);
width = 600;
}
);
unicode = 25B5;
},
{
glyphname = boxRightLightAndLeftVerticalHeavy;
lastChange = "2019-09-06 18:58:39 +0000";
layers = (
{
guideLines = (
{
position = "{242, 427}";
},
{
position = "{282, 301}";
},
{
angle = 90;
position = "{382, 622}";
},
{
angle = 90;
position = "{498, 562}";
},
{
position = "{545, 380}";
},
{
position = "{639, 338}";
}
);
layerId = "C6C3B4F4-9047-4AEA-9672-C83927A9B560";
paths = (
{
closed = 1;
nodes = (
"80 292 LINE",
"571 292 LINE",
"571 418 LINE",
"80 418 LINE"
);
},
{
closed = 1;
nodes = (
"453 -74 LINE",
"569 -74 LINE",
"569 784 LINE",
"453 784 LINE"
);
},
{
closed = 1;
nodes = (
"552 334 LINE",
"802 334 LINE",
"802 376 LINE",
"552 376 LINE"
);
}
);
width = 882;
},
{
guideLines = (
{
position = "{75, 427}";
},
{
position = "{85, 301}";
},
{
angle = 90;
position = "{110, 622}";
},
{
angle = 90;
position = "{139, 562}";
},
{
position = "{151, 380}";
},
{
position = "{175, 338}";
}
);
layerId = "2731C349-77E1-43A4-A9DD-A1DF19151D5D";
paths = (
{
closed = 1;
nodes = (
"-88 265 LINE",
"457 265 LINE",
"457 445 LINE",
"-88 445 LINE"
);
},
{
closed = 1;
nodes = (
"285 -101 LINE",
"455 -101 LINE",
"455 811 LINE",
"285 811 LINE"
);
},
{
closed = 1;
nodes = (
"384 307 LINE",
"688 307 LINE",
"688 403 LINE",
"384 403 LINE"
);
}
);
width = 600;
}
);
unicode = 2549;
},
{
glyphname = blackstar;
lastChange = "2019-09-06 18:58:39 +0000";
layers = (
{
guideLines = (
{
angle = 55.0695;
position = "{662, 271}";
},
{
position = "{219, 507}";
},
{
angle = 243.6437;
position = "{298, 446}";
},
{
angle = -62.6816;
position = "{531, 619}";
}
);
layerId = "C6C3B4F4-9047-4AEA-9672-C83927A9B560";
paths = (
{
closed = 1;
nodes = (
"605 467 OFFCURVE",
"617 488 OFFCURVE",
"602 517 CURVE SMOOTH",
"492 725 LINE SMOOTH",
"476 755 OFFCURVE",
"450 756 OFFCURVE",
"434 725 CURVE SMOOTH",
"328 516 LINE SMOOTH",
"313 486 OFFCURVE",
"327 467 OFFCURVE",
"359 467 CURVE SMOOTH",
"572 467 LINE SMOOTH"
);
},
{
closed = 1;
nodes = (
"252 334 OFFCURVE",
"230 324 OFFCURVE",
"225 293 CURVE SMOOTH",
"184 62 LINE SMOOTH",
"178 27 OFFCURVE",
"201 10 OFFCURVE",
"232 25 CURVE SMOOTH",
"443 126 LINE SMOOTH",
"473 140 OFFCURVE",
"471 165 OFFCURVE",
"446 184 CURVE SMOOTH",
"278 314 LINE SMOOTH"
);
},
{
closed = 1;
nodes = (
"439 162 OFFCURVE",
"442 138 OFFCURVE",
"471 125 CURVE SMOOTH",
"684 28 LINE SMOOTH",
"714 14 OFFCURVE",
"738 29 OFFCURVE",
"732 62 CURVE SMOOTH",
"688 293 LINE SMOOTH",
"682 326 OFFCURVE",
"659 333 OFFCURVE",
"632 312 CURVE SMOOTH",
"465 182 LINE SMOOTH"
);
},
{
closed = 1;
nodes = (
"644 267 OFFCURVE",
"668 265 OFFCURVE",
"687 292 CURVE SMOOTH",
"823 484 LINE SMOOTH",
"842 511 OFFCURVE",
"832 536 OFFCURVE",
"796 536 CURVE SMOOTH",
"562 536 LINE SMOOTH",
"529 536 OFFCURVE",
"519 514 OFFCURVE",
"533 486 CURVE SMOOTH",
"629 296 LINE SMOOTH"
);
},
{
closed = 1;
nodes = (
"398 515 OFFCURVE",
"385 536 OFFCURVE",
"352 536 CURVE SMOOTH",
"116 536 LINE SMOOTH",
"82 536 OFFCURVE",
"69 513 OFFCURVE",
"89 484 CURVE SMOOTH",
"225 293 LINE SMOOTH",
"244 266 OFFCURVE",
"268 269 OFFCURVE",
"283 297 CURVE SMOOTH",
"383 486 LINE SMOOTH"
);
},
{
closed = 1;
nodes = (
"558 161 OFFCURVE",
"642 245 OFFCURVE",
"642 349 CURVE SMOOTH",
"642 452 OFFCURVE",
"558 536 OFFCURVE",
"455 536 CURVE SMOOTH",
"351 536 OFFCURVE",
"267 452 OFFCURVE",
"267 349 CURVE SMOOTH",
"267 245 OFFCURVE",
"351 161 OFFCURVE",
"455 161 CURVE SMOOTH"
);
}
);
width = 912;
},
{
guideLines = (
{
angle = 55.0695;
position = "{177, 271}";
},
{
position = "{66, 507}";
},
{
angle = 243.6437;
position = "{86, 446}";
},
{
angle = -62.6816;
position = "{144, 619}";
}
);
layerId = "2731C349-77E1-43A4-A9DD-A1DF19151D5D";
paths = (
{
closed = 1;
nodes = (
"469 440 OFFCURVE",
"495 482 OFFCURVE",
"470 530 CURVE SMOOTH",
"360 738 LINE SMOOTH",
"333 788 OFFCURVE",
"280 787 OFFCURVE",
"254 737 CURVE SMOOTH",
"148 528 LINE SMOOTH",
"124 480 OFFCURVE",
"150 440 OFFCURVE",
"203 440 CURVE SMOOTH",
"416 440 LINE SMOOTH"
);
},
{
closed = 1;
nodes = (
"97 368 OFFCURVE",
"51 349 OFFCURVE",
"42 298 CURVE SMOOTH",
"1 67 LINE SMOOTH",
"-8 10 OFFCURVE",
"37 -24 OFFCURVE",
"88 1 CURVE SMOOTH",
"299 102 LINE SMOOTH",
"346 124 OFFCURVE",
"349 173 OFFCURVE",
"306 205 CURVE SMOOTH",
"138 335 LINE SMOOTH"
);
},
{
closed = 1;
nodes = (
"250 171 OFFCURVE",
"256 122 OFFCURVE",
"304 100 CURVE SMOOTH",
"517 3 LINE SMOOTH",
"567 -20 OFFCURVE",
"612 13 OFFCURVE",
"603 67 CURVE SMOOTH",
"559 298 LINE SMOOTH",
"549 350 OFFCURVE",
"503 367 OFFCURVE",
"459 333 CURVE SMOOTH",
"292 203 LINE SMOOTH"
);
},
{
closed = 1;
nodes = (
"473 237 OFFCURVE",
"522 233 OFFCURVE",
"553 276 CURVE SMOOTH",
"689 468 LINE SMOOTH",
"722 515 OFFCURVE",
"696 563 OFFCURVE",
"640 563 CURVE SMOOTH",
"406 563 LINE SMOOTH",
"354 563 OFFCURVE",
"329 521 OFFCURVE",
"353 474 CURVE SMOOTH",
"449 284 LINE SMOOTH"
);
},
{
closed = 1;
nodes = (
"275 520 OFFCURVE",
"250 563 OFFCURVE",
"196 563 CURVE SMOOTH",
"-40 563 LINE SMOOTH",
"-97 563 OFFCURVE",
"-121 515 OFFCURVE",
"-89 469 CURVE SMOOTH",
"47 277 LINE SMOOTH",
"77 235 OFFCURVE",
"126 238 OFFCURVE",
"151 284 CURVE SMOOTH",
"251 473 LINE SMOOTH"
);
},
{
closed = 1;
nodes = (
"417 134 OFFCURVE",
"513 230 OFFCURVE",
"513 349 CURVE SMOOTH",
"513 467 OFFCURVE",
"417 563 OFFCURVE",
"299 563 CURVE SMOOTH",
"180 563 OFFCURVE",
"84 467 OFFCURVE",
"84 349 CURVE SMOOTH",
"84 230 OFFCURVE",
"180 134 OFFCURVE",
"299 134 CURVE SMOOTH"
);
}
);
width = 600;
}
);
unicode = 2605;
},
{
glyphname = whitestar;
lastChange = "2019-09-06 18:58:39 +0000";
layers = (
{
layerId = "C6C3B4F4-9047-4AEA-9672-C83927A9B560";
paths = (
{
closed = 1;
nodes = (
"957 526 OFFCURVE",
"967 501 OFFCURVE",
"948 474 CURVE SMOOTH",
"813 283 LINE",
"857 52 LINE SMOOTH",
"863 19 OFFCURVE",
"839 4 OFFCURVE",
"809 18 CURVE SMOOTH",
"596 115 LINE",
"590 118 OFFCURVE",
"585 121 OFFCURVE",
"581 125 CURVE",
"578 121 OFFCURVE",
"573 119 OFFCURVE",
"568 116 CURVE",
"357 15 LINE SMOOTH",
"326 0 OFFCURVE",
"303 17 OFFCURVE",
"309 52 CURVE SMOOTH",
"350 283 LINE",
"214 474 LINE SMOOTH",
"194 503 OFFCURVE",
"207 526 OFFCURVE",
"241 526 CURVE SMOOTH",
"463 526 LINE",
"559 715 LINE SMOOTH",
"575 746 OFFCURVE",
"601 745 OFFCURVE",
"617 715 CURVE SMOOTH",
"717 526 LINE",
"921 526 LINE SMOOTH"
);
},
{
closed = 1;
nodes = (
"762 586 LINE",
"629 838 LINE SMOOTH",
"607 878 OFFCURVE",
"573 879 OFFCURVE",
"552 838 CURVE SMOOTH",
"424 586 LINE",
"129 586 LINE SMOOTH",
"83 586 OFFCURVE",
"66 556 OFFCURVE",
"93 517 CURVE SMOOTH",
"272 263 LINE",
"218 -44 LINE SMOOTH",
"210 -91 OFFCURVE",
"240 -114 OFFCURVE",
"283 -94 CURVE SMOOTH",
"564 41 LINE",
"570 45 OFFCURVE",
"577 47 OFFCURVE",
"581 53 CURVE",
"586 47 OFFCURVE",
"593 43 OFFCURVE",
"601 39 CURVE",
"884 -90 LINE SMOOTH",
"924 -108 OFFCURVE",
"956 -88 OFFCURVE",
"948 -44 CURVE SMOOTH",
"890 263 LINE",
"1069 517 LINE SMOOTH",
"1095 553 OFFCURVE",
"1081 586 OFFCURVE",
"1033 586 CURVE SMOOTH"
);
}
);
width = 1162;
},
{
layerId = "2731C349-77E1-43A4-A9DD-A1DF19151D5D";
paths = (
{
closed = 1;
nodes = (
"653 499 OFFCURVE",
"653 501 OFFCURVE",
"645 490 CURVE SMOOTH",
"503 289 LINE",
"549 47 LINE SMOOTH",
"551 38 OFFCURVE",
"552 37 OFFCURVE",
"539 43 CURVE SMOOTH",
"327 139 LINE",
"320 143 OFFCURVE",
"318 145 OFFCURVE",
"297 166 CURVE",
"281 145 OFFCURVE",
"279 143 OFFCURVE",
"274 140 CURVE",
"64 39 LINE SMOOTH",
"53 34 OFFCURVE",
"52 34 OFFCURVE",
"55 47 CURVE",
"98 289 LINE",
"-45 489 LINE SMOOTH",
"-53 501 OFFCURVE",
"-54 499 OFFCURVE",
"-40 499 CURVE SMOOTH",
"199 499 LINE",
"302 703 LINE",
"309 715 OFFCURVE",
"305 716 OFFCURVE",
"312 702 CURVE SMOOTH",
"420 499 LINE",
"640 499 LINE SMOOTH"
);
},
{
closed = 1;
nodes = (
"497 613 LINE",
"372 851 LINE SMOOTH",
"339 911 OFFCURVE",
"278 910 OFFCURVE",
"247 850 CURVE SMOOTH",
"126 613 LINE",
"-152 613 LINE SMOOTH",
"-220 613 OFFCURVE",
"-249 558 OFFCURVE",
"-210 502 CURVE SMOOTH",
"-38 257 LINE",
"-90 -39 LINE SMOOTH",
"-101 -108 OFFCURVE",
"-49 -148 OFFCURVE",
"14 -118 CURVE SMOOTH",
"296 18 LINE",
"298 18 OFFCURVE",
"299 19 OFFCURVE",
"299 20 CURVE",
"302 18 OFFCURVE",
"305 16 OFFCURVE",
"308 15 CURVE",
"592 -115 LINE SMOOTH",
"653 -142 OFFCURVE",
"705 -104 OFFCURVE",
"694 -39 CURVE SMOOTH",
"638 257 LINE",
"810 501 LINE SMOOTH",
"850 556 OFFCURVE",
"821 613 OFFCURVE",
"752 613 CURVE SMOOTH"
);
}
);
width = 600;
}
);
unicode = 2606;
},
{
glyphname = malteseCross;
lastChange = "2019-09-06 18:58:39 +0000";
layers = (
{
layerId = "C6C3B4F4-9047-4AEA-9672-C83927A9B560";
paths = (
{
closed = 1;
nodes = (
"86 166 OFFCURVE",
"97 166 OFFCURVE",
"109 179 CURVE",
"148 228 OFFCURVE",
"237 334 OFFCURVE",
"338 334 CURVE SMOOTH",
"439 334 OFFCURVE",
"531 223 OFFCURVE",
"568 178 CURVE",
"580 166 OFFCURVE",
"591 166 OFFCURVE",
"598 166 CURVE",
"598 522 LINE",
"590 522 OFFCURVE",
"579 524 OFFCURVE",
"569 511 CURVE",
"528 460 OFFCURVE",
"439 354 OFFCURVE",
"338 354 CURVE SMOOTH",
"237 354 OFFCURVE",
"146 462 OFFCURVE",
"109 509 CURVE",
"94 523 OFFCURVE",
"86 522 OFFCURVE",
"80 522 CURVE",
"80 166 LINE"
);
},
{
closed = 1;
nodes = (
"161 586 OFFCURVE",
"174 574 CURVE",
"223 535 OFFCURVE",
"329 446 OFFCURVE",
"329 345 CURVE SMOOTH",
"329 244 OFFCURVE",
"218 152 OFFCURVE",
"173 115 CURVE",
"161 103 OFFCURVE",
"161 92 OFFCURVE",
"161 85 CURVE",
"517 85 LINE",
"517 93 OFFCURVE",
"519 104 OFFCURVE",
"506 114 CURVE",
"455 155 OFFCURVE",
"349 244 OFFCURVE",
"349 345 CURVE SMOOTH",
"349 446 OFFCURVE",
"457 537 OFFCURVE",
"504 574 CURVE",
"518 589 OFFCURVE",
"517 597 OFFCURVE",
"517 603 CURVE",
"161 603 LINE",
"161 597 OFFCURVE"
);
}
);
width = 678;
},
{
layerId = "2731C349-77E1-43A4-A9DD-A1DF19151D5D";
paths = (
{
closed = 1;
nodes = (
"50 133 OFFCURVE",
"77 142 OFFCURVE",
"97 170 CURVE",
"171 260 OFFCURVE",
"238 307 OFFCURVE",
"299 307 CURVE SMOOTH",
"361 307 OFFCURVE",
"428 259 OFFCURVE",
"508 161 CURVE",
"510 159 LINE SMOOTH",
"529 140 OFFCURVE",
"554 135 OFFCURVE",
"586 142 CURVE",
"586 548 LINE",
"545 550 OFFCURVE",
"527 551 OFFCURVE",
"509 528 CURVE SMOOTH",
"430 430 OFFCURVE",
"362 381 OFFCURVE",
"299 381 CURVE SMOOTH",
"237 381 OFFCURVE",
"165 432 OFFCURVE",
"91 526 CURVE",
"88 529 LINE",
"67 548 OFFCURVE",
"49 553 OFFCURVE",
"14 546 CURVE",
"14 143 LINE"
);
},
{
closed = 1;
nodes = (
"89 594 OFFCURVE",
"98 567 OFFCURVE",
"126 547 CURVE",
"216 473 OFFCURVE",
"263 406 OFFCURVE",
"263 345 CURVE SMOOTH",
"263 283 OFFCURVE",
"215 216 OFFCURVE",
"117 136 CURVE",
"115 134 LINE SMOOTH",
"96 115 OFFCURVE",
"91 90 OFFCURVE",
"98 58 CURVE",
"504 58 LINE",
"506 99 OFFCURVE",
"507 117 OFFCURVE",
"484 135 CURVE SMOOTH",
"386 214 OFFCURVE",
"337 282 OFFCURVE",
"337 345 CURVE SMOOTH",
"337 407 OFFCURVE",
"388 479 OFFCURVE",
"482 553 CURVE",
"485 556 LINE",
"504 577 OFFCURVE",
"509 595 OFFCURVE",
"502 630 CURVE",
"99 630 LINE"
);
}
);
width = 600;
}
);
unicode = 2720;
},
{
glyphname = whiteSmilingFace;
lastChange = "2019-09-06 18:58:39 +0000";
layers = (
{
layerId = "C6C3B4F4-9047-4AEA-9672-C83927A9B560";
paths = (
{
closed = 1;
nodes = (
"285 -21 OFFCURVE",
"114 150 OFFCURVE",
"114 361 CURVE SMOOTH",
"114 571 OFFCURVE",
"285 742 OFFCURVE",
"496 742 CURVE SMOOTH",
"706 742 OFFCURVE",
"877 571 OFFCURVE",
"877 361 CURVE SMOOTH",
"877 150 OFFCURVE",
"706 -21 OFFCURVE",
"496 -21 CURVE SMOOTH"
);
},
{
closed = 1;
nodes = (
"368 445 OFFCURVE",
"393 470 OFFCURVE",
"393 500 CURVE SMOOTH",
"393 530 OFFCURVE",
"368 555 OFFCURVE",
"338 555 CURVE SMOOTH",
"307 555 OFFCURVE",
"282 530 OFFCURVE",
"282 500 CURVE SMOOTH",
"282 470 OFFCURVE",
"307 445 OFFCURVE",
"338 445 CURVE SMOOTH"
);
},
{
closed = 1;
nodes = (
"677 444 OFFCURVE",
"702 469 OFFCURVE",
"702 500 CURVE SMOOTH",
"702 531 OFFCURVE",
"677 556 OFFCURVE",
"646 556 CURVE SMOOTH",
"615 556 OFFCURVE",
"590 531 OFFCURVE",
"590 500 CURVE SMOOTH",
"590 469 OFFCURVE",
"615 444 OFFCURVE",
"646 444 CURVE SMOOTH"
);
},
{
closed = 1;
nodes = (
"554 135 OFFCURVE",
"667 164 OFFCURVE",
"770 296 CURVE",
"761 309 OFFCURVE",
"760 311 OFFCURVE",
"754 318 CURVE",
"646 185 OFFCURVE",
"544 165 OFFCURVE",
"494 165 CURVE SMOOTH",
"446 165 OFFCURVE",
"327 189 OFFCURVE",
"239 318 CURVE",
"231 312 OFFCURVE",
"226 308 OFFCURVE",
"220 302 CURVE",
"313 171 OFFCURVE",
"434 135 OFFCURVE",
"494 135 CURVE SMOOTH"
);
},
{
closed = 1;
nodes = (
"724 -55 OFFCURVE",
"910 131 OFFCURVE",
"910 360 CURVE SMOOTH",
"910 589 OFFCURVE",
"724 775 OFFCURVE",
"495 775 CURVE SMOOTH",
"266 775 OFFCURVE",
"80 589 OFFCURVE",
"80 360 CURVE SMOOTH",
"80 131 OFFCURVE",
"266 -55 OFFCURVE",
"495 -55 CURVE SMOOTH"
);
}
);
width = 990;
},
{
layerId = "2731C349-77E1-43A4-A9DD-A1DF19151D5D";
paths = (
{
closed = 1;
nodes = (
"105 6 OFFCURVE",
"-54 165 OFFCURVE",
"-54 361 CURVE SMOOTH",
"-54 556 OFFCURVE",
"105 715 OFFCURVE",
"301 715 CURVE SMOOTH",
"496 715 OFFCURVE",
"655 556 OFFCURVE",
"655 361 CURVE SMOOTH",
"655 165 OFFCURVE",
"496 6 OFFCURVE",
"301 6 CURVE SMOOTH"
);
},
{
closed = 1;
nodes = (
"188 418 OFFCURVE",
"225 455 OFFCURVE",
"225 500 CURVE SMOOTH",
"225 545 OFFCURVE",
"188 582 OFFCURVE",
"143 582 CURVE SMOOTH",
"97 582 OFFCURVE",
"60 545 OFFCURVE",
"60 500 CURVE SMOOTH",
"60 455 OFFCURVE",
"97 418 OFFCURVE",
"143 418 CURVE SMOOTH"
);
},
{
closed = 1;
nodes = (
"497 417 OFFCURVE",
"534 454 OFFCURVE",
"534 500 CURVE SMOOTH",
"534 546 OFFCURVE",
"497 583 OFFCURVE",
"451 583 CURVE SMOOTH",
"405 583 OFFCURVE",
"368 546 OFFCURVE",
"368 500 CURVE SMOOTH",
"368 454 OFFCURVE",
"405 417 OFFCURVE",
"451 417 CURVE SMOOTH"
);
},
{
closed = 1;
nodes = (
"402 108 OFFCURVE",
"513 173 OFFCURVE",
"596 279 CURVE",
"597 311 LINE",
"585 329 OFFCURVE",
"586 329 OFFCURVE",
"558 360 CURVE",
"480 254 OFFCURVE",
"385 192 OFFCURVE",
"299 192 CURVE SMOOTH",
"217 192 OFFCURVE",
"125 248 OFFCURVE",
"66 333 CURVE",
"28 340 LINE",
"12 328 OFFCURVE",
"8 323 OFFCURVE",
"-10 305 CURVE",
"66 187 OFFCURVE",
"191 108 OFFCURVE",
"299 108 CURVE SMOOTH"
);
},
{
closed = 1;
nodes = (
"544 -82 OFFCURVE",
"742 116 OFFCURVE",
"742 360 CURVE SMOOTH",
"742 604 OFFCURVE",
"544 802 OFFCURVE",
"300 802 CURVE SMOOTH",
"56 802 OFFCURVE",
"-142 604 OFFCURVE",
"-142 360 CURVE SMOOTH",
"-142 116 OFFCURVE",
"56 -82 OFFCURVE",
"300 -82 CURVE SMOOTH"
);
}
);
width = 600;
}
);
unicode = 263A;
},
{
glyphname = blackSmilingFace;
lastChange = "2019-09-06 18:58:39 +0000";
layers = (
{
layerId = "C6C3B4F4-9047-4AEA-9672-C83927A9B560";
paths = (
{
closed = 1;
nodes = (
"673 -21 OFFCURVE",
"844 150 OFFCURVE",
"844 361 CURVE SMOOTH",
"844 571 OFFCURVE",
"673 742 OFFCURVE",
"463 742 CURVE SMOOTH",
"252 742 OFFCURVE",
"80 571 OFFCURVE",
"80 361 CURVE SMOOTH",
"80 150 OFFCURVE",
"252 -21 OFFCURVE",
"463 -21 CURVE SMOOTH"
);
},
{
closed = 1;
nodes = (
"274 445 OFFCURVE",
"249 470 OFFCURVE",
"249 500 CURVE SMOOTH",
"249 530 OFFCURVE",
"274 555 OFFCURVE",
"305 555 CURVE SMOOTH",
"335 555 OFFCURVE",
"360 530 OFFCURVE",
"360 500 CURVE SMOOTH",
"360 470 OFFCURVE",
"335 445 OFFCURVE",
"305 445 CURVE SMOOTH"
);
},
{
closed = 1;
nodes = (
"582 444 OFFCURVE",
"557 469 OFFCURVE",
"557 500 CURVE SMOOTH",
"557 531 OFFCURVE",
"582 556 OFFCURVE",
"613 556 CURVE SMOOTH",
"644 556 OFFCURVE",
"669 531 OFFCURVE",
"669 500 CURVE SMOOTH",
"669 469 OFFCURVE",
"644 444 OFFCURVE",
"613 444 CURVE SMOOTH"
);
},
{
closed = 1;
nodes = (
"335 88 OFFCURVE",
"202 190 OFFCURVE",
"202 318 CURVE SMOOTH",
"202 444 OFFCURVE",
"304 204 OFFCURVE",
"461 204 CURVE SMOOTH",
"616 204 OFFCURVE",
"721 444 OFFCURVE",
"721 318 CURVE SMOOTH",
"721 190 OFFCURVE",
"588 88 OFFCURVE",
"462 88 CURVE SMOOTH"
);
},
{
closed = 1;
nodes = (
"571 142 OFFCURVE",
"706 233 OFFCURVE",
"706 344 CURVE SMOOTH",
"706 455 OFFCURVE",
"598 204 OFFCURVE",
"460 204 CURVE SMOOTH",
"319 204 OFFCURVE",
"214 455 OFFCURVE",
"214 344 CURVE SMOOTH",
"214 233 OFFCURVE",
"349 142 OFFCURVE",
"461 142 CURVE SMOOTH"
);
}
);
width = 924;
},
{
layerId = "2731C349-77E1-43A4-A9DD-A1DF19151D5D";
paths = (
{
closed = 1;
nodes = (
"715 -48 OFFCURVE",
"898 135 OFFCURVE",
"898 361 CURVE SMOOTH",
"898 586 OFFCURVE",
"715 769 OFFCURVE",
"490 769 CURVE SMOOTH",
"264 769 OFFCURVE",
"80 586 OFFCURVE",
"80 361 CURVE SMOOTH",
"80 135 OFFCURVE",
"264 -48 OFFCURVE",
"490 -48 CURVE SMOOTH"
);
},
{
closed = 1;
nodes = (
"318 123 OFFCURVE",
"165 312 OFFCURVE",
"214 344 CURVE SMOOTH",
"257 372 OFFCURVE",
"324 188 OFFCURVE",
"487 188 CURVE SMOOTH",
"648 188 OFFCURVE",
"716 392 OFFCURVE",
"760 344 CURVE SMOOTH",
"792 309 OFFCURVE",
"650 137 OFFCURVE",
"488 130 CURVE SMOOTH"
);
},
{
closed = 1;
nodes = (
"316 472 OFFCURVE",
"303 485 OFFCURVE",
"303 500 CURVE SMOOTH",
"303 515 OFFCURVE",
"316 528 OFFCURVE",
"332 528 CURVE SMOOTH",
"347 528 OFFCURVE",
"360 515 OFFCURVE",
"360 500 CURVE SMOOTH",
"360 485 OFFCURVE",
"347 472 OFFCURVE",
"332 472 CURVE SMOOTH"
);
},
{
closed = 1;
nodes = (
"624 471 OFFCURVE",
"611 484 OFFCURVE",
"611 500 CURVE SMOOTH",
"611 516 OFFCURVE",
"624 529 OFFCURVE",
"640 529 CURVE SMOOTH",
"656 529 OFFCURVE",
"669 516 OFFCURVE",
"669 500 CURVE SMOOTH",
"669 484 OFFCURVE",
"656 471 OFFCURVE",
"640 471 CURVE SMOOTH"
);
}
);
width = 978;
}
);
unicode = 263B;
},
{
glyphname = sunWithRays;
lastChange = "2019-09-06 18:58:39 +0000";
layers = (
{
layerId = "C6C3B4F4-9047-4AEA-9672-C83927A9B560";
paths = (
{
closed = 1;
nodes = (
"462 42 OFFCURVE",
"548 128 OFFCURVE",
"548 232 CURVE SMOOTH",
"548 336 OFFCURVE",
"462 422 OFFCURVE",
"358 422 CURVE SMOOTH",
"254 422 OFFCURVE",
"168 336 OFFCURVE",
"168 232 CURVE SMOOTH",
"168 128 OFFCURVE",
"254 42 OFFCURVE",
"358 42 CURVE SMOOTH"
);
},
{
closed = 1;
nodes = (
"281 87 OFFCURVE",
"217 154 OFFCURVE",
"217 231 CURVE SMOOTH",
"217 308 OFFCURVE",
"281 377 OFFCURVE",
"358 377 CURVE SMOOTH",
"435 377 OFFCURVE",
"499 308 OFFCURVE",
"499 231 CURVE SMOOTH",
"499 154 OFFCURVE",
"435 87 OFFCURVE",
"358 87 CURVE SMOOTH"
);
},
{
closed = 1;
nodes = (
"338 404 LINE",
"380 404 LINE",
"380 510 LINE",
"338 510 LINE"
);
},
{
closed = 1;
nodes = (
"530 252 LINE",
"530 210 LINE",
"636 210 LINE",
"636 252 LINE"
);
},
{
closed = 1;
nodes = (
"186 210 LINE",
"186 252 LINE",
"80 252 LINE",
"80 210 LINE"
);
},
{
closed = 1;
nodes = (
"462 368 LINE",
"492 338 LINE",
"567 413 LINE",
"537 443 LINE"
);
},
{
closed = 1;
nodes = (
"221 338 LINE",
"251 368 LINE",
"176 443 LINE",
"146 413 LINE"
);
},
{
closed = 1;
nodes = (
"380 -48 LINE",
"380 58 LINE",
"338 58 LINE",
"338 -48 LINE"
);
},
{
closed = 1;
nodes = (
"567 49 LINE",
"492 124 LINE",
"462 94 LINE",
"537 19 LINE"
);
},
{
closed = 1;
nodes = (
"176 19 LINE",
"251 94 LINE",
"221 124 LINE",
"146 49 LINE"
);
}
);
width = 716;
},
{
layerId = "2731C349-77E1-43A4-A9DD-A1DF19151D5D";
paths = (
{
closed = 1;
nodes = (
"419 15 OFFCURVE",
"517 113 OFFCURVE",
"517 232 CURVE SMOOTH",
"517 351 OFFCURVE",
"419 449 OFFCURVE",
"300 449 CURVE SMOOTH",
"181 449 OFFCURVE",
"83 351 OFFCURVE",
"83 232 CURVE SMOOTH",
"83 113 OFFCURVE",
"181 15 OFFCURVE",
"300 15 CURVE SMOOTH"
);
},
{
closed = 1;
nodes = (
"239 114 OFFCURVE",
"186 168 OFFCURVE",
"186 231 CURVE SMOOTH",
"186 295 OFFCURVE",
"239 350 OFFCURVE",
"300 350 CURVE SMOOTH",
"361 350 OFFCURVE",
"414 295 OFFCURVE",
"414 231 CURVE SMOOTH",
"414 168 OFFCURVE",
"361 114 OFFCURVE",
"300 114 CURVE SMOOTH"
);
},
{
closed = 1;
nodes = (
"253 377 LINE",
"349 377 LINE",
"349 537 LINE",
"253 537 LINE"
);
},
{
closed = 1;
nodes = (
"445 279 LINE",
"445 183 LINE",
"605 183 LINE",
"605 279 LINE"
);
},
{
closed = 1;
nodes = (
"155 183 LINE",
"155 279 LINE",
"-5 279 LINE",
"-5 183 LINE"
);
},
{
closed = 1;
nodes = (
"366 368 LINE",
"434 300 LINE",
"547 413 LINE",
"479 481 LINE"
);
},
{
closed = 1;
nodes = (
"163 300 LINE",
"231 368 LINE",
"118 481 LINE",
"50 413 LINE"
);
},
{
closed = 1;
nodes = (
"349 -75 LINE",
"349 85 LINE",
"253 85 LINE",
"253 -75 LINE"
);
},
{
closed = 1;
nodes = (
"547 49 LINE",
"434 162 LINE",
"366 94 LINE",
"479 -19 LINE"
);
},
{
closed = 1;
nodes = (
"118 -19 LINE",
"231 94 LINE",
"163 162 LINE",
"50 49 LINE"
);
}
);
width = 600;
}
);
unicode = 263C;
},
{
glyphname = venus;
lastChange = "2019-09-06 18:58:39 +0000";
layers = (
{
layerId = "C6C3B4F4-9047-4AEA-9672-C83927A9B560";
paths = (
{
closed = 1;
nodes = (
"411 338 OFFCURVE",
"507 434 OFFCURVE",
"507 551 CURVE SMOOTH",
"507 668 OFFCURVE",
"411 764 OFFCURVE",
"294 764 CURVE SMOOTH",
"176 764 OFFCURVE",
"80 668 OFFCURVE",
"80 551 CURVE SMOOTH",
"80 434 OFFCURVE",
"176 338 OFFCURVE",
"294 338 CURVE SMOOTH"
);
},
{
closed = 1;
nodes = (
"214 405 OFFCURVE",
"148 470 OFFCURVE",
"148 550 CURVE SMOOTH",
"148 631 OFFCURVE",
"214 696 OFFCURVE",
"294 696 CURVE SMOOTH",
"374 696 OFFCURVE",
"439 631 OFFCURVE",
"439 550 CURVE SMOOTH",
"439 470 OFFCURVE",
"374 405 OFFCURVE",
"294 405 CURVE"
);
},
{
closed = 1;
nodes = (
"255 -65 LINE",
"336 -65 LINE",
"336 368 LINE",
"255 368 LINE"
);
},
{
closed = 1;
nodes = (
"81 144 LINE",
"507 144 LINE",
"507 211 LINE",
"81 211 LINE"
);
}
);
width = 587;
},
{
layerId = "2731C349-77E1-43A4-A9DD-A1DF19151D5D";
paths = (
{
closed = 1;
nodes = (
"433 311 OFFCURVE",
"541 419 OFFCURVE",
"541 551 CURVE SMOOTH",
"541 683 OFFCURVE",
"433 791 OFFCURVE",
"301 791 CURVE SMOOTH",
"168 791 OFFCURVE",
"60 683 OFFCURVE",
"60 551 CURVE SMOOTH",
"60 419 OFFCURVE",
"168 311 OFFCURVE",
"301 311 CURVE SMOOTH"
);
},
{
closed = 1;
nodes = (
"235 432 OFFCURVE",
"182 485 OFFCURVE",
"182 550 CURVE SMOOTH",
"182 616 OFFCURVE",
"235 669 OFFCURVE",
"301 669 CURVE SMOOTH",
"366 669 OFFCURVE",
"419 616 OFFCURVE",
"419 550 CURVE SMOOTH",
"419 485 OFFCURVE",
"366 432 OFFCURVE",
"301 432 CURVE SMOOTH"
);
},
{
closed = 1;
nodes = (
"235 -92 LINE",
"370 -92 LINE",
"370 395 LINE",
"235 395 LINE"
);
},
{
closed = 1;
nodes = (
"61 117 LINE",
"541 117 LINE",
"541 238 LINE",
"61 238 LINE"
);
}
);
width = 600;
}
);
unicode = 2640;
},
{
glyphname = mars;
lastChange = "2019-09-06 18:58:39 +0000";
layers = (
{
layerId = "C6C3B4F4-9047-4AEA-9672-C83927A9B560";
paths = (
{
closed = 1;
nodes = (
"357 493 OFFCURVE",
"221 489 OFFCURVE",
"139 405 CURVE SMOOTH",
"57 321 OFFCURVE",
"62 184 OFFCURVE",
"147 104 CURVE SMOOTH",
"234 23 OFFCURVE",
"369 26 OFFCURVE",
"449 111 CURVE SMOOTH",
"529 196 OFFCURVE",
"525 331 OFFCURVE",
"440 413 CURVE SMOOTH"
);
},
{
closed = 1;
nodes = (
"452 309 OFFCURVE",
"455 216 OFFCURVE",
"400 159 CURVE SMOOTH",
"344 100 OFFCURVE",
"252 97 OFFCURVE",
"194 153 CURVE SMOOTH",
"137 208 OFFCURVE",
"134 299 OFFCURVE",
"190 359 CURVE SMOOTH",
"244 416 OFFCURVE",
"336 420 OFFCURVE",
"394 364 CURVE"
);
},
{
closed = 1;
nodes = (
"410 435 LINE",
"464 380 LINE",
"721 637 LINE",
"667 692 LINE"
);
},
{
closed = 1;
nodes = (
"466 619 LINE",
"722 619 LINE",
"722 692 LINE",
"466 692 LINE"
);
},
{
closed = 1;
nodes = (
"721 436 LINE",
"721 692 LINE",
"648 692 LINE",
"648 436 LINE"
);
}
);
width = 802;
},
{
layerId = "2731C349-77E1-43A4-A9DD-A1DF19151D5D";
paths = (
{
closed = 1;
nodes = (
"264 523 OFFCURVE",
"111 519 OFFCURVE",
"19 424 CURVE SMOOTH",
"-73 330 OFFCURVE",
"-69 175 OFFCURVE",
"28 84 CURVE SMOOTH",
"126 -7 OFFCURVE",
"278 -3 OFFCURVE",
"368 92 CURVE SMOOTH",
"458 188 OFFCURVE",
"453 340 OFFCURVE",
"358 432 CURVE SMOOTH"
);
},
{
closed = 1;
nodes = (
"322 299 OFFCURVE",
"324 224 OFFCURVE",
"279 178 CURVE SMOOTH",
"233 129 OFFCURVE",
"159 127 OFFCURVE",
"112 172 CURVE SMOOTH",
"65 218 OFFCURVE",
"63 292 OFFCURVE",
"109 341 CURVE SMOOTH",
"153 387 OFFCURVE",
"228 390 OFFCURVE",
"274 344 CURVE SMOOTH"
);
},
{
closed = 1;
nodes = (
"271 435 LINE",
"363 342 LINE",
"658 637 LINE",
"566 730 LINE"
);
},
{
closed = 1;
nodes = (
"338 592 LINE",
"648 592 LINE",
"648 719 LINE",
"338 719 LINE"
);
},
{
closed = 1;
nodes = (
"647 409 LINE",
"647 719 LINE",
"520 719 LINE",
"520 409 LINE"
);
}
);
width = 600;
}
);
unicode = 2642;
},
{
glyphname = spadeBlackSuit;
lastChange = "2019-09-06 18:58:39 +0000";
layers = (
{
components = (
{
name = heartBlackSuit;
transform = "{1, 0, 0, -1, 36, 739}";
}
);
layerId = "C6C3B4F4-9047-4AEA-9672-C83927A9B560";
paths = (
{
closed = 1;
nodes = (
"194 416 OFFCURVE",
"207 404 CURVE",
"256 365 OFFCURVE",
"352 276 OFFCURVE",
"352 175 CURVE SMOOTH",
"352 74 OFFCURVE",
"271 -18 OFFCURVE",
"226 -55 CURVE",
"214 -67 OFFCURVE",
"214 -78 OFFCURVE",
"214 -85 CURVE",
"530 -85 LINE",
"530 -77 OFFCURVE",
"532 -66 OFFCURVE",
"519 -56 CURVE",
"468 -15 OFFCURVE",
"392 74 OFFCURVE",
"392 175 CURVE SMOOTH",
"392 276 OFFCURVE",
"490 367 OFFCURVE",
"537 404 CURVE",
"551 419 OFFCURVE",
"550 427 OFFCURVE",
"550 433 CURVE",
"194 433 LINE",
"194 427 OFFCURVE"
);
}
);
width = 708;
},
{
components = (
{
name = heartBlackSuit;
transform = "{1, 0, 0, -1, -10, 739}";
}
);
layerId = "2731C349-77E1-43A4-A9DD-A1DF19151D5D";
paths = (
{
closed = 1;
nodes = (
"89 424 OFFCURVE",
"98 397 OFFCURVE",
"125 377 CURVE",
"206 311 OFFCURVE",
"253 237 OFFCURVE",
"253 175 CURVE SMOOTH",
"253 107 OFFCURVE",
"205 22 OFFCURVE",
"137 -34 CURVE",
"135 -36 LINE SMOOTH",
"116 -55 OFFCURVE",
"111 -80 OFFCURVE",
"118 -112 CURVE",
"484 -112 LINE",
"486 -71 OFFCURVE",
"487 -53 OFFCURVE",
"464 -35 CURVE SMOOTH",
"394 21 OFFCURVE",
"347 105 OFFCURVE",
"347 175 CURVE SMOOTH",
"347 239 OFFCURVE",
"398 317 OFFCURVE",
"482 383 CURVE",
"485 386 LINE",
"504 407 OFFCURVE",
"509 425 OFFCURVE",
"502 460 CURVE",
"99 460 LINE"
);
}
);
width = 600;
}
);
unicode = 2660;
},
